STARTFONT 2.1
FONT -JDECW-Screen-Medium-R-Normal--10-100-75-75-M-100-JISX0208-Kanji00
SIZE 10 75 75
FONTBOUNDINGBOX 10 10 0 -2

STARTPROPERTIES 26
FONTNAME_REGISTRY ""
FAMILY_NAME "Screen"
FOUNDRY "JDECW"
WEIGHT_NAME "Medium"
SLANT "R"
SETWIDTH_NAME "Normal"
ADD_STYLE_NAME ""
PIXEL_SIZE 10
POINT_SIZE 100
RESOLUTION_X 75
RESOLUTION_Y 75
SPACING "M"
AVERAGE_WIDTH 100
CHARSET_REGISTRY "JISX0208"
CHARSET_ENCODING "Kanji00"
DEVICE_FONT_NAME "Screen-JISX0208-Kanji00"
CHARSET_COLLECTIONS "JISX0208 Kanji00"
FULL_NAME "Screen JISX0208 Kanji00"
COPYRIGHT "Copyright (c) 1988 Digital Equipment Corporation Japan."
CAP_HEIGHT 7
X_HEIGHT 5
WEIGHT 10
QUAD_WIDTH 10
DEFAULT_CHAR 8738
FONT_DESCENT 2
FONT_ASCENT 8
ENDPROPERTIES

CHARS 7896

STARTCHAR C2121
ENCODING 8481
SWIDTH 1000 0
DWIDTH 10 0
BBX 10 10 0 -2
BITMAP
0000
0000
0000
0000
0000
0000
0000
0000
0000
0000
ENDCHAR

STARTCHAR C2122
ENCODING 8482
SWIDTH 1000 0
DWIDTH 10 0
BBX 10 10 0 -2
BITMAP
0000
0000
0000
0000
0000
0000
0000
4000
2000
0000
ENDCHAR

STARTCHAR C2123
ENCODING 8483
SWIDTH 1000 0
DWIDTH 10 0
BBX 10 10 0 -2
BITMAP
0000
0000
0000
0000
0000
0000
2000
5000
2000
0000
ENDCHAR

STARTCHAR C2124
ENCODING 8484
SWIDTH 1000 0
DWIDTH 10 0
BBX 10 10 0 -2
BITMAP
0000
0000
0000
0000
0000
6000
6000
2000
4000
0000
ENDCHAR

STARTCHAR C2125
ENCODING 8485
SWIDTH 1000 0
DWIDTH 10 0
BBX 10 10 0 -2
BITMAP
0000
0000
0000
0000
0000
0000
6000
6000
0000
0000
ENDCHAR

STARTCHAR C2126
ENCODING 8486
SWIDTH 1000 0
DWIDTH 10 0
BBX 10 10 0 -2
BITMAP
0000
0000
0000
1800
1800
0000
0000
0000
0000
0000
ENDCHAR

STARTCHAR C2127
ENCODING 8487
SWIDTH 1000 0
DWIDTH 10 0
BBX 10 10 0 -2
BITMAP
0000
0000
1800
1800
0000
0000
1800
1800
0000
0000
ENDCHAR

STARTCHAR C2128
ENCODING 8488
SWIDTH 1000 0
DWIDTH 10 0
BBX 10 10 0 -2
BITMAP
0000
1800
1800
0000
0000
1800
1800
0800
1000
0000
ENDCHAR

STARTCHAR C2129
ENCODING 8489
SWIDTH 1000 0
DWIDTH 10 0
BBX 10 10 0 -2
BITMAP
0000
1800
2400
0400
1800
0000
1800
1800
0000
0000
ENDCHAR

STARTCHAR C212a
ENCODING 8490
SWIDTH 1000 0
DWIDTH 10 0
BBX 10 10 0 -2
BITMAP
0000
1800
1800
1800
1800
0000
1800
1800
0000
0000
ENDCHAR

STARTCHAR C212b
ENCODING 8491
SWIDTH 1000 0
DWIDTH 10 0
BBX 10 10 0 -2
BITMAP
2000
9000
4000
0000
0000
0000
0000
0000
0000
0000
ENDCHAR

STARTCHAR C212c
ENCODING 8492
SWIDTH 1000 0
DWIDTH 10 0
BBX 10 10 0 -2
BITMAP
4000
A000
4000
0000
0000
0000
0000
0000
0000
0000
ENDCHAR

STARTCHAR C212d
ENCODING 8493
SWIDTH 1000 0
DWIDTH 10 0
BBX 10 10 0 -2
BITMAP
0800
1000
0000
0000
0000
0000
0000
0000
0000
0000
ENDCHAR

STARTCHAR C212e
ENCODING 8494
SWIDTH 1000 0
DWIDTH 10 0
BBX 10 10 0 -2
BITMAP
1000
0800
0000
0000
0000
0000
0000
0000
0000
0000
ENDCHAR

STARTCHAR C212f
ENCODING 8495
SWIDTH 1000 0
DWIDTH 10 0
BBX 10 10 0 -2
BITMAP
3600
3600
0000
0000
0000
0000
0000
0000
0000
0000
ENDCHAR

STARTCHAR C2130
ENCODING 8496
SWIDTH 1000 0
DWIDTH 10 0
BBX 10 10 0 -2
BITMAP
0800
1400
0000
0000
0000
0000
0000
0000
0000
0000
ENDCHAR

STARTCHAR C2131
ENCODING 8497
SWIDTH 1000 0
DWIDTH 10 0
BBX 10 10 0 -2
BITMAP
FF80
0000
0000
0000
0000
0000
0000
0000
0000
0000
ENDCHAR

STARTCHAR C2132
ENCODING 8498
SWIDTH 1000 0
DWIDTH 10 0
BBX 10 10 0 -2
BITMAP
0000
0000
0000
0000
0000
0000
0000
0000
FF80
0000
ENDCHAR

STARTCHAR C2133
ENCODING 8499
SWIDTH 1000 0
DWIDTH 10 0
BBX 10 10 0 -2
BITMAP
0000
0000
0000
1000
0800
0400
0400
0000
0000
0000
ENDCHAR

STARTCHAR C2134
ENCODING 8500
SWIDTH 1000 0
DWIDTH 10 0
BBX 10 10 0 -2
BITMAP
0000
0500
0500
1000
0800
0400
0400
0000
0000
0000
ENDCHAR

STARTCHAR C2135
ENCODING 8501
SWIDTH 1000 0
DWIDTH 10 0
BBX 10 10 0 -2
BITMAP
0000
0000
0000
1000
0800
0400
0800
0000
0000
0000
ENDCHAR

STARTCHAR C2136
ENCODING 8502
SWIDTH 1000 0
DWIDTH 10 0
BBX 10 10 0 -2
BITMAP
0000
0500
0500
1000
0800
0400
0800
0000
0000
0000
ENDCHAR

STARTCHAR C2137
ENCODING 8503
SWIDTH 1000 0
DWIDTH 10 0
BBX 10 10 0 -2
BITMAP
0000
0000
1200
1200
2400
2400
0000
0000
0000
0000
ENDCHAR

STARTCHAR C2138
ENCODING 8504
SWIDTH 1000 0
DWIDTH 10 0
BBX 10 10 0 -2
BITMAP
0800
1400
2200
C180
3E00
0800
0800
7F00
0000
0000
ENDCHAR

STARTCHAR C2139
ENCODING 8505
SWIDTH 1000 0
DWIDTH 10 0
BBX 10 10 0 -2
BITMAP
0000
1000
1E00
2200
4200
1400
0800
0400
0000
0000
ENDCHAR

STARTCHAR C213a
ENCODING 8506
SWIDTH 1000 0
DWIDTH 10 0
BBX 10 10 0 -2
BITMAP
0100
0100
0200
3400
4800
9400
A200
C000
8000
0000
ENDCHAR

STARTCHAR C213b
ENCODING 8507
SWIDTH 1000 0
DWIDTH 10 0
BBX 10 10 0 -2
BITMAP
0000
3E00
4100
8080
8080
8080
4100
3E00
0000
0000
ENDCHAR

STARTCHAR C213c
ENCODING 8508
SWIDTH 1000 0
DWIDTH 10 0
BBX 10 10 0 -2
BITMAP
0000
0000
0000
0000
3E00
0000
0000
0000
0000
0000
ENDCHAR

STARTCHAR C213d
ENCODING 8509
SWIDTH 1000 0
DWIDTH 10 0
BBX 10 10 0 -2
BITMAP
0000
0000
0000
0000
FF80
0000
0000
0000
0000
0000
ENDCHAR

STARTCHAR C213e
ENCODING 8510
SWIDTH 1000 0
DWIDTH 10 0
BBX 10 10 0 -2
BITMAP
0000
0000
0000
0000
1C00
0000
0000
0000
0000
0000
ENDCHAR

STARTCHAR C213f
ENCODING 8511
SWIDTH 1000 0
DWIDTH 10 0
BBX 10 10 0 -2
BITMAP
0080
0100
0200
0400
0800
1000
2000
4000
8000
0000
ENDCHAR

STARTCHAR C2140
ENCODING 8512
SWIDTH 1000 0
DWIDTH 10 0
BBX 10 10 0 -2
BITMAP
8000
4000
2000
1000
0800
0400
0200
0100
0080
0000
ENDCHAR

STARTCHAR C2141
ENCODING 8513
SWIDTH 1000 0
DWIDTH 10 0
BBX 10 10 0 -2
BITMAP
0000
0000
0000
7000
8880
0700
0000
0000
0000
0000
ENDCHAR

STARTCHAR C2142
ENCODING 8514
SWIDTH 1000 0
DWIDTH 10 0
BBX 10 10 0 -2
BITMAP
1400
1400
1400
1400
1400
1400
1400
1400
1400
0000
ENDCHAR

STARTCHAR C2143
ENCODING 8515
SWIDTH 1000 0
DWIDTH 10 0
BBX 10 10 0 -2
BITMAP
0800
0800
0800
0800
0800
0800
0800
0800
0800
0000
ENDCHAR

STARTCHAR C2144
ENCODING 8516
SWIDTH 1000 0
DWIDTH 10 0
BBX 10 10 0 -2
BITMAP
0000
0000
0000
DB00
DB00
0000
0000
0000
0000
0000
ENDCHAR

STARTCHAR C2145
ENCODING 8517
SWIDTH 1000 0
DWIDTH 10 0
BBX 10 10 0 -2
BITMAP
0000
0000
0000
6300
6300
0000
0000
0000
0000
0000
ENDCHAR

STARTCHAR C2146
ENCODING 8518
SWIDTH 1000 0
DWIDTH 10 0
BBX 10 10 0 -2
BITMAP
0100
0200
0300
0300
0000
0000
0000
0000
0000
0000
ENDCHAR

STARTCHAR C2147
ENCODING 8519
SWIDTH 1000 0
DWIDTH 10 0
BBX 10 10 0 -2
BITMAP
6000
6000
2000
4000
0000
0000
0000
0000
0000
0000
ENDCHAR

STARTCHAR C2148
ENCODING 8520
SWIDTH 1000 0
DWIDTH 10 0
BBX 10 10 0 -2
BITMAP
0900
1200
1B00
1B00
0000
0000
0000
0000
0000
0000
ENDCHAR

STARTCHAR C2149
ENCODING 8521
SWIDTH 1000 0
DWIDTH 10 0
BBX 10 10 0 -2
BITMAP
6C00
6C00
2400
4800
0000
0000
0000
0000
0000
0000
ENDCHAR

STARTCHAR C214a
ENCODING 8522
SWIDTH 1000 0
DWIDTH 10 0
BBX 10 10 0 -2
BITMAP
0100
0200
0200
0400
0400
0400
0200
0200
0100
0000
ENDCHAR

STARTCHAR C214b
ENCODING 8523
SWIDTH 1000 0
DWIDTH 10 0
BBX 10 10 0 -2
BITMAP
4000
2000
2000
1000
1000
1000
2000
2000
4000
0000
ENDCHAR

STARTCHAR C214c
ENCODING 8524
SWIDTH 1000 0
DWIDTH 10 0
BBX 10 10 0 -2
BITMAP
0100
0600
0400
0400
0400
0400
0400
0600
0100
0000
ENDCHAR

STARTCHAR C214d
ENCODING 8525
SWIDTH 1000 0
DWIDTH 10 0
BBX 10 10 0 -2
BITMAP
4000
3000
1000
1000
1000
1000
1000
3000
4000
0000
ENDCHAR

STARTCHAR C214e
ENCODING 8526
SWIDTH 1000 0
DWIDTH 10 0
BBX 10 10 0 -2
BITMAP
0700
0400
0400
0400
0400
0400
0400
0400
0700
0000
ENDCHAR

STARTCHAR C214f
ENCODING 8527
SWIDTH 1000 0
DWIDTH 10 0
BBX 10 10 0 -2
BITMAP
7000
1000
1000
1000
1000
1000
1000
1000
7000
0000
ENDCHAR

STARTCHAR C2150
ENCODING 8528
SWIDTH 1000 0
DWIDTH 10 0
BBX 10 10 0 -2
BITMAP
0100
0200
0200
0200
0400
0200
0200
0200
0100
0000
ENDCHAR

STARTCHAR C2151
ENCODING 8529
SWIDTH 1000 0
DWIDTH 10 0
BBX 10 10 0 -2
BITMAP
4000
2000
2000
2000
1000
2000
2000
2000
4000
0000
ENDCHAR

STARTCHAR C2152
ENCODING 8530
SWIDTH 1000 0
DWIDTH 10 0
BBX 10 10 0 -2
BITMAP
0100
0100
0200
0200
0400
0200
0200
0100
0100
0000
ENDCHAR

STARTCHAR C2153
ENCODING 8531
SWIDTH 1000 0
DWIDTH 10 0
BBX 10 10 0 -2
BITMAP
4000
4000
2000
2000
1000
2000
2000
4000
4000
0000
ENDCHAR

STARTCHAR C2154
ENCODING 8532
SWIDTH 1000 0
DWIDTH 10 0
BBX 10 10 0 -2
BITMAP
0480
0480
0900
0900
1200
0900
0900
0480
0480
0000
ENDCHAR

STARTCHAR C2155
ENCODING 8533
SWIDTH 1000 0
DWIDTH 10 0
BBX 10 10 0 -2
BITMAP
9000
9000
4800
4800
2400
4800
4800
9000
9000
0000
ENDCHAR

STARTCHAR C2156
ENCODING 8534
SWIDTH 1000 0
DWIDTH 10 0
BBX 10 10 0 -2
BITMAP
0700
0400
0400
0400
0400
0400
0000
0000
0000
0000
ENDCHAR

STARTCHAR C2157
ENCODING 8535
SWIDTH 1000 0
DWIDTH 10 0
BBX 10 10 0 -2
BITMAP
0000
0000
0000
1000
1000
1000
1000
1000
7000
0000
ENDCHAR

STARTCHAR C2158
ENCODING 8536
SWIDTH 1000 0
DWIDTH 10 0
BBX 10 10 0 -2
BITMAP
0F80
0880
0B80
0A00
0A00
0A00
0E00
0000
0000
0000
ENDCHAR

STARTCHAR C2159
ENCODING 8537
SWIDTH 1000 0
DWIDTH 10 0
BBX 10 10 0 -2
BITMAP
0000
0000
3800
2800
2800
2800
E800
8800
F800
0000
ENDCHAR

STARTCHAR C215a
ENCODING 8538
SWIDTH 1000 0
DWIDTH 10 0
BBX 10 10 0 -2
BITMAP
0700
0600
0600
0400
0400
0400
0600
0600
0700
0000
ENDCHAR

STARTCHAR C215b
ENCODING 8539
SWIDTH 1000 0
DWIDTH 10 0
BBX 10 10 0 -2
BITMAP
7000
3000
3000
1000
1000
1000
3000
3000
7000
0000
ENDCHAR

STARTCHAR C215c
ENCODING 8540
SWIDTH 1000 0
DWIDTH 10 0
BBX 10 10 0 -2
BITMAP
0000
0000
0800
0800
3E00
0800
0800
0000
0000
0000
ENDCHAR

STARTCHAR C215d
ENCODING 8541
SWIDTH 1000 0
DWIDTH 10 0
BBX 10 10 0 -2
BITMAP
0000
0000
0000
0000
3E00
0000
0000
0000
0000
0000
ENDCHAR

STARTCHAR C215e
ENCODING 8542
SWIDTH 1000 0
DWIDTH 10 0
BBX 10 10 0 -2
BITMAP
0000
0800
0800
3E00
0800
0800
0000
3E00
0000
0000
ENDCHAR

STARTCHAR C215f
ENCODING 8543
SWIDTH 1000 0
DWIDTH 10 0
BBX 10 10 0 -2
BITMAP
0000
0000
2200
1400
0800
1400
2200
0000
0000
0000
ENDCHAR

STARTCHAR C2160
ENCODING 8544
SWIDTH 1000 0
DWIDTH 10 0
BBX 10 10 0 -2
BITMAP
0000
1800
1800
0000
7E00
0000
1800
1800
0000
0000
ENDCHAR

STARTCHAR C2161
ENCODING 8545
SWIDTH 1000 0
DWIDTH 10 0
BBX 10 10 0 -2
BITMAP
0000
0000
0000
3E00
0000
3E00
0000
0000
0000
0000
ENDCHAR

STARTCHAR C2162
ENCODING 8546
SWIDTH 1000 0
DWIDTH 10 0
BBX 10 10 0 -2
BITMAP
0000
0200
0400
3E00
0800
3E00
1000
2000
0000
0000
ENDCHAR

STARTCHAR C2163
ENCODING 8547
SWIDTH 1000 0
DWIDTH 10 0
BBX 10 10 0 -2
BITMAP
0000
0100
0600
1800
6000
1800
0600
0100
0000
0000
ENDCHAR

STARTCHAR C2164
ENCODING 8548
SWIDTH 1000 0
DWIDTH 10 0
BBX 10 10 0 -2
BITMAP
0000
4000
3000
0C00
0300
0C00
3000
4000
0000
0000
ENDCHAR

STARTCHAR C2165
ENCODING 8549
SWIDTH 1000 0
DWIDTH 10 0
BBX 10 10 0 -2
BITMAP
0600
1800
6000
1800
0600
0000
7E00
0000
7E00
0000
ENDCHAR

STARTCHAR C2166
ENCODING 8550
SWIDTH 1000 0
DWIDTH 10 0
BBX 10 10 0 -2
BITMAP
3000
0C00
0300
0C00
3000
0000
3F00
0000
3F00
0000
ENDCHAR

STARTCHAR C2167
ENCODING 8551
SWIDTH 1000 0
DWIDTH 10 0
BBX 10 10 0 -2
BITMAP
0000
0000
6300
9480
8880
9480
6300
0000
0000
0000
ENDCHAR

STARTCHAR C2168
ENCODING 8552
SWIDTH 1000 0
DWIDTH 10 0
BBX 10 10 0 -2
BITMAP
0000
1800
1800
0000
0000
6600
6600
0000
0000
0000
ENDCHAR

STARTCHAR C2169
ENCODING 8553
SWIDTH 1000 0
DWIDTH 10 0
BBX 10 10 0 -2
BITMAP
0000
0F00
0300
0500
3900
4800
4800
3000
0000
0000
ENDCHAR

STARTCHAR C216a
ENCODING 8554
SWIDTH 1000 0
DWIDTH 10 0
BBX 10 10 0 -2
BITMAP
1C00
2200
2200
1C00
0800
7F00
0800
0800
0800
0000
ENDCHAR

STARTCHAR C216b
ENCODING 8555
SWIDTH 1000 0
DWIDTH 10 0
BBX 10 10 0 -2
BITMAP
0000
2000
5000
2000
0000
0000
0000
0000
0000
0000
ENDCHAR

STARTCHAR C216c
ENCODING 8556
SWIDTH 1000 0
DWIDTH 10 0
BBX 10 10 0 -2
BITMAP
0000
2000
4000
0000
0000
0000
0000
0000
0000
0000
ENDCHAR

STARTCHAR C216d
ENCODING 8557
SWIDTH 1000 0
DWIDTH 10 0
BBX 10 10 0 -2
BITMAP
0000
2800
5000
0000
0000
0000
0000
0000
0000
0000
ENDCHAR

STARTCHAR C216e
ENCODING 8558
SWIDTH 1000 0
DWIDTH 10 0
BBX 10 10 0 -2
BITMAP
0000
CE00
D100
1000
1000
1000
1100
0E00
0000
0000
ENDCHAR

STARTCHAR C216f
ENCODING 8559
SWIDTH 1000 0
DWIDTH 10 0
BBX 10 10 0 -2
BITMAP
0000
4100
2200
7F00
1400
7F00
0800
0800
0000
0000
ENDCHAR

STARTCHAR C2170
ENCODING 8560
SWIDTH 1000 0
DWIDTH 10 0
BBX 10 10 0 -2
BITMAP
0800
3E00
4900
4800
3E00
0900
4900
3E00
0800
0000
ENDCHAR

STARTCHAR C2171
ENCODING 8561
SWIDTH 1000 0
DWIDTH 10 0
BBX 10 10 0 -2
BITMAP
0000
0200
0200
1C00
2600
2800
2A00
1C00
1000
0000
ENDCHAR

STARTCHAR C2172
ENCODING 8562
SWIDTH 1000 0
DWIDTH 10 0
BBX 10 10 0 -2
BITMAP
0000
1E00
2100
2000
7C00
1000
3100
7E00
0000
0000
ENDCHAR

STARTCHAR C2173
ENCODING 8563
SWIDTH 1000 0
DWIDTH 10 0
BBX 10 10 0 -2
BITMAP
0080
6100
9200
9400
6B00
1480
2480
4300
8000
0000
ENDCHAR

STARTCHAR C2174
ENCODING 8564
SWIDTH 1000 0
DWIDTH 10 0
BBX 10 10 0 -2
BITMAP
1200
1200
7F00
2400
2400
2400
FE00
4800
4800
0000
ENDCHAR

STARTCHAR C2175
ENCODING 8565
SWIDTH 1000 0
DWIDTH 10 0
BBX 10 10 0 -2
BITMAP
0000
1800
2400
1800
2900
4600
4600
3900
0000
0000
ENDCHAR

STARTCHAR C2176
ENCODING 8566
SWIDTH 1000 0
DWIDTH 10 0
BBX 10 10 0 -2
BITMAP
0000
0800
4900
2A00
1C00
2A00
4900
0800
0000
0000
ENDCHAR

STARTCHAR C2177
ENCODING 8567
SWIDTH 1000 0
DWIDTH 10 0
BBX 10 10 0 -2
BITMAP
0000
1C00
2200
4D00
5500
5D00
2200
1800
0000
0000
ENDCHAR

STARTCHAR C2178
ENCODING 8568
SWIDTH 1000 0
DWIDTH 10 0
BBX 10 10 0 -2
BITMAP
1800
2400
1000
1800
2400
1800
0800
2400
1800
0000
ENDCHAR

STARTCHAR C2179
ENCODING 8569
SWIDTH 1000 0
DWIDTH 10 0
BBX 10 10 0 -2
BITMAP
0800
0800
1400
F780
4100
2200
2A00
5500
6300
0000
ENDCHAR

STARTCHAR C217a
ENCODING 8570
SWIDTH 1000 0
DWIDTH 10 0
BBX 10 10 0 -2
BITMAP
0800
0800
1C00
FF80
7F00
3E00
3E00
7700
6300
0000
ENDCHAR

STARTCHAR C217b
ENCODING 8571
SWIDTH 1000 0
DWIDTH 10 0
BBX 10 10 0 -2
BITMAP
0000
1C00
2200
4100
4100
4100
2200
1C00
0000
0000
ENDCHAR

STARTCHAR C217c
ENCODING 8572
SWIDTH 1000 0
DWIDTH 10 0
BBX 10 10 0 -2
BITMAP
0000
1C00
3E00
7F00
7F00
7F00
3E00
1C00
0000
0000
ENDCHAR

STARTCHAR C217d
ENCODING 8573
SWIDTH 1000 0
DWIDTH 10 0
BBX 10 10 0 -2
BITMAP
0000
1C00
2200
4900
5500
4900
2200
1C00
0000
0000
ENDCHAR

STARTCHAR C217e
ENCODING 8574
SWIDTH 1000 0
DWIDTH 10 0
BBX 10 10 0 -2
BITMAP
0800
1400
2200
4100
8080
4100
2200
1400
0800
0000
ENDCHAR

STARTCHAR C2221
ENCODING 8737
SWIDTH 1000 0
DWIDTH 10 0
BBX 10 10 0 -2
BITMAP
0800
1C00
3E00
7F00
FF80
7F00
3E00
1C00
0800
0000
ENDCHAR

STARTCHAR C2222
ENCODING 8738
SWIDTH 1000 0
DWIDTH 10 0
BBX 10 10 0 -2
BITMAP
0000
7F00
4100
4100
4100
4100
4100
7F00
0000
0000
ENDCHAR

STARTCHAR C2223
ENCODING 8739
SWIDTH 1000 0
DWIDTH 10 0
BBX 10 10 0 -2
BITMAP
0000
7F00
7F00
7F00
7F00
7F00
7F00
7F00
0000
0000
ENDCHAR

STARTCHAR C2224
ENCODING 8740
SWIDTH 1000 0
DWIDTH 10 0
BBX 10 10 0 -2
BITMAP
0000
0800
0800
1400
2200
2200
4100
FF80
0000
0000
ENDCHAR

STARTCHAR C2225
ENCODING 8741
SWIDTH 1000 0
DWIDTH 10 0
BBX 10 10 0 -2
BITMAP
0000
0800
0800
1C00
3E00
3E00
7F00
FF80
0000
0000
ENDCHAR

STARTCHAR C2226
ENCODING 8742
SWIDTH 1000 0
DWIDTH 10 0
BBX 10 10 0 -2
BITMAP
0000
FF80
4100
2200
2200
1400
0800
0800
0000
0000
ENDCHAR

STARTCHAR C2227
ENCODING 8743
SWIDTH 1000 0
DWIDTH 10 0
BBX 10 10 0 -2
BITMAP
0000
FF80
7F00
3E00
3E00
1C00
0800
0800
0000
0000
ENDCHAR

STARTCHAR C2228
ENCODING 8744
SWIDTH 1000 0
DWIDTH 10 0
BBX 10 10 0 -2
BITMAP
0000
4900
2200
1400
4900
1400
2200
4900
0000
0000
ENDCHAR

STARTCHAR C2229
ENCODING 8745
SWIDTH 1000 0
DWIDTH 10 0
BBX 10 10 0 -2
BITMAP
0000
7F00
0000
7F00
0800
0800
0800
0800
0000
0000
ENDCHAR

STARTCHAR C222a
ENCODING 8746
SWIDTH 1000 0
DWIDTH 10 0
BBX 10 10 0 -2
BITMAP
0000
0000
0200
0100
FF80
0100
0200
0000
0000
0000
ENDCHAR

STARTCHAR C222b
ENCODING 8747
SWIDTH 1000 0
DWIDTH 10 0
BBX 10 10 0 -2
BITMAP
0000
0000
2000
4000
FF80
4000
2000
0000
0000
0000
ENDCHAR

STARTCHAR C222c
ENCODING 8748
SWIDTH 1000 0
DWIDTH 10 0
BBX 10 10 0 -2
BITMAP
0800
1C00
2A00
0800
0800
0800
0800
0800
0800
0000
ENDCHAR

STARTCHAR C222d
ENCODING 8749
SWIDTH 1000 0
DWIDTH 10 0
BBX 10 10 0 -2
BITMAP
0800
0800
0800
0800
0800
0800
2A00
1C00
0800
0000
ENDCHAR

STARTCHAR C222e
ENCODING 8750
SWIDTH 1000 0
DWIDTH 10 0
BBX 10 10 0 -2
BITMAP
0000
0000
7F00
7F00
0000
7F00
7F00
0000
0000
0000
ENDCHAR

STARTCHAR C222f
ENCODING 8751
SWIDTH 1000 0
DWIDTH 10 0
BBX 10 10 0 -2
BITMAP
0000
0000
0000
0000
0000
0000
0000
0000
0000
0000
ENDCHAR

STARTCHAR C2230
ENCODING 8752
SWIDTH 1000 0
DWIDTH 10 0
BBX 10 10 0 -2
BITMAP
0000
0000
0000
0000
0000
0000
0000
0000
0000
0000
ENDCHAR

STARTCHAR C2231
ENCODING 8753
SWIDTH 1000 0
DWIDTH 10 0
BBX 10 10 0 -2
BITMAP
0000
0000
0000
0000
0000
0000
0000
0000
0000
0000
ENDCHAR

STARTCHAR C2232
ENCODING 8754
SWIDTH 1000 0
DWIDTH 10 0
BBX 10 10 0 -2
BITMAP
0000
0000
0000
0000
0000
0000
0000
0000
0000
0000
ENDCHAR

STARTCHAR C2233
ENCODING 8755
SWIDTH 1000 0
DWIDTH 10 0
BBX 10 10 0 -2
BITMAP
0000
0000
0000
0000
0000
0000
0000
0000
0000
0000
ENDCHAR

STARTCHAR C2234
ENCODING 8756
SWIDTH 1000 0
DWIDTH 10 0
BBX 10 10 0 -2
BITMAP
0000
0000
0000
0000
0000
0000
0000
0000
0000
0000
ENDCHAR

STARTCHAR C2235
ENCODING 8757
SWIDTH 1000 0
DWIDTH 10 0
BBX 10 10 0 -2
BITMAP
0000
0000
0000
0000
0000
0000
0000
0000
0000
0000
ENDCHAR

STARTCHAR C2236
ENCODING 8758
SWIDTH 1000 0
DWIDTH 10 0
BBX 10 10 0 -2
BITMAP
0000
0000
0000
0000
0000
0000
0000
0000
0000
0000
ENDCHAR

STARTCHAR C2237
ENCODING 8759
SWIDTH 1000 0
DWIDTH 10 0
BBX 10 10 0 -2
BITMAP
0000
0000
0000
0000
0000
0000
0000
0000
0000
0000
ENDCHAR

STARTCHAR C2238
ENCODING 8760
SWIDTH 1000 0
DWIDTH 10 0
BBX 10 10 0 -2
BITMAP
0000
0000
0000
0000
0000
0000
0000
0000
0000
0000
ENDCHAR

STARTCHAR C2239
ENCODING 8761
SWIDTH 1000 0
DWIDTH 10 0
BBX 10 10 0 -2
BITMAP
0000
0000
0000
0000
0000
0000
0000
0000
0000
0000
ENDCHAR

STARTCHAR C223a
ENCODING 8762
SWIDTH 1000 0
DWIDTH 10 0
BBX 10 10 0 -2
BITMAP
0000
0000
1E00
2000
3E00
2000
1E00
0000
0000
0000
ENDCHAR

STARTCHAR C223b
ENCODING 8763
SWIDTH 1000 0
DWIDTH 10 0
BBX 10 10 0 -2
BITMAP
0000
0000
3C00
0200
3E00
0200
3C00
0000
0000
0000
ENDCHAR

STARTCHAR C223c
ENCODING 8764
SWIDTH 1000 0
DWIDTH 10 0
BBX 10 10 0 -2
BITMAP
0000
1E00
2000
2000
1E00
0000
3E00
0000
0000
0000
ENDCHAR

STARTCHAR C223d
ENCODING 8765
SWIDTH 1000 0
DWIDTH 10 0
BBX 10 10 0 -2
BITMAP
0000
3C00
0200
0200
3C00
0000
3E00
0000
0000
0000
ENDCHAR

STARTCHAR C223e
ENCODING 8766
SWIDTH 1000 0
DWIDTH 10 0
BBX 10 10 0 -2
BITMAP
0000
0000
1E00
2000
2000
2000
1E00
0000
0000
0000
ENDCHAR

STARTCHAR C223f
ENCODING 8767
SWIDTH 1000 0
DWIDTH 10 0
BBX 10 10 0 -2
BITMAP
0000
0000
3C00
0200
0200
0200
3C00
0000
0000
0000
ENDCHAR

STARTCHAR C2240
ENCODING 8768
SWIDTH 1000 0
DWIDTH 10 0
BBX 10 10 0 -2
BITMAP
0000
0000
2200
2200
2200
2200
1C00
0000
0000
0000
ENDCHAR

STARTCHAR C2241
ENCODING 8769
SWIDTH 1000 0
DWIDTH 10 0
BBX 10 10 0 -2
BITMAP
0000
0000
1C00
2200
2200
2200
2200
0000
0000
0000
ENDCHAR

STARTCHAR C2242
ENCODING 8770
SWIDTH 1000 0
DWIDTH 10 0
BBX 10 10 0 -2
BITMAP
0000
0000
0000
0000
0000
0000
0000
0000
0000
0000
ENDCHAR

STARTCHAR C2243
ENCODING 8771
SWIDTH 1000 0
DWIDTH 10 0
BBX 10 10 0 -2
BITMAP
0000
0000
0000
0000
0000
0000
0000
0000
0000
0000
ENDCHAR

STARTCHAR C2244
ENCODING 8772
SWIDTH 1000 0
DWIDTH 10 0
BBX 10 10 0 -2
BITMAP
0000
0000
0000
0000
0000
0000
0000
0000
0000
0000
ENDCHAR

STARTCHAR C2245
ENCODING 8773
SWIDTH 1000 0
DWIDTH 10 0
BBX 10 10 0 -2
BITMAP
0000
0000
0000
0000
0000
0000
0000
0000
0000
0000
ENDCHAR

STARTCHAR C2246
ENCODING 8774
SWIDTH 1000 0
DWIDTH 10 0
BBX 10 10 0 -2
BITMAP
0000
0000
0000
0000
0000
0000
0000
0000
0000
0000
ENDCHAR

STARTCHAR C2247
ENCODING 8775
SWIDTH 1000 0
DWIDTH 10 0
BBX 10 10 0 -2
BITMAP
0000
0000
0000
0000
0000
0000
0000
0000
0000
0000
ENDCHAR

STARTCHAR C2248
ENCODING 8776
SWIDTH 1000 0
DWIDTH 10 0
BBX 10 10 0 -2
BITMAP
0000
0000
0000
0000
0000
0000
0000
0000
0000
0000
ENDCHAR

STARTCHAR C2249
ENCODING 8777
SWIDTH 1000 0
DWIDTH 10 0
BBX 10 10 0 -2
BITMAP
0000
0000
0000
0000
0000
0000
0000
0000
0000
0000
ENDCHAR

STARTCHAR C224a
ENCODING 8778
SWIDTH 1000 0
DWIDTH 10 0
BBX 10 10 0 -2
BITMAP
0000
0800
0800
1400
2200
2200
4100
4100
0000
0000
ENDCHAR

STARTCHAR C224b
ENCODING 8779
SWIDTH 1000 0
DWIDTH 10 0
BBX 10 10 0 -2
BITMAP
0000
4100
4100
2200
2200
1400
1400
0800
0000
0000
ENDCHAR

STARTCHAR C224c
ENCODING 8780
SWIDTH 1000 0
DWIDTH 10 0
BBX 10 10 0 -2
BITMAP
0000
0000
0000
0000
3E00
0200
0200
0000
0000
0000
ENDCHAR

STARTCHAR C224d
ENCODING 8781
SWIDTH 1000 0
DWIDTH 10 0
BBX 10 10 0 -2
BITMAP
0000
0400
0200
FF00
0080
FF00
0200
0400
0000
0000
ENDCHAR

STARTCHAR C224e
ENCODING 8782
SWIDTH 1000 0
DWIDTH 10 0
BBX 10 10 0 -2
BITMAP
0000
1400
2200
7F00
8080
7F00
2200
1400
0000
0000
ENDCHAR

STARTCHAR C224f
ENCODING 8783
SWIDTH 1000 0
DWIDTH 10 0
BBX 10 10 0 -2
BITMAP
0000
4100
4100
3E00
2200
1400
1400
0800
0000
0000
ENDCHAR

STARTCHAR C2250
ENCODING 8784
SWIDTH 1000 0
DWIDTH 10 0
BBX 10 10 0 -2
BITMAP
0000
3E00
0200
0200
3E00
0200
0200
3E00
0000
0000
ENDCHAR

STARTCHAR C2251
ENCODING 8785
SWIDTH 1000 0
DWIDTH 10 0
BBX 10 10 0 -2
BITMAP
0000
0000
0000
0000
0000
0000
0000
0000
0000
0000
ENDCHAR

STARTCHAR C2252
ENCODING 8786
SWIDTH 1000 0
DWIDTH 10 0
BBX 10 10 0 -2
BITMAP
0000
0000
0000
0000
0000
0000
0000
0000
0000
0000
ENDCHAR

STARTCHAR C2253
ENCODING 8787
SWIDTH 1000 0
DWIDTH 10 0
BBX 10 10 0 -2
BITMAP
0000
0000
0000
0000
0000
0000
0000
0000
0000
0000
ENDCHAR

STARTCHAR C2254
ENCODING 8788
SWIDTH 1000 0
DWIDTH 10 0
BBX 10 10 0 -2
BITMAP
0000
0000
0000
0000
0000
0000
0000
0000
0000
0000
ENDCHAR

STARTCHAR C2255
ENCODING 8789
SWIDTH 1000 0
DWIDTH 10 0
BBX 10 10 0 -2
BITMAP
0000
0000
0000
0000
0000
0000
0000
0000
0000
0000
ENDCHAR

STARTCHAR C2256
ENCODING 8790
SWIDTH 1000 0
DWIDTH 10 0
BBX 10 10 0 -2
BITMAP
0000
0000
0000
0000
0000
0000
0000
0000
0000
0000
ENDCHAR

STARTCHAR C2257
ENCODING 8791
SWIDTH 1000 0
DWIDTH 10 0
BBX 10 10 0 -2
BITMAP
0000
0000
0000
0000
0000
0000
0000
0000
0000
0000
ENDCHAR

STARTCHAR C2258
ENCODING 8792
SWIDTH 1000 0
DWIDTH 10 0
BBX 10 10 0 -2
BITMAP
0000
0000
0000
0000
0000
0000
0000
0000
0000
0000
ENDCHAR

STARTCHAR C2259
ENCODING 8793
SWIDTH 1000 0
DWIDTH 10 0
BBX 10 10 0 -2
BITMAP
0000
0000
0000
0000
0000
0000
0000
0000
0000
0000
ENDCHAR

STARTCHAR C225a
ENCODING 8794
SWIDTH 1000 0
DWIDTH 10 0
BBX 10 10 0 -2
BITMAP
0000
0000
0000
0000
0000
0000
0000
0000
0000
0000
ENDCHAR

STARTCHAR C225b
ENCODING 8795
SWIDTH 1000 0
DWIDTH 10 0
BBX 10 10 0 -2
BITMAP
0000
0000
0000
0000
0000
0000
0000
0000
0000
0000
ENDCHAR

STARTCHAR C225c
ENCODING 8796
SWIDTH 1000 0
DWIDTH 10 0
BBX 10 10 0 -2
BITMAP
0000
0200
0400
0800
1000
2000
7E00
0000
0000
0000
ENDCHAR

STARTCHAR C225d
ENCODING 8797
SWIDTH 1000 0
DWIDTH 10 0
BBX 10 10 0 -2
BITMAP
0000
0000
0800
0800
0800
0800
3E00
0000
0000
0000
ENDCHAR

STARTCHAR C225e
ENCODING 8798
SWIDTH 1000 0
DWIDTH 10 0
BBX 10 10 0 -2
BITMAP
1C00
6300
8080
0000
0000
0000
0000
0000
0000
0000
ENDCHAR

STARTCHAR C225f
ENCODING 8799
SWIDTH 1000 0
DWIDTH 10 0
BBX 10 10 0 -2
BITMAP
0000
0C00
1200
0200
1A00
2400
2400
1800
0000
0000
ENDCHAR

STARTCHAR C2260
ENCODING 8800
SWIDTH 1000 0
DWIDTH 10 0
BBX 10 10 0 -2
BITMAP
0000
7F00
6100
2200
3200
1400
1C00
0800
0000
0000
ENDCHAR

STARTCHAR C2261
ENCODING 8801
SWIDTH 1000 0
DWIDTH 10 0
BBX 10 10 0 -2
BITMAP
0000
0000
3E00
0000
3E00
0000
3E00
0000
0000
0000
ENDCHAR

STARTCHAR C2262
ENCODING 8802
SWIDTH 1000 0
DWIDTH 10 0
BBX 10 10 0 -2
BITMAP
3000
3000
0000
3E00
0000
3E00
0000
0600
0600
0000
ENDCHAR

STARTCHAR C2263
ENCODING 8803
SWIDTH 1000 0
DWIDTH 10 0
BBX 10 10 0 -2
BITMAP
0000
0900
1200
2400
4800
2400
1200
0900
0000
0000
ENDCHAR

STARTCHAR C2264
ENCODING 8804
SWIDTH 1000 0
DWIDTH 10 0
BBX 10 10 0 -2
BITMAP
0000
4800
2400
1200
0900
1200
2400
4800
0000
0000
ENDCHAR

STARTCHAR C2265
ENCODING 8805
SWIDTH 1000 0
DWIDTH 10 0
BBX 10 10 0 -2
BITMAP
0780
0400
0400
0800
0800
5000
D000
2000
2000
0000
ENDCHAR

STARTCHAR C2266
ENCODING 8806
SWIDTH 1000 0
DWIDTH 10 0
BBX 10 10 0 -2
BITMAP
0000
0000
6300
8480
8880
9080
6300
0000
0000
0000
ENDCHAR

STARTCHAR C2267
ENCODING 8807
SWIDTH 1000 0
DWIDTH 10 0
BBX 10 10 0 -2
BITMAP
0000
0000
6300
9400
8800
9400
6300
0000
0000
0000
ENDCHAR

STARTCHAR C2268
ENCODING 8808
SWIDTH 1000 0
DWIDTH 10 0
BBX 10 10 0 -2
BITMAP
0000
6600
6600
0000
0000
1800
1800
0000
0000
0000
ENDCHAR

STARTCHAR C2269
ENCODING 8809
SWIDTH 1000 0
DWIDTH 10 0
BBX 10 10 0 -2
BITMAP
1C00
1400
1000
0800
0800
0800
0400
1400
1C00
0000
ENDCHAR

STARTCHAR C226a
ENCODING 8810
SWIDTH 1000 0
DWIDTH 10 0
BBX 10 10 0 -2
BITMAP
7700
5500
4400
2200
2200
2200
1100
5500
7700
0000
ENDCHAR

STARTCHAR C226b
ENCODING 8811
SWIDTH 1000 0
DWIDTH 10 0
BBX 10 10 0 -2
BITMAP
0000
0000
0000
0000
0000
0000
0000
0000
0000
0000
ENDCHAR

STARTCHAR C226c
ENCODING 8812
SWIDTH 1000 0
DWIDTH 10 0
BBX 10 10 0 -2
BITMAP
0000
0000
0000
0000
0000
0000
0000
0000
0000
0000
ENDCHAR

STARTCHAR C226d
ENCODING 8813
SWIDTH 1000 0
DWIDTH 10 0
BBX 10 10 0 -2
BITMAP
0000
0000
0000
0000
0000
0000
0000
0000
0000
0000
ENDCHAR

STARTCHAR C226e
ENCODING 8814
SWIDTH 1000 0
DWIDTH 10 0
BBX 10 10 0 -2
BITMAP
0000
0000
0000
0000
0000
0000
0000
0000
0000
0000
ENDCHAR

STARTCHAR C226f
ENCODING 8815
SWIDTH 1000 0
DWIDTH 10 0
BBX 10 10 0 -2
BITMAP
0000
0000
0000
0000
0000
0000
0000
0000
0000
0000
ENDCHAR

STARTCHAR C2270
ENCODING 8816
SWIDTH 1000 0
DWIDTH 10 0
BBX 10 10 0 -2
BITMAP
0000
0000
0000
0000
0000
0000
0000
0000
0000
0000
ENDCHAR

STARTCHAR C2271
ENCODING 8817
SWIDTH 1000 0
DWIDTH 10 0
BBX 10 10 0 -2
BITMAP
0000
0000
0000
0000
0000
0000
0000
0000
0000
0000
ENDCHAR

STARTCHAR C2272
ENCODING 8818
SWIDTH 1000 0
DWIDTH 10 0
BBX 10 10 0 -2
BITMAP
1C00
1C00
0800
1400
2200
3E00
4100
E380
0000
0000
ENDCHAR

STARTCHAR C2273
ENCODING 8819
SWIDTH 1000 0
DWIDTH 10 0
BBX 10 10 0 -2
BITMAP
0200
4400
A400
A800
5000
1500
2A80
2A80
4500
0000
ENDCHAR

STARTCHAR C2274
ENCODING 8820
SWIDTH 1000 0
DWIDTH 10 0
BBX 10 10 0 -2
BITMAP
2400
2700
3C00
E400
2400
2700
3C00
E400
2400
0000
ENDCHAR

STARTCHAR C2275
ENCODING 8821
SWIDTH 1000 0
DWIDTH 10 0
BBX 10 10 0 -2
BITMAP
1000
1000
1000
1000
1C00
1200
1200
1400
1800
0000
ENDCHAR

STARTCHAR C2276
ENCODING 8822
SWIDTH 1000 0
DWIDTH 10 0
BBX 10 10 0 -2
BITMAP
0800
0C00
0A00
0900
0900
0A00
1800
3800
3000
0000
ENDCHAR

STARTCHAR C2277
ENCODING 8823
SWIDTH 1000 0
DWIDTH 10 0
BBX 10 10 0 -2
BITMAP
0800
0800
3E00
0800
1C00
1C00
0800
0800
0800
0000
ENDCHAR

STARTCHAR C2278
ENCODING 8824
SWIDTH 1000 0
DWIDTH 10 0
BBX 10 10 0 -2
BITMAP
0800
0800
3E00
0800
1C00
0800
3E00
0800
0800
0000
ENDCHAR

STARTCHAR C2279
ENCODING 8825
SWIDTH 1000 0
DWIDTH 10 0
BBX 10 10 0 -2
BITMAP
1E00
3A00
3A00
3A00
1A00
0A00
0A00
0A00
0A00
0000
ENDCHAR

STARTCHAR C227a
ENCODING 8826
SWIDTH 1000 0
DWIDTH 10 0
BBX 10 10 0 -2
BITMAP
0000
0000
0000
0000
0000
0000
0000
0000
0000
0000
ENDCHAR

STARTCHAR C227b
ENCODING 8827
SWIDTH 1000 0
DWIDTH 10 0
BBX 10 10 0 -2
BITMAP
0000
0000
0000
0000
0000
0000
0000
0000
0000
0000
ENDCHAR

STARTCHAR C227c
ENCODING 8828
SWIDTH 1000 0
DWIDTH 10 0
BBX 10 10 0 -2
BITMAP
0000
0000
0000
0000
0000
0000
0000
0000
0000
0000
ENDCHAR

STARTCHAR C227d
ENCODING 8829
SWIDTH 1000 0
DWIDTH 10 0
BBX 10 10 0 -2
BITMAP
0000
0000
0000
0000
0000
0000
0000
0000
0000
0000
ENDCHAR

STARTCHAR C227e
ENCODING 8830
SWIDTH 1000 0
DWIDTH 10 0
BBX 10 10 0 -2
BITMAP
1C00
6300
4100
8080
8080
8080
4100
6300
1C00
0000
ENDCHAR

STARTCHAR C2321
ENCODING 8993
SWIDTH 1000 0
DWIDTH 10 0
BBX 10 10 0 -2
BITMAP
0000
0000
0000
0000
0000
0000
0000
0000
0000
0000
ENDCHAR

STARTCHAR C2322
ENCODING 8994
SWIDTH 1000 0
DWIDTH 10 0
BBX 10 10 0 -2
BITMAP
0000
0000
0000
0000
0000
0000
0000
0000
0000
0000
ENDCHAR

STARTCHAR C2323
ENCODING 8995
SWIDTH 1000 0
DWIDTH 10 0
BBX 10 10 0 -2
BITMAP
0000
0000
0000
0000
0000
0000
0000
0000
0000
0000
ENDCHAR

STARTCHAR C2324
ENCODING 8996
SWIDTH 1000 0
DWIDTH 10 0
BBX 10 10 0 -2
BITMAP
0000
0000
0000
0000
0000
0000
0000
0000
0000
0000
ENDCHAR

STARTCHAR C2325
ENCODING 8997
SWIDTH 1000 0
DWIDTH 10 0
BBX 10 10 0 -2
BITMAP
0000
0000
0000
0000
0000
0000
0000
0000
0000
0000
ENDCHAR

STARTCHAR C2326
ENCODING 8998
SWIDTH 1000 0
DWIDTH 10 0
BBX 10 10 0 -2
BITMAP
0000
0000
0000
0000
0000
0000
0000
0000
0000
0000
ENDCHAR

STARTCHAR C2327
ENCODING 8999
SWIDTH 1000 0
DWIDTH 10 0
BBX 10 10 0 -2
BITMAP
0000
0000
0000
0000
0000
0000
0000
0000
0000
0000
ENDCHAR

STARTCHAR C2328
ENCODING 9000
SWIDTH 1000 0
DWIDTH 10 0
BBX 10 10 0 -2
BITMAP
0000
0000
0000
0000
0000
0000
0000
0000
0000
0000
ENDCHAR

STARTCHAR C2329
ENCODING 9001
SWIDTH 1000 0
DWIDTH 10 0
BBX 10 10 0 -2
BITMAP
0000
0000
0000
0000
0000
0000
0000
0000
0000
0000
ENDCHAR

STARTCHAR C232a
ENCODING 9002
SWIDTH 1000 0
DWIDTH 10 0
BBX 10 10 0 -2
BITMAP
0000
0000
0000
0000
0000
0000
0000
0000
0000
0000
ENDCHAR

STARTCHAR C232b
ENCODING 9003
SWIDTH 1000 0
DWIDTH 10 0
BBX 10 10 0 -2
BITMAP
0000
0000
0000
0000
0000
0000
0000
0000
0000
0000
ENDCHAR

STARTCHAR C232c
ENCODING 9004
SWIDTH 1000 0
DWIDTH 10 0
BBX 10 10 0 -2
BITMAP
0000
0000
0000
0000
0000
0000
0000
0000
0000
0000
ENDCHAR

STARTCHAR C232d
ENCODING 9005
SWIDTH 1000 0
DWIDTH 10 0
BBX 10 10 0 -2
BITMAP
0000
0000
0000
0000
0000
0000
0000
0000
0000
0000
ENDCHAR

STARTCHAR C232e
ENCODING 9006
SWIDTH 1000 0
DWIDTH 10 0
BBX 10 10 0 -2
BITMAP
0000
0000
0000
0000
0000
0000
0000
0000
0000
0000
ENDCHAR

STARTCHAR C232f
ENCODING 9007
SWIDTH 1000 0
DWIDTH 10 0
BBX 10 10 0 -2
BITMAP
0000
0000
0000
0000
0000
0000
0000
0000
0000
0000
ENDCHAR

STARTCHAR C2330
ENCODING 9008
SWIDTH 1000 0
DWIDTH 10 0
BBX 10 10 0 -2
BITMAP
0000
1C00
2200
2200
2200
2200
2200
1C00
0000
0000
ENDCHAR

STARTCHAR C2331
ENCODING 9009
SWIDTH 1000 0
DWIDTH 10 0
BBX 10 10 0 -2
BITMAP
0000
0800
1800
0800
0800
0800
0800
0800
0000
0000
ENDCHAR

STARTCHAR C2332
ENCODING 9010
SWIDTH 1000 0
DWIDTH 10 0
BBX 10 10 0 -2
BITMAP
0000
1C00
2200
0200
0400
0800
1000
3E00
0000
0000
ENDCHAR

STARTCHAR C2333
ENCODING 9011
SWIDTH 1000 0
DWIDTH 10 0
BBX 10 10 0 -2
BITMAP
0000
1C00
2200
0200
1C00
0200
2200
1C00
0000
0000
ENDCHAR

STARTCHAR C2334
ENCODING 9012
SWIDTH 1000 0
DWIDTH 10 0
BBX 10 10 0 -2
BITMAP
0000
0400
0C00
1400
1400
2400
3E00
0400
0000
0000
ENDCHAR

STARTCHAR C2335
ENCODING 9013
SWIDTH 1000 0
DWIDTH 10 0
BBX 10 10 0 -2
BITMAP
0000
3E00
2000
3C00
2200
0200
2200
1C00
0000
0000
ENDCHAR

STARTCHAR C2336
ENCODING 9014
SWIDTH 1000 0
DWIDTH 10 0
BBX 10 10 0 -2
BITMAP
0000
1C00
2200
2000
3C00
2200
2200
1C00
0000
0000
ENDCHAR

STARTCHAR C2337
ENCODING 9015
SWIDTH 1000 0
DWIDTH 10 0
BBX 10 10 0 -2
BITMAP
0000
3E00
2200
0400
0400
0800
0800
0800
0000
0000
ENDCHAR

STARTCHAR C2338
ENCODING 9016
SWIDTH 1000 0
DWIDTH 10 0
BBX 10 10 0 -2
BITMAP
0000
1C00
2200
2200
1C00
2200
2200
1C00
0000
0000
ENDCHAR

STARTCHAR C2339
ENCODING 9017
SWIDTH 1000 0
DWIDTH 10 0
BBX 10 10 0 -2
BITMAP
0000
1C00
2200
2200
1E00
0200
2200
1C00
0000
0000
ENDCHAR

STARTCHAR C233a
ENCODING 9018
SWIDTH 1000 0
DWIDTH 10 0
BBX 10 10 0 -2
BITMAP
0000
0000
0000
0000
0000
0000
0000
0000
0000
0000
ENDCHAR

STARTCHAR C233b
ENCODING 9019
SWIDTH 1000 0
DWIDTH 10 0
BBX 10 10 0 -2
BITMAP
0000
0000
0000
0000
0000
0000
0000
0000
0000
0000
ENDCHAR

STARTCHAR C233c
ENCODING 9020
SWIDTH 1000 0
DWIDTH 10 0
BBX 10 10 0 -2
BITMAP
0000
0000
0000
0000
0000
0000
0000
0000
0000
0000
ENDCHAR

STARTCHAR C233d
ENCODING 9021
SWIDTH 1000 0
DWIDTH 10 0
BBX 10 10 0 -2
BITMAP
0000
0000
0000
0000
0000
0000
0000
0000
0000
0000
ENDCHAR

STARTCHAR C233e
ENCODING 9022
SWIDTH 1000 0
DWIDTH 10 0
BBX 10 10 0 -2
BITMAP
0000
0000
0000
0000
0000
0000
0000
0000
0000
0000
ENDCHAR

STARTCHAR C233f
ENCODING 9023
SWIDTH 1000 0
DWIDTH 10 0
BBX 10 10 0 -2
BITMAP
0000
0000
0000
0000
0000
0000
0000
0000
0000
0000
ENDCHAR

STARTCHAR C2340
ENCODING 9024
SWIDTH 1000 0
DWIDTH 10 0
BBX 10 10 0 -2
BITMAP
0000
0000
0000
0000
0000
0000
0000
0000
0000
0000
ENDCHAR

STARTCHAR C2341
ENCODING 9025
SWIDTH 1000 0
DWIDTH 10 0
BBX 10 10 0 -2
BITMAP
0000
1000
2800
2800
4400
7C00
8200
8200
0000
0000
ENDCHAR

STARTCHAR C2342
ENCODING 9026
SWIDTH 1000 0
DWIDTH 10 0
BBX 10 10 0 -2
BITMAP
0000
3C00
2200
2200
3C00
2200
2200
3C00
0000
0000
ENDCHAR

STARTCHAR C2343
ENCODING 9027
SWIDTH 1000 0
DWIDTH 10 0
BBX 10 10 0 -2
BITMAP
0000
1C00
2200
2000
2000
2000
2200
1C00
0000
0000
ENDCHAR

STARTCHAR C2344
ENCODING 9028
SWIDTH 1000 0
DWIDTH 10 0
BBX 10 10 0 -2
BITMAP
0000
3800
2400
2200
2200
2200
2400
3800
0000
0000
ENDCHAR

STARTCHAR C2345
ENCODING 9029
SWIDTH 1000 0
DWIDTH 10 0
BBX 10 10 0 -2
BITMAP
0000
3E00
2000
2000
3C00
2000
2000
3E00
0000
0000
ENDCHAR

STARTCHAR C2346
ENCODING 9030
SWIDTH 1000 0
DWIDTH 10 0
BBX 10 10 0 -2
BITMAP
0000
3E00
2000
2000
3C00
2000
2000
2000
0000
0000
ENDCHAR

STARTCHAR C2347
ENCODING 9031
SWIDTH 1000 0
DWIDTH 10 0
BBX 10 10 0 -2
BITMAP
0000
1C00
2200
2000
2E00
2200
2200
1E00
0000
0000
ENDCHAR

STARTCHAR C2348
ENCODING 9032
SWIDTH 1000 0
DWIDTH 10 0
BBX 10 10 0 -2
BITMAP
0000
2200
2200
2200
3E00
2200
2200
2200
0000
0000
ENDCHAR

STARTCHAR C2349
ENCODING 9033
SWIDTH 1000 0
DWIDTH 10 0
BBX 10 10 0 -2
BITMAP
0000
0800
0800
0800
0800
0800
0800
0800
0000
0000
ENDCHAR

STARTCHAR C234a
ENCODING 9034
SWIDTH 1000 0
DWIDTH 10 0
BBX 10 10 0 -2
BITMAP
0000
0400
0400
0400
0400
0400
2400
1800
0000
0000
ENDCHAR

STARTCHAR C234b
ENCODING 9035
SWIDTH 1000 0
DWIDTH 10 0
BBX 10 10 0 -2
BITMAP
0000
2200
2400
2800
3800
2400
2400
2200
0000
0000
ENDCHAR

STARTCHAR C234c
ENCODING 9036
SWIDTH 1000 0
DWIDTH 10 0
BBX 10 10 0 -2
BITMAP
0000
2000
2000
2000
2000
2000
2000
3E00
0000
0000
ENDCHAR

STARTCHAR C234d
ENCODING 9037
SWIDTH 1000 0
DWIDTH 10 0
BBX 10 10 0 -2
BITMAP
0000
6300
6300
5500
5500
5500
4900
4900
0000
0000
ENDCHAR

STARTCHAR C234e
ENCODING 9038
SWIDTH 1000 0
DWIDTH 10 0
BBX 10 10 0 -2
BITMAP
0000
2200
3200
3200
2A00
2A00
2600
2600
0000
0000
ENDCHAR

STARTCHAR C234f
ENCODING 9039
SWIDTH 1000 0
DWIDTH 10 0
BBX 10 10 0 -2
BITMAP
0000
1800
2400
4200
4200
4200
2400
1800
0000
0000
ENDCHAR

STARTCHAR C2350
ENCODING 9040
SWIDTH 1000 0
DWIDTH 10 0
BBX 10 10 0 -2
BITMAP
0000
3C00
2200
2200
3C00
2000
2000
2000
0000
0000
ENDCHAR

STARTCHAR C2351
ENCODING 9041
SWIDTH 1000 0
DWIDTH 10 0
BBX 10 10 0 -2
BITMAP
0000
1800
2400
4200
4200
4A00
2400
1A00
0000
0000
ENDCHAR

STARTCHAR C2352
ENCODING 9042
SWIDTH 1000 0
DWIDTH 10 0
BBX 10 10 0 -2
BITMAP
0000
3C00
2200
2200
3C00
2400
2200
2200
0000
0000
ENDCHAR

STARTCHAR C2353
ENCODING 9043
SWIDTH 1000 0
DWIDTH 10 0
BBX 10 10 0 -2
BITMAP
0000
1C00
2200
2000
1C00
0200
2200
1C00
0000
0000
ENDCHAR

STARTCHAR C2354
ENCODING 9044
SWIDTH 1000 0
DWIDTH 10 0
BBX 10 10 0 -2
BITMAP
0000
3E00
0800
0800
0800
0800
0800
0800
0000
0000
ENDCHAR

STARTCHAR C2355
ENCODING 9045
SWIDTH 1000 0
DWIDTH 10 0
BBX 10 10 0 -2
BITMAP
0000
2200
2200
2200
2200
2200
2200
1C00
0000
0000
ENDCHAR

STARTCHAR C2356
ENCODING 9046
SWIDTH 1000 0
DWIDTH 10 0
BBX 10 10 0 -2
BITMAP
0000
2200
2200
2200
1400
1400
0800
0800
0000
0000
ENDCHAR

STARTCHAR C2357
ENCODING 9047
SWIDTH 1000 0
DWIDTH 10 0
BBX 10 10 0 -2
BITMAP
0000
8880
8880
5500
5500
5500
2200
2200
0000
0000
ENDCHAR

STARTCHAR C2358
ENCODING 9048
SWIDTH 1000 0
DWIDTH 10 0
BBX 10 10 0 -2
BITMAP
0000
2200
1400
1400
0800
1400
1400
2200
0000
0000
ENDCHAR

STARTCHAR C2359
ENCODING 9049
SWIDTH 1000 0
DWIDTH 10 0
BBX 10 10 0 -2
BITMAP
0000
4100
2200
1400
0800
0800
0800
0800
0000
0000
ENDCHAR

STARTCHAR C235a
ENCODING 9050
SWIDTH 1000 0
DWIDTH 10 0
BBX 10 10 0 -2
BITMAP
0000
3E00
0200
0400
0800
1000
2000
7E00
0000
0000
ENDCHAR

STARTCHAR C235b
ENCODING 9051
SWIDTH 1000 0
DWIDTH 10 0
BBX 10 10 0 -2
BITMAP
0000
0000
0000
0000
0000
0000
0000
0000
0000
0000
ENDCHAR

STARTCHAR C235c
ENCODING 9052
SWIDTH 1000 0
DWIDTH 10 0
BBX 10 10 0 -2
BITMAP
0000
0000
0000
0000
0000
0000
0000
0000
0000
0000
ENDCHAR

STARTCHAR C235d
ENCODING 9053
SWIDTH 1000 0
DWIDTH 10 0
BBX 10 10 0 -2
BITMAP
0000
0000
0000
0000
0000
0000
0000
0000
0000
0000
ENDCHAR

STARTCHAR C235e
ENCODING 9054
SWIDTH 1000 0
DWIDTH 10 0
BBX 10 10 0 -2
BITMAP
0000
0000
0000
0000
0000
0000
0000
0000
0000
0000
ENDCHAR

STARTCHAR C235f
ENCODING 9055
SWIDTH 1000 0
DWIDTH 10 0
BBX 10 10 0 -2
BITMAP
0000
0000
0000
0000
0000
0000
0000
0000
0000
0000
ENDCHAR

STARTCHAR C2360
ENCODING 9056
SWIDTH 1000 0
DWIDTH 10 0
BBX 10 10 0 -2
BITMAP
0000
0000
0000
0000
0000
0000
0000
0000
0000
0000
ENDCHAR

STARTCHAR C2361
ENCODING 9057
SWIDTH 1000 0
DWIDTH 10 0
BBX 10 10 0 -2
BITMAP
0000
0000
0000
3800
0400
3C00
4400
3C00
0000
0000
ENDCHAR

STARTCHAR C2362
ENCODING 9058
SWIDTH 1000 0
DWIDTH 10 0
BBX 10 10 0 -2
BITMAP
0000
2000
2000
3800
2400
2400
2400
3800
0000
0000
ENDCHAR

STARTCHAR C2363
ENCODING 9059
SWIDTH 1000 0
DWIDTH 10 0
BBX 10 10 0 -2
BITMAP
0000
0000
0000
1C00
2000
2000
2000
1C00
0000
0000
ENDCHAR

STARTCHAR C2364
ENCODING 9060
SWIDTH 1000 0
DWIDTH 10 0
BBX 10 10 0 -2
BITMAP
0000
0400
0400
1C00
2400
2400
2400
1C00
0000
0000
ENDCHAR

STARTCHAR C2365
ENCODING 9061
SWIDTH 1000 0
DWIDTH 10 0
BBX 10 10 0 -2
BITMAP
0000
0000
0000
1C00
2200
3E00
2000
1C00
0000
0000
ENDCHAR

STARTCHAR C2366
ENCODING 9062
SWIDTH 1000 0
DWIDTH 10 0
BBX 10 10 0 -2
BITMAP
0000
0E00
0800
3E00
0800
0800
0800
0800
0000
0000
ENDCHAR

STARTCHAR C2367
ENCODING 9063
SWIDTH 1000 0
DWIDTH 10 0
BBX 10 10 0 -2
BITMAP
0000
0000
0000
1E00
2200
2200
1E00
0200
3C00
0000
ENDCHAR

STARTCHAR C2368
ENCODING 9064
SWIDTH 1000 0
DWIDTH 10 0
BBX 10 10 0 -2
BITMAP
0000
2000
2000
3800
2400
2400
2400
2400
0000
0000
ENDCHAR

STARTCHAR C2369
ENCODING 9065
SWIDTH 1000 0
DWIDTH 10 0
BBX 10 10 0 -2
BITMAP
0000
0800
0000
0800
0800
0800
0800
0800
0000
0000
ENDCHAR

STARTCHAR C236a
ENCODING 9066
SWIDTH 1000 0
DWIDTH 10 0
BBX 10 10 0 -2
BITMAP
0000
0800
0000
0800
0800
0800
0800
0800
3000
0000
ENDCHAR

STARTCHAR C236b
ENCODING 9067
SWIDTH 1000 0
DWIDTH 10 0
BBX 10 10 0 -2
BITMAP
0000
2000
2000
2400
2800
3800
2400
2200
0000
0000
ENDCHAR

STARTCHAR C236c
ENCODING 9068
SWIDTH 1000 0
DWIDTH 10 0
BBX 10 10 0 -2
BITMAP
0000
0800
0800
0800
0800
0800
0800
0800
0000
0000
ENDCHAR

STARTCHAR C236d
ENCODING 9069
SWIDTH 1000 0
DWIDTH 10 0
BBX 10 10 0 -2
BITMAP
0000
0000
0000
3400
2A00
2A00
2A00
2A00
0000
0000
ENDCHAR

STARTCHAR C236e
ENCODING 9070
SWIDTH 1000 0
DWIDTH 10 0
BBX 10 10 0 -2
BITMAP
0000
0000
0000
3C00
2200
2200
2200
2200
0000
0000
ENDCHAR

STARTCHAR C236f
ENCODING 9071
SWIDTH 1000 0
DWIDTH 10 0
BBX 10 10 0 -2
BITMAP
0000
0000
0000
1C00
2200
2200
2200
1C00
0000
0000
ENDCHAR

STARTCHAR C2370
ENCODING 9072
SWIDTH 1000 0
DWIDTH 10 0
BBX 10 10 0 -2
BITMAP
0000
0000
0000
3800
2400
2400
3800
2000
2000
0000
ENDCHAR

STARTCHAR C2371
ENCODING 9073
SWIDTH 1000 0
DWIDTH 10 0
BBX 10 10 0 -2
BITMAP
0000
0000
0000
1C00
2400
2400
1C00
0400
0400
0000
ENDCHAR

STARTCHAR C2372
ENCODING 9074
SWIDTH 1000 0
DWIDTH 10 0
BBX 10 10 0 -2
BITMAP
0000
0000
0000
1600
1800
1000
1000
1000
0000
0000
ENDCHAR

STARTCHAR C2373
ENCODING 9075
SWIDTH 1000 0
DWIDTH 10 0
BBX 10 10 0 -2
BITMAP
0000
0000
0000
1C00
2000
1C00
0200
1C00
0000
0000
ENDCHAR

STARTCHAR C2374
ENCODING 9076
SWIDTH 1000 0
DWIDTH 10 0
BBX 10 10 0 -2
BITMAP
0000
1000
1000
3C00
1000
1000
1000
1C00
0000
0000
ENDCHAR

STARTCHAR C2375
ENCODING 9077
SWIDTH 1000 0
DWIDTH 10 0
BBX 10 10 0 -2
BITMAP
0000
0000
0000
2400
2400
2400
2400
1C00
0000
0000
ENDCHAR

STARTCHAR C2376
ENCODING 9078
SWIDTH 1000 0
DWIDTH 10 0
BBX 10 10 0 -2
BITMAP
0000
0000
0000
2200
2200
1400
1400
0800
0000
0000
ENDCHAR

STARTCHAR C2377
ENCODING 9079
SWIDTH 1000 0
DWIDTH 10 0
BBX 10 10 0 -2
BITMAP
0000
0000
0000
4900
4900
5500
2200
2200
0000
0000
ENDCHAR

STARTCHAR C2378
ENCODING 9080
SWIDTH 1000 0
DWIDTH 10 0
BBX 10 10 0 -2
BITMAP
0000
0000
0000
2200
1400
0800
1400
2200
0000
0000
ENDCHAR

STARTCHAR C2379
ENCODING 9081
SWIDTH 1000 0
DWIDTH 10 0
BBX 10 10 0 -2
BITMAP
0000
0000
0000
2200
2200
1400
0800
0800
3000
0000
ENDCHAR

STARTCHAR C237a
ENCODING 9082
SWIDTH 1000 0
DWIDTH 10 0
BBX 10 10 0 -2
BITMAP
0000
0000
0000
3E00
0400
0800
1000
3E00
0000
0000
ENDCHAR

STARTCHAR C237b
ENCODING 9083
SWIDTH 1000 0
DWIDTH 10 0
BBX 10 10 0 -2
BITMAP
0000
0000
0000
0000
0000
0000
0000
0000
0000
0000
ENDCHAR

STARTCHAR C237c
ENCODING 9084
SWIDTH 1000 0
DWIDTH 10 0
BBX 10 10 0 -2
BITMAP
0000
0000
0000
0000
0000
0000
0000
0000
0000
0000
ENDCHAR

STARTCHAR C237d
ENCODING 9085
SWIDTH 1000 0
DWIDTH 10 0
BBX 10 10 0 -2
BITMAP
0000
0000
0000
0000
0000
0000
0000
0000
0000
0000
ENDCHAR

STARTCHAR C237e
ENCODING 9086
SWIDTH 1000 0
DWIDTH 10 0
BBX 10 10 0 -2
BITMAP
0000
0000
0000
0000
0000
0000
0000
0000
0000
0000
ENDCHAR

STARTCHAR C2421
ENCODING 9249
SWIDTH 1000 0
DWIDTH 10 0
BBX 10 10 0 -2
BITMAP
0000
0000
1000
3C00
1000
3C00
5A00
7200
0C00
0000
ENDCHAR

STARTCHAR C2422
ENCODING 9250
SWIDTH 1000 0
DWIDTH 10 0
BBX 10 10 0 -2
BITMAP
1000
7E00
1000
3C00
5600
9900
A100
4200
0C00
0000
ENDCHAR

STARTCHAR C2423
ENCODING 9251
SWIDTH 1000 0
DWIDTH 10 0
BBX 10 10 0 -2
BITMAP
0000
0000
0000
0000
4400
4200
5200
2000
0000
0000
ENDCHAR

STARTCHAR C2424
ENCODING 9252
SWIDTH 1000 0
DWIDTH 10 0
BBX 10 10 0 -2
BITMAP
0000
4000
4400
8200
8200
8100
9100
6000
0000
0000
ENDCHAR

STARTCHAR C2425
ENCODING 9253
SWIDTH 1000 0
DWIDTH 10 0
BBX 10 10 0 -2
BITMAP
0000
0000
0000
3800
0000
7800
0400
0400
3800
0000
ENDCHAR

STARTCHAR C2426
ENCODING 9254
SWIDTH 1000 0
DWIDTH 10 0
BBX 10 10 0 -2
BITMAP
2000
1C00
0000
7C00
0200
0200
0200
0400
3800
0000
ENDCHAR

STARTCHAR C2427
ENCODING 9255
SWIDTH 1000 0
DWIDTH 10 0
BBX 10 10 0 -2
BITMAP
0000
1000
0C00
0000
3C00
0800
1800
2800
4E00
0000
ENDCHAR

STARTCHAR C2428
ENCODING 9256
SWIDTH 1000 0
DWIDTH 10 0
BBX 10 10 0 -2
BITMAP
1000
0C00
0000
7C00
0800
1800
2400
4400
8700
0000
ENDCHAR

STARTCHAR C2429
ENCODING 9257
SWIDTH 1000 0
DWIDTH 10 0
BBX 10 10 0 -2
BITMAP
0000
0000
0000
1200
7900
1000
3E00
5200
3400
0000
ENDCHAR

STARTCHAR C242a
ENCODING 9258
SWIDTH 1000 0
DWIDTH 10 0
BBX 10 10 0 -2
BITMAP
2000
2200
F900
2000
3E00
6100
A100
A100
6E00
0000
ENDCHAR

STARTCHAR C242b
ENCODING 9259
SWIDTH 1000 0
DWIDTH 10 0
BBX 10 10 0 -2
BITMAP
2000
2000
FA00
2500
2480
4480
4400
4400
9800
0000
ENDCHAR

STARTCHAR C242c
ENCODING 9260
SWIDTH 1000 0
DWIDTH 10 0
BBX 10 10 0 -2
BITMAP
2280
2280
FA00
2500
2480
4480
4400
4400
9800
0000
ENDCHAR

STARTCHAR C242d
ENCODING 9261
SWIDTH 1000 0
DWIDTH 10 0
BBX 10 10 0 -2
BITMAP
1000
1000
7E00
0800
7E00
0400
3E00
4000
3C00
0000
ENDCHAR

STARTCHAR C242e
ENCODING 9262
SWIDTH 1000 0
DWIDTH 10 0
BBX 10 10 0 -2
BITMAP
1280
1280
7E00
0800
7E00
0400
3E00
4000
3C00
0000
ENDCHAR

STARTCHAR C242f
ENCODING 9263
SWIDTH 1000 0
DWIDTH 10 0
BBX 10 10 0 -2
BITMAP
0400
0400
0800
1000
2000
1800
0400
0200
0000
0000
ENDCHAR

STARTCHAR C2430
ENCODING 9264
SWIDTH 1000 0
DWIDTH 10 0
BBX 10 10 0 -2
BITMAP
0400
0400
0A80
1280
2000
1800
0400
0200
0000
0000
ENDCHAR

STARTCHAR C2431
ENCODING 9265
SWIDTH 1000 0
DWIDTH 10 0
BBX 10 10 0 -2
BITMAP
0200
4200
5F80
4200
4200
4200
4200
2400
0800
0000
ENDCHAR

STARTCHAR C2432
ENCODING 9266
SWIDTH 1000 0
DWIDTH 10 0
BBX 10 10 0 -2
BITMAP
0A80
8A80
BF00
8400
8400
8400
8400
4800
1000
0000
ENDCHAR

STARTCHAR C2433
ENCODING 9267
SWIDTH 1000 0
DWIDTH 10 0
BBX 10 10 0 -2
BITMAP
0000
2200
1C00
0000
0000
4000
4100
3E00
0000
0000
ENDCHAR

STARTCHAR C2434
ENCODING 9268
SWIDTH 1000 0
DWIDTH 10 0
BBX 10 10 0 -2
BITMAP
0280
2280
1C00
0000
0000
4000
4100
3E00
0000
0000
ENDCHAR

STARTCHAR C2435
ENCODING 9269
SWIDTH 1000 0
DWIDTH 10 0
BBX 10 10 0 -2
BITMAP
1000
1000
7F00
0800
0400
3E00
4000
4000
3C00
0000
ENDCHAR

STARTCHAR C2436
ENCODING 9270
SWIDTH 1000 0
DWIDTH 10 0
BBX 10 10 0 -2
BITMAP
1280
1280
7F00
0800
0400
3E00
4000
4000
3C00
0000
ENDCHAR

STARTCHAR C2437
ENCODING 9271
SWIDTH 1000 0
DWIDTH 10 0
BBX 10 10 0 -2
BITMAP
2000
2000
2000
2000
2000
2100
2200
1C00
0000
0000
ENDCHAR

STARTCHAR C2438
ENCODING 9272
SWIDTH 1000 0
DWIDTH 10 0
BBX 10 10 0 -2
BITMAP
2000
2500
2500
2000
2000
2100
2200
1C00
0000
0000
ENDCHAR

STARTCHAR C2439
ENCODING 9273
SWIDTH 1000 0
DWIDTH 10 0
BBX 10 10 0 -2
BITMAP
0800
0800
FF00
0800
3800
4800
3800
0800
3000
0000
ENDCHAR

STARTCHAR C243a
ENCODING 9274
SWIDTH 1000 0
DWIDTH 10 0
BBX 10 10 0 -2
BITMAP
0A80
0A80
FE00
0800
3800
4800
3800
0800
3000
0000
ENDCHAR

STARTCHAR C243b
ENCODING 9275
SWIDTH 1000 0
DWIDTH 10 0
BBX 10 10 0 -2
BITMAP
0000
2400
2400
FF00
2400
2C00
2000
1E00
0000
0000
ENDCHAR

STARTCHAR C243c
ENCODING 9276
SWIDTH 1000 0
DWIDTH 10 0
BBX 10 10 0 -2
BITMAP
0280
4A80
4800
FE00
4800
5800
4000
3C00
0000
0000
ENDCHAR

STARTCHAR C243d
ENCODING 9277
SWIDTH 1000 0
DWIDTH 10 0
BBX 10 10 0 -2
BITMAP
0000
3E00
0400
0800
7F00
0800
1000
1000
0E00
0000
ENDCHAR

STARTCHAR C243e
ENCODING 9278
SWIDTH 1000 0
DWIDTH 10 0
BBX 10 10 0 -2
BITMAP
0000
7A80
1280
2000
FE00
1000
2000
2000
1C00
0000
ENDCHAR

STARTCHAR C243f
ENCODING 9279
SWIDTH 1000 0
DWIDTH 10 0
BBX 10 10 0 -2
BITMAP
2000
2000
F000
4E00
4000
4800
9000
8F00
0000
0000
ENDCHAR

STARTCHAR C2440
ENCODING 9280
SWIDTH 1000 0
DWIDTH 10 0
BBX 10 10 0 -2
BITMAP
2280
2280
F000
4E00
4000
4800
9000
8F00
0000
0000
ENDCHAR

STARTCHAR C2441
ENCODING 9281
SWIDTH 1000 0
DWIDTH 10 0
BBX 10 10 0 -2
BITMAP
1000
1000
7E00
1000
3E00
2100
0100
1E00
0000
0000
ENDCHAR

STARTCHAR C2442
ENCODING 9282
SWIDTH 1000 0
DWIDTH 10 0
BBX 10 10 0 -2
BITMAP
1280
1280
7E00
1000
3E00
2100
0100
1E00
0000
0000
ENDCHAR

STARTCHAR C2443
ENCODING 9283
SWIDTH 1000 0
DWIDTH 10 0
BBX 10 10 0 -2
BITMAP
0000
0000
0000
0000
0000
3C00
0200
0200
1C00
0000
ENDCHAR

STARTCHAR C2444
ENCODING 9284
SWIDTH 1000 0
DWIDTH 10 0
BBX 10 10 0 -2
BITMAP
0000
0000
1C00
E200
0100
0100
0200
1C00
0000
0000
ENDCHAR

STARTCHAR C2445
ENCODING 9285
SWIDTH 1000 0
DWIDTH 10 0
BBX 10 10 0 -2
BITMAP
0280
0280
1C00
E200
0100
0100
0200
1C00
0000
0000
ENDCHAR

STARTCHAR C2446
ENCODING 9286
SWIDTH 1000 0
DWIDTH 10 0
BBX 10 10 0 -2
BITMAP
0000
1F00
6400
0800
1000
1000
1000
0E00
0000
0000
ENDCHAR

STARTCHAR C2447
ENCODING 9287
SWIDTH 1000 0
DWIDTH 10 0
BBX 10 10 0 -2
BITMAP
0000
1F00
6400
0A80
1280
1000
1000
0E00
0000
0000
ENDCHAR

STARTCHAR C2448
ENCODING 9288
SWIDTH 1000 0
DWIDTH 10 0
BBX 10 10 0 -2
BITMAP
1000
1000
1600
1800
2000
4000
4000
3E00
0000
0000
ENDCHAR

STARTCHAR C2449
ENCODING 9289
SWIDTH 1000 0
DWIDTH 10 0
BBX 10 10 0 -2
BITMAP
1280
1280
1000
1C00
2000
4000
4000
3E00
0000
0000
ENDCHAR

STARTCHAR C244a
ENCODING 9290
SWIDTH 1000 0
DWIDTH 10 0
BBX 10 10 0 -2
BITMAP
1000
1300
7880
2200
2200
4E00
9300
1280
0C00
0000
ENDCHAR

STARTCHAR C244b
ENCODING 9291
SWIDTH 1000 0
DWIDTH 10 0
BBX 10 10 0 -2
BITMAP
0000
4000
4F00
8000
8000
8800
8800
4700
4000
0000
ENDCHAR

STARTCHAR C244c
ENCODING 9292
SWIDTH 1000 0
DWIDTH 10 0
BBX 10 10 0 -2
BITMAP
0800
4800
5E00
6900
4900
B100
B700
C980
0600
0000
ENDCHAR

STARTCHAR C244d
ENCODING 9293
SWIDTH 1000 0
DWIDTH 10 0
BBX 10 10 0 -2
BITMAP
2000
2000
EE00
3100
2100
6100
A700
2980
2600
0000
ENDCHAR

STARTCHAR C244e
ENCODING 9294
SWIDTH 1000 0
DWIDTH 10 0
BBX 10 10 0 -2
BITMAP
0000
3C00
4A00
8900
9100
9100
6200
0C00
0000
0000
ENDCHAR

STARTCHAR C244f
ENCODING 9295
SWIDTH 1000 0
DWIDTH 10 0
BBX 10 10 0 -2
BITMAP
0000
4200
5F80
8200
8200
8E00
9300
9280
4C00
0000
ENDCHAR

STARTCHAR C2450
ENCODING 9296
SWIDTH 1000 0
DWIDTH 10 0
BBX 10 10 0 -2
BITMAP
0A80
4A80
5F00
8400
8400
9C00
A600
A500
5800
0000
ENDCHAR

STARTCHAR C2451
ENCODING 9297
SWIDTH 1000 0
DWIDTH 10 0
BBX 10 10 0 -2
BITMAP
0180
4580
5E00
8400
8400
9C00
A600
A500
5800
0000
ENDCHAR

STARTCHAR C2452
ENCODING 9298
SWIDTH 1000 0
DWIDTH 10 0
BBX 10 10 0 -2
BITMAP
0000
1200
E200
2200
4300
4280
4400
4400
3800
0000
ENDCHAR

STARTCHAR C2453
ENCODING 9299
SWIDTH 1000 0
DWIDTH 10 0
BBX 10 10 0 -2
BITMAP
0280
2280
C400
4400
8600
8500
8800
8800
7000
0000
ENDCHAR

STARTCHAR C2454
ENCODING 9300
SWIDTH 1000 0
DWIDTH 10 0
BBX 10 10 0 -2
BITMAP
0000
2580
C580
4400
8600
8500
8800
8800
7000
0000
ENDCHAR

STARTCHAR C2455
ENCODING 9301
SWIDTH 1000 0
DWIDTH 10 0
BBX 10 10 0 -2
BITMAP
1000
0C00
0000
1000
1600
1900
A480
C480
1800
0000
ENDCHAR

STARTCHAR C2456
ENCODING 9302
SWIDTH 1000 0
DWIDTH 10 0
BBX 10 10 0 -2
BITMAP
1000
0C00
0280
1280
1600
1900
A480
C480
1800
0000
ENDCHAR

STARTCHAR C2457
ENCODING 9303
SWIDTH 1000 0
DWIDTH 10 0
BBX 10 10 0 -2
BITMAP
1000
0D80
0180
1000
1600
1900
A480
C480
1800
0000
ENDCHAR

STARTCHAR C2458
ENCODING 9304
SWIDTH 1000 0
DWIDTH 10 0
BBX 10 10 0 -2
BITMAP
0000
0000
3000
4800
8400
0200
0100
0000
0000
0000
ENDCHAR

STARTCHAR C2459
ENCODING 9305
SWIDTH 1000 0
DWIDTH 10 0
BBX 10 10 0 -2
BITMAP
0000
0280
3280
4800
8400
0200
0100
0000
0000
0000
ENDCHAR

STARTCHAR C245a
ENCODING 9306
SWIDTH 1000 0
DWIDTH 10 0
BBX 10 10 0 -2
BITMAP
0000
0300
3300
4800
8400
0200
0100
0000
0000
0000
ENDCHAR

STARTCHAR C245b
ENCODING 9307
SWIDTH 1000 0
DWIDTH 10 0
BBX 10 10 0 -2
BITMAP
0000
5F00
4200
9F80
8200
8E00
9300
5280
4C00
0000
ENDCHAR

STARTCHAR C245c
ENCODING 9308
SWIDTH 1000 0
DWIDTH 10 0
BBX 10 10 0 -2
BITMAP
0280
5E80
4400
9F00
8400
9C00
A600
A500
5800
0000
ENDCHAR

STARTCHAR C245d
ENCODING 9309
SWIDTH 1000 0
DWIDTH 10 0
BBX 10 10 0 -2
BITMAP
0180
5F80
4400
9F00
8400
9C00
A600
A500
5800
0000
ENDCHAR

STARTCHAR C245e
ENCODING 9310
SWIDTH 1000 0
DWIDTH 10 0
BBX 10 10 0 -2
BITMAP
0800
0800
7F00
0800
3E00
0800
3C00
4A00
3900
0000
ENDCHAR

STARTCHAR C245f
ENCODING 9311
SWIDTH 1000 0
DWIDTH 10 0
BBX 10 10 0 -2
BITMAP
0000
7800
0A00
1200
7A00
9600
A300
4400
0800
0000
ENDCHAR

STARTCHAR C2460
ENCODING 9312
SWIDTH 1000 0
DWIDTH 10 0
BBX 10 10 0 -2
BITMAP
2000
F200
2100
6100
A000
A000
6100
2100
1E00
0000
ENDCHAR

STARTCHAR C2461
ENCODING 9313
SWIDTH 1000 0
DWIDTH 10 0
BBX 10 10 0 -2
BITMAP
0800
4800
7C00
4A00
A900
9100
B100
4200
0C00
0000
ENDCHAR

STARTCHAR C2462
ENCODING 9314
SWIDTH 1000 0
DWIDTH 10 0
BBX 10 10 0 -2
BITMAP
1000
1000
7C00
1000
7C00
2100
2100
2100
1E00
0000
ENDCHAR

STARTCHAR C2463
ENCODING 9315
SWIDTH 1000 0
DWIDTH 10 0
BBX 10 10 0 -2
BITMAP
0000
0000
0400
2200
1E00
7100
1200
0800
0800
0000
ENDCHAR

STARTCHAR C2464
ENCODING 9316
SWIDTH 1000 0
DWIDTH 10 0
BBX 10 10 0 -2
BITMAP
4400
2200
3E00
E100
2100
2600
1000
1000
1000
0000
ENDCHAR

STARTCHAR C2465
ENCODING 9317
SWIDTH 1000 0
DWIDTH 10 0
BBX 10 10 0 -2
BITMAP
0000
0000
0000
0800
5C00
6A00
5C00
0800
1000
0000
ENDCHAR

STARTCHAR C2466
ENCODING 9318
SWIDTH 1000 0
DWIDTH 10 0
BBX 10 10 0 -2
BITMAP
0800
4400
5E00
A500
A500
D500
4E00
0800
1000
0000
ENDCHAR

STARTCHAR C2467
ENCODING 9319
SWIDTH 1000 0
DWIDTH 10 0
BBX 10 10 0 -2
BITMAP
0000
0000
0800
0800
0E00
0800
3800
4C00
3200
0000
ENDCHAR

STARTCHAR C2468
ENCODING 9320
SWIDTH 1000 0
DWIDTH 10 0
BBX 10 10 0 -2
BITMAP
0800
0800
0F00
0800
0800
7800
8C00
8A00
7100
0000
ENDCHAR

STARTCHAR C2469
ENCODING 9321
SWIDTH 1000 0
DWIDTH 10 0
BBX 10 10 0 -2
BITMAP
3000
1E00
2000
4000
5E00
6100
4100
0200
1C00
0000
ENDCHAR

STARTCHAR C246a
ENCODING 9322
SWIDTH 1000 0
DWIDTH 10 0
BBX 10 10 0 -2
BITMAP
2000
2400
4A00
5200
5200
2200
0200
0400
1800
0000
ENDCHAR

STARTCHAR C246b
ENCODING 9323
SWIDTH 1000 0
DWIDTH 10 0
BBX 10 10 0 -2
BITMAP
0000
7C00
0800
1000
3E00
4100
9900
2600
1C00
0000
ENDCHAR

STARTCHAR C246c
ENCODING 9324
SWIDTH 1000 0
DWIDTH 10 0
BBX 10 10 0 -2
BITMAP
2000
2600
E900
3100
2100
6200
A280
2300
2000
0000
ENDCHAR

STARTCHAR C246d
ENCODING 9325
SWIDTH 1000 0
DWIDTH 10 0
BBX 10 10 0 -2
BITMAP
0000
7C00
0800
1000
3C00
4200
8100
0200
3C00
0000
ENDCHAR

STARTCHAR C246e
ENCODING 9326
SWIDTH 1000 0
DWIDTH 10 0
BBX 10 10 0 -2
BITMAP
0000
0000
0000
1000
7600
1900
3100
5100
1600
0000
ENDCHAR

STARTCHAR C246f
ENCODING 9327
SWIDTH 1000 0
DWIDTH 10 0
BBX 10 10 0 -2
BITMAP
2000
2000
EE00
3100
2080
2080
6080
A100
2600
0000
ENDCHAR

STARTCHAR C2470
ENCODING 9328
SWIDTH 1000 0
DWIDTH 10 0
BBX 10 10 0 -2
BITMAP
3800
0800
0800
3E00
5100
A100
AD00
D300
0E00
0000
ENDCHAR

STARTCHAR C2471
ENCODING 9329
SWIDTH 1000 0
DWIDTH 10 0
BBX 10 10 0 -2
BITMAP
3C00
0800
1C00
2200
5A00
1C00
2000
7600
8900
0000
ENDCHAR

STARTCHAR C2472
ENCODING 9330
SWIDTH 1000 0
DWIDTH 10 0
BBX 10 10 0 -2
BITMAP
1000
1000
7E00
1000
3B00
4C00
1400
2000
1E00
0000
ENDCHAR

STARTCHAR C2473
ENCODING 9331
SWIDTH 1000 0
DWIDTH 10 0
BBX 10 10 0 -2
BITMAP
0000
0800
1000
2000
3800
4900
4900
8900
8600
0000
ENDCHAR

STARTCHAR C2474
ENCODING 9332
SWIDTH 1000 0
DWIDTH 10 0
BBX 10 10 0 -2
BITMAP
0000
0000
0000
0000
0000
0000
0000
0000
0000
0000
ENDCHAR

STARTCHAR C2475
ENCODING 9333
SWIDTH 1000 0
DWIDTH 10 0
BBX 10 10 0 -2
BITMAP
0000
0000
0000
0000
0000
0000
0000
0000
0000
0000
ENDCHAR

STARTCHAR C2476
ENCODING 9334
SWIDTH 1000 0
DWIDTH 10 0
BBX 10 10 0 -2
BITMAP
0000
0000
0000
0000
0000
0000
0000
0000
0000
0000
ENDCHAR

STARTCHAR C2477
ENCODING 9335
SWIDTH 1000 0
DWIDTH 10 0
BBX 10 10 0 -2
BITMAP
0000
0000
0000
0000
0000
0000
0000
0000
0000
0000
ENDCHAR

STARTCHAR C2478
ENCODING 9336
SWIDTH 1000 0
DWIDTH 10 0
BBX 10 10 0 -2
BITMAP
0000
0000
0000
0000
0000
0000
0000
0000
0000
0000
ENDCHAR

STARTCHAR C2479
ENCODING 9337
SWIDTH 1000 0
DWIDTH 10 0
BBX 10 10 0 -2
BITMAP
0000
0000
0000
0000
0000
0000
0000
0000
0000
0000
ENDCHAR

STARTCHAR C247a
ENCODING 9338
SWIDTH 1000 0
DWIDTH 10 0
BBX 10 10 0 -2
BITMAP
0000
0000
0000
0000
0000
0000
0000
0000
0000
0000
ENDCHAR

STARTCHAR C247b
ENCODING 9339
SWIDTH 1000 0
DWIDTH 10 0
BBX 10 10 0 -2
BITMAP
0000
0000
0000
0000
0000
0000
0000
0000
0000
0000
ENDCHAR

STARTCHAR C247c
ENCODING 9340
SWIDTH 1000 0
DWIDTH 10 0
BBX 10 10 0 -2
BITMAP
0000
0000
0000
0000
0000
0000
0000
0000
0000
0000
ENDCHAR

STARTCHAR C247d
ENCODING 9341
SWIDTH 1000 0
DWIDTH 10 0
BBX 10 10 0 -2
BITMAP
0000
0000
0000
0000
0000
0000
0000
0000
0000
0000
ENDCHAR

STARTCHAR C247e
ENCODING 9342
SWIDTH 1000 0
DWIDTH 10 0
BBX 10 10 0 -2
BITMAP
0000
0000
0000
0000
0000
0000
0000
0000
0000
0000
ENDCHAR

STARTCHAR C2521
ENCODING 9505
SWIDTH 1000 0
DWIDTH 10 0
BBX 10 10 0 -2
BITMAP
0000
0000
0000
3E00
0200
0C00
0800
0800
1000
0000
ENDCHAR

STARTCHAR C2522
ENCODING 9506
SWIDTH 1000 0
DWIDTH 10 0
BBX 10 10 0 -2
BITMAP
0000
0000
7F00
0100
0E00
0800
0800
1000
2000
0000
ENDCHAR

STARTCHAR C2523
ENCODING 9507
SWIDTH 1000 0
DWIDTH 10 0
BBX 10 10 0 -2
BITMAP
0000
0000
0000
0400
0800
1800
6800
0800
0800
0000
ENDCHAR

STARTCHAR C2524
ENCODING 9508
SWIDTH 1000 0
DWIDTH 10 0
BBX 10 10 0 -2
BITMAP
0200
0200
0400
0800
3800
C800
0800
0800
0800
0000
ENDCHAR

STARTCHAR C2525
ENCODING 9509
SWIDTH 1000 0
DWIDTH 10 0
BBX 10 10 0 -2
BITMAP
0000
0000
0800
0800
3E00
2200
0200
0400
0800
0000
ENDCHAR

STARTCHAR C2526
ENCODING 9510
SWIDTH 1000 0
DWIDTH 10 0
BBX 10 10 0 -2
BITMAP
0800
0800
7F00
4100
4100
4100
0200
0400
1800
0000
ENDCHAR

STARTCHAR C2527
ENCODING 9511
SWIDTH 1000 0
DWIDTH 10 0
BBX 10 10 0 -2
BITMAP
0000
0000
0000
0000
3E00
0800
0800
3E00
0000
0000
ENDCHAR

STARTCHAR C2528
ENCODING 9512
SWIDTH 1000 0
DWIDTH 10 0
BBX 10 10 0 -2
BITMAP
0000
0000
7F00
0800
0800
0800
0800
FF80
0000
0000
ENDCHAR

STARTCHAR C2529
ENCODING 9513
SWIDTH 1000 0
DWIDTH 10 0
BBX 10 10 0 -2
BITMAP
0000
0000
0000
0400
3E00
0C00
1400
2400
0C00
0000
ENDCHAR

STARTCHAR C252a
ENCODING 9514
SWIDTH 1000 0
DWIDTH 10 0
BBX 10 10 0 -2
BITMAP
0400
0400
FF80
0C00
1400
1400
2400
C400
0C00
0000
ENDCHAR

STARTCHAR C252b
ENCODING 9515
SWIDTH 1000 0
DWIDTH 10 0
BBX 10 10 0 -2
BITMAP
1000
1000
7F00
1100
1100
1100
2100
2100
4600
0000
ENDCHAR

STARTCHAR C252c
ENCODING 9516
SWIDTH 1000 0
DWIDTH 10 0
BBX 10 10 0 -2
BITMAP
2280
2280
FE00
2200
2200
2200
4200
4200
8C00
0000
ENDCHAR

STARTCHAR C252d
ENCODING 9517
SWIDTH 1000 0
DWIDTH 10 0
BBX 10 10 0 -2
BITMAP
1000
1000
FE00
1000
1000
FF00
0800
0800
0800
0000
ENDCHAR

STARTCHAR C252e
ENCODING 9518
SWIDTH 1000 0
DWIDTH 10 0
BBX 10 10 0 -2
BITMAP
1280
1280
FE00
1000
1000
FF00
0800
0800
0800
0000
ENDCHAR

STARTCHAR C252f
ENCODING 9519
SWIDTH 1000 0
DWIDTH 10 0
BBX 10 10 0 -2
BITMAP
0000
1000
1F00
2100
4200
0200
0400
0800
3000
0000
ENDCHAR

STARTCHAR C2530
ENCODING 9520
SWIDTH 1000 0
DWIDTH 10 0
BBX 10 10 0 -2
BITMAP
0280
2280
3E00
4200
8400
0400
0800
1000
6000
0000
ENDCHAR

STARTCHAR C2531
ENCODING 9521
SWIDTH 1000 0
DWIDTH 10 0
BBX 10 10 0 -2
BITMAP
2000
2000
3F00
4400
8400
0400
0800
1000
2000
0000
ENDCHAR

STARTCHAR C2532
ENCODING 9522
SWIDTH 1000 0
DWIDTH 10 0
BBX 10 10 0 -2
BITMAP
2280
2280
3F00
4400
8400
0400
0800
1000
2000
0000
ENDCHAR

STARTCHAR C2533
ENCODING 9523
SWIDTH 1000 0
DWIDTH 10 0
BBX 10 10 0 -2
BITMAP
0000
0000
7E00
0200
0200
0200
0200
7E00
0000
0000
ENDCHAR

STARTCHAR C2534
ENCODING 9524
SWIDTH 1000 0
DWIDTH 10 0
BBX 10 10 0 -2
BITMAP
0280
0000
7E00
0200
0200
0200
0200
7E00
0000
0000
ENDCHAR

STARTCHAR C2535
ENCODING 9525
SWIDTH 1000 0
DWIDTH 10 0
BBX 10 10 0 -2
BITMAP
2400
2400
FF00
2400
2400
2400
0800
3000
0000
0000
ENDCHAR

STARTCHAR C2536
ENCODING 9526
SWIDTH 1000 0
DWIDTH 10 0
BBX 10 10 0 -2
BITMAP
2680
2680
FF00
2400
2400
2400
0800
3000
0000
0000
ENDCHAR

STARTCHAR C2537
ENCODING 9527
SWIDTH 1000 0
DWIDTH 10 0
BBX 10 10 0 -2
BITMAP
0000
3000
0800
6100
1100
0200
0C00
3000
0000
0000
ENDCHAR

STARTCHAR C2538
ENCODING 9528
SWIDTH 1000 0
DWIDTH 10 0
BBX 10 10 0 -2
BITMAP
0280
3280
0800
6100
1100
0200
0C00
3000
0000
0000
ENDCHAR

STARTCHAR C2539
ENCODING 9529
SWIDTH 1000 0
DWIDTH 10 0
BBX 10 10 0 -2
BITMAP
0000
7E00
0400
0400
0800
1400
2200
C200
0000
0000
ENDCHAR

STARTCHAR C253a
ENCODING 9530
SWIDTH 1000 0
DWIDTH 10 0
BBX 10 10 0 -2
BITMAP
0280
7E80
0400
0400
0800
1400
2200
C200
0000
0000
ENDCHAR

STARTCHAR C253b
ENCODING 9531
SWIDTH 1000 0
DWIDTH 10 0
BBX 10 10 0 -2
BITMAP
0000
2000
2000
2F00
F100
2200
2000
2000
1E00
0000
ENDCHAR

STARTCHAR C253c
ENCODING 9532
SWIDTH 1000 0
DWIDTH 10 0
BBX 10 10 0 -2
BITMAP
0280
2280
2000
2F00
F100
2200
2000
2000
1E00
0000
ENDCHAR

STARTCHAR C253d
ENCODING 9533
SWIDTH 1000 0
DWIDTH 10 0
BBX 10 10 0 -2
BITMAP
0000
4000
2100
2100
0200
0200
0400
1800
6000
0000
ENDCHAR

STARTCHAR C253e
ENCODING 9534
SWIDTH 1000 0
DWIDTH 10 0
BBX 10 10 0 -2
BITMAP
0280
4280
2000
2100
0200
0200
0400
1800
6000
0000
ENDCHAR

STARTCHAR C253f
ENCODING 9535
SWIDTH 1000 0
DWIDTH 10 0
BBX 10 10 0 -2
BITMAP
0000
1000
1F00
2100
5200
0A00
0400
0800
3000
0000
ENDCHAR

STARTCHAR C2540
ENCODING 9536
SWIDTH 1000 0
DWIDTH 10 0
BBX 10 10 0 -2
BITMAP
0280
2280
3E00
4200
A400
1400
0800
1000
6000
0000
ENDCHAR

STARTCHAR C2541
ENCODING 9537
SWIDTH 1000 0
DWIDTH 10 0
BBX 10 10 0 -2
BITMAP
0600
7800
0800
0800
FF00
0800
0800
1000
2000
0000
ENDCHAR

STARTCHAR C2542
ENCODING 9538
SWIDTH 1000 0
DWIDTH 10 0
BBX 10 10 0 -2
BITMAP
0600
7800
0A80
0A80
FF00
0800
0800
1000
2000
0000
ENDCHAR

STARTCHAR C2543
ENCODING 9539
SWIDTH 1000 0
DWIDTH 10 0
BBX 10 10 0 -2
BITMAP
0000
0000
0000
2A00
2A00
0200
0400
1800
0000
0000
ENDCHAR

STARTCHAR C2544
ENCODING 9540
SWIDTH 1000 0
DWIDTH 10 0
BBX 10 10 0 -2
BITMAP
0000
1000
4900
2900
2100
0200
0200
0C00
3000
0000
ENDCHAR

STARTCHAR C2545
ENCODING 9541
SWIDTH 1000 0
DWIDTH 10 0
BBX 10 10 0 -2
BITMAP
0280
1280
4800
2900
2100
0100
0200
0C00
3000
0000
ENDCHAR

STARTCHAR C2546
ENCODING 9542
SWIDTH 1000 0
DWIDTH 10 0
BBX 10 10 0 -2
BITMAP
0000
7E00
0000
0000
FF00
0800
0800
1000
2000
0000
ENDCHAR

STARTCHAR C2547
ENCODING 9543
SWIDTH 1000 0
DWIDTH 10 0
BBX 10 10 0 -2
BITMAP
0280
7E80
0000
0000
FF00
0800
0800
1000
2000
0000
ENDCHAR

STARTCHAR C2548
ENCODING 9544
SWIDTH 1000 0
DWIDTH 10 0
BBX 10 10 0 -2
BITMAP
0000
1000
1000
1000
1C00
1200
1000
1000
1000
0000
ENDCHAR

STARTCHAR C2549
ENCODING 9545
SWIDTH 1000 0
DWIDTH 10 0
BBX 10 10 0 -2
BITMAP
0000
1500
1500
1000
1C00
1200
1000
1000
1000
0000
ENDCHAR

STARTCHAR C254a
ENCODING 9546
SWIDTH 1000 0
DWIDTH 10 0
BBX 10 10 0 -2
BITMAP
0800
0800
0800
7F00
0800
0800
0800
1000
2000
0000
ENDCHAR

STARTCHAR C254b
ENCODING 9547
SWIDTH 1000 0
DWIDTH 10 0
BBX 10 10 0 -2
BITMAP
0000
0000
3E00
0000
0000
0000
7F00
0000
0000
0000
ENDCHAR

STARTCHAR C254c
ENCODING 9548
SWIDTH 1000 0
DWIDTH 10 0
BBX 10 10 0 -2
BITMAP
0000
3E00
0200
0200
3400
0C00
0A00
1100
6000
0000
ENDCHAR

STARTCHAR C254d
ENCODING 9549
SWIDTH 1000 0
DWIDTH 10 0
BBX 10 10 0 -2
BITMAP
1800
0000
7E00
0400
0800
1B00
6880
0800
0800
0000
ENDCHAR

STARTCHAR C254e
ENCODING 9550
SWIDTH 1000 0
DWIDTH 10 0
BBX 10 10 0 -2
BITMAP
0000
0200
0200
0400
0400
0800
1000
6000
0000
0000
ENDCHAR

STARTCHAR C254f
ENCODING 9551
SWIDTH 1000 0
DWIDTH 10 0
BBX 10 10 0 -2
BITMAP
0000
0000
2400
2200
2200
4100
4100
8000
0000
0000
ENDCHAR

STARTCHAR C2550
ENCODING 9552
SWIDTH 1000 0
DWIDTH 10 0
BBX 10 10 0 -2
BITMAP
0280
0280
2400
2200
2200
4100
4100
8000
0000
0000
ENDCHAR

STARTCHAR C2551
ENCODING 9553
SWIDTH 1000 0
DWIDTH 10 0
BBX 10 10 0 -2
BITMAP
0180
0180
2400
2200
2200
4100
4100
8000
0000
0000
ENDCHAR

STARTCHAR C2552
ENCODING 9554
SWIDTH 1000 0
DWIDTH 10 0
BBX 10 10 0 -2
BITMAP
0000
4000
4200
4C00
7000
4000
4000
3E00
0000
0000
ENDCHAR

STARTCHAR C2553
ENCODING 9555
SWIDTH 1000 0
DWIDTH 10 0
BBX 10 10 0 -2
BITMAP
0280
4280
4000
4E00
7000
4000
4000
3E00
0000
0000
ENDCHAR

STARTCHAR C2554
ENCODING 9556
SWIDTH 1000 0
DWIDTH 10 0
BBX 10 10 0 -2
BITMAP
0300
4300
4000
4E00
7000
4000
4000
3E00
0000
0000
ENDCHAR

STARTCHAR C2555
ENCODING 9557
SWIDTH 1000 0
DWIDTH 10 0
BBX 10 10 0 -2
BITMAP
0000
7E00
0200
0200
0200
0400
0800
3000
0000
0000
ENDCHAR

STARTCHAR C2556
ENCODING 9558
SWIDTH 1000 0
DWIDTH 10 0
BBX 10 10 0 -2
BITMAP
0280
7E80
0200
0200
0200
0400
0800
3000
0000
0000
ENDCHAR

STARTCHAR C2557
ENCODING 9559
SWIDTH 1000 0
DWIDTH 10 0
BBX 10 10 0 -2
BITMAP
0180
7F80
0200
0200
0200
0400
0800
3000
0000
0000
ENDCHAR

STARTCHAR C2558
ENCODING 9560
SWIDTH 1000 0
DWIDTH 10 0
BBX 10 10 0 -2
BITMAP
0000
0000
3000
4800
8400
0200
0100
0000
0000
0000
ENDCHAR

STARTCHAR C2559
ENCODING 9561
SWIDTH 1000 0
DWIDTH 10 0
BBX 10 10 0 -2
BITMAP
0000
0280
3280
4800
8400
0200
0100
0000
0000
0000
ENDCHAR

STARTCHAR C255a
ENCODING 9562
SWIDTH 1000 0
DWIDTH 10 0
BBX 10 10 0 -2
BITMAP
0000
0300
3300
4800
8400
0200
0100
0000
0000
0000
ENDCHAR

STARTCHAR C255b
ENCODING 9563
SWIDTH 1000 0
DWIDTH 10 0
BBX 10 10 0 -2
BITMAP
0800
0800
7F00
0800
0800
4A00
4900
8900
1800
0000
ENDCHAR

STARTCHAR C255c
ENCODING 9564
SWIDTH 1000 0
DWIDTH 10 0
BBX 10 10 0 -2
BITMAP
0A80
0A80
7F00
0800
0800
4A00
4900
8900
1800
0000
ENDCHAR

STARTCHAR C255d
ENCODING 9565
SWIDTH 1000 0
DWIDTH 10 0
BBX 10 10 0 -2
BITMAP
0980
0980
7F00
0800
0800
4A00
4900
8900
1800
0000
ENDCHAR

STARTCHAR C255e
ENCODING 9566
SWIDTH 1000 0
DWIDTH 10 0
BBX 10 10 0 -2
BITMAP
0000
7F00
0100
0200
3400
0800
0400
0200
0000
0000
ENDCHAR

STARTCHAR C255f
ENCODING 9567
SWIDTH 1000 0
DWIDTH 10 0
BBX 10 10 0 -2
BITMAP
0000
3800
0600
0000
3800
0400
0000
7800
0600
0000
ENDCHAR

STARTCHAR C2560
ENCODING 9568
SWIDTH 1000 0
DWIDTH 10 0
BBX 10 10 0 -2
BITMAP
0000
1000
1000
1000
2400
2200
4600
F900
0100
0000
ENDCHAR

STARTCHAR C2561
ENCODING 9569
SWIDTH 1000 0
DWIDTH 10 0
BBX 10 10 0 -2
BITMAP
0000
0100
0100
1200
0C00
0C00
3200
C000
0000
0000
ENDCHAR

STARTCHAR C2562
ENCODING 9570
SWIDTH 1000 0
DWIDTH 10 0
BBX 10 10 0 -2
BITMAP
0000
7E00
1000
1000
FF00
1000
1000
1000
0E00
0000
ENDCHAR

STARTCHAR C2563
ENCODING 9571
SWIDTH 1000 0
DWIDTH 10 0
BBX 10 10 0 -2
BITMAP
0000
0000
1000
1700
7900
1200
0800
0800
0800
0000
ENDCHAR

STARTCHAR C2564
ENCODING 9572
SWIDTH 1000 0
DWIDTH 10 0
BBX 10 10 0 -2
BITMAP
0000
2000
2780
3880
D100
1600
1000
0800
0800
0000
ENDCHAR

STARTCHAR C2565
ENCODING 9573
SWIDTH 1000 0
DWIDTH 10 0
BBX 10 10 0 -2
BITMAP
0000
0000
0000
0000
3800
0800
0800
7E00
0000
0000
ENDCHAR

STARTCHAR C2566
ENCODING 9574
SWIDTH 1000 0
DWIDTH 10 0
BBX 10 10 0 -2
BITMAP
0000
0000
3C00
0400
0400
0400
0400
7F00
0000
0000
ENDCHAR

STARTCHAR C2567
ENCODING 9575
SWIDTH 1000 0
DWIDTH 10 0
BBX 10 10 0 -2
BITMAP
0000
0000
0000
3C00
0400
3C00
0400
3C00
0000
0000
ENDCHAR

STARTCHAR C2568
ENCODING 9576
SWIDTH 1000 0
DWIDTH 10 0
BBX 10 10 0 -2
BITMAP
0000
7E00
0200
0200
7E00
0200
0200
7E00
0000
0000
ENDCHAR

STARTCHAR C2569
ENCODING 9577
SWIDTH 1000 0
DWIDTH 10 0
BBX 10 10 0 -2
BITMAP
0000
3E00
0000
7F00
0100
0200
0400
1800
0000
0000
ENDCHAR

STARTCHAR C256a
ENCODING 9578
SWIDTH 1000 0
DWIDTH 10 0
BBX 10 10 0 -2
BITMAP
0000
2200
2200
2200
2200
2200
0200
0400
1800
0000
ENDCHAR

STARTCHAR C256b
ENCODING 9579
SWIDTH 1000 0
DWIDTH 10 0
BBX 10 10 0 -2
BITMAP
0000
0400
2400
2480
2480
4500
4600
8000
0000
0000
ENDCHAR

STARTCHAR C256c
ENCODING 9580
SWIDTH 1000 0
DWIDTH 10 0
BBX 10 10 0 -2
BITMAP
0000
2000
2000
2000
2100
2200
2C00
3000
0000
0000
ENDCHAR

STARTCHAR C256d
ENCODING 9581
SWIDTH 1000 0
DWIDTH 10 0
BBX 10 10 0 -2
BITMAP
0000
0000
7E00
4200
4200
4200
7E00
4200
0000
0000
ENDCHAR

STARTCHAR C256e
ENCODING 9582
SWIDTH 1000 0
DWIDTH 10 0
BBX 10 10 0 -2
BITMAP
0000
0000
0000
3E00
2200
2200
0200
0400
1800
0000
ENDCHAR

STARTCHAR C256f
ENCODING 9583
SWIDTH 1000 0
DWIDTH 10 0
BBX 10 10 0 -2
BITMAP
0000
7E00
4200
4200
0200
0400
0800
3000
0000
0000
ENDCHAR

STARTCHAR C2570
ENCODING 9584
SWIDTH 1000 0
DWIDTH 10 0
BBX 10 10 0 -2
BITMAP
0000
0400
7F00
2400
2400
7F00
0400
0400
0400
0000
ENDCHAR

STARTCHAR C2571
ENCODING 9585
SWIDTH 1000 0
DWIDTH 10 0
BBX 10 10 0 -2
BITMAP
0000
0000
3F00
0200
0C00
0800
0800
7F80
0000
0000
ENDCHAR

STARTCHAR C2572
ENCODING 9586
SWIDTH 1000 0
DWIDTH 10 0
BBX 10 10 0 -2
BITMAP
0000
7E00
0200
7E00
0200
0400
0800
3000
0000
0000
ENDCHAR

STARTCHAR C2573
ENCODING 9587
SWIDTH 1000 0
DWIDTH 10 0
BBX 10 10 0 -2
BITMAP
0000
0000
6000
1100
0100
0100
0200
0C00
7000
0000
ENDCHAR

STARTCHAR C2574
ENCODING 9588
SWIDTH 1000 0
DWIDTH 10 0
BBX 10 10 0 -2
BITMAP
0A80
0A80
7F00
4100
4100
4100
0200
0400
1800
0000
ENDCHAR

STARTCHAR C2575
ENCODING 9589
SWIDTH 1000 0
DWIDTH 10 0
BBX 10 10 0 -2
BITMAP
0000
0000
0000
0800
3E00
0A00
1200
2600
0000
0000
ENDCHAR

STARTCHAR C2576
ENCODING 9590
SWIDTH 1000 0
DWIDTH 10 0
BBX 10 10 0 -2
BITMAP
0000
0000
0000
2000
3E00
4800
0800
1000
2000
0000
ENDCHAR

STARTCHAR C2577
ENCODING 9591
SWIDTH 1000 0
DWIDTH 10 0
BBX 10 10 0 -2
BITMAP
0000
0000
0000
0000
0000
0000
0000
0000
0000
0000
ENDCHAR

STARTCHAR C2578
ENCODING 9592
SWIDTH 1000 0
DWIDTH 10 0
BBX 10 10 0 -2
BITMAP
0000
0000
0000
0000
0000
0000
0000
0000
0000
0000
ENDCHAR

STARTCHAR C2579
ENCODING 9593
SWIDTH 1000 0
DWIDTH 10 0
BBX 10 10 0 -2
BITMAP
0000
0000
0000
0000
0000
0000
0000
0000
0000
0000
ENDCHAR

STARTCHAR C257a
ENCODING 9594
SWIDTH 1000 0
DWIDTH 10 0
BBX 10 10 0 -2
BITMAP
0000
0000
0000
0000
0000
0000
0000
0000
0000
0000
ENDCHAR

STARTCHAR C257b
ENCODING 9595
SWIDTH 1000 0
DWIDTH 10 0
BBX 10 10 0 -2
BITMAP
0000
0000
0000
0000
0000
0000
0000
0000
0000
0000
ENDCHAR

STARTCHAR C257c
ENCODING 9596
SWIDTH 1000 0
DWIDTH 10 0
BBX 10 10 0 -2
BITMAP
0000
0000
0000
0000
0000
0000
0000
0000
0000
0000
ENDCHAR

STARTCHAR C257d
ENCODING 9597
SWIDTH 1000 0
DWIDTH 10 0
BBX 10 10 0 -2
BITMAP
0000
0000
0000
0000
0000
0000
0000
0000
0000
0000
ENDCHAR

STARTCHAR C257e
ENCODING 9598
SWIDTH 1000 0
DWIDTH 10 0
BBX 10 10 0 -2
BITMAP
0000
0000
0000
0000
0000
0000
0000
0000
0000
0000
ENDCHAR

STARTCHAR C2621
ENCODING 9761
SWIDTH 1000 0
DWIDTH 10 0
BBX 10 10 0 -2
BITMAP
0000
1800
1800
2400
2400
7E00
4200
E700
0000
0000
ENDCHAR

STARTCHAR C2622
ENCODING 9762
SWIDTH 1000 0
DWIDTH 10 0
BBX 10 10 0 -2
BITMAP
0000
7C00
2200
2200
3C00
2200
2200
7C00
0000
0000
ENDCHAR

STARTCHAR C2623
ENCODING 9763
SWIDTH 1000 0
DWIDTH 10 0
BBX 10 10 0 -2
BITMAP
0000
7E00
2200
2000
2000
2000
2000
7000
0000
0000
ENDCHAR

STARTCHAR C2624
ENCODING 9764
SWIDTH 1000 0
DWIDTH 10 0
BBX 10 10 0 -2
BITMAP
0000
0800
0800
1400
2200
2200
4100
7F00
0000
0000
ENDCHAR

STARTCHAR C2625
ENCODING 9765
SWIDTH 1000 0
DWIDTH 10 0
BBX 10 10 0 -2
BITMAP
0000
7E00
2200
2800
3800
2800
2200
7E00
0000
0000
ENDCHAR

STARTCHAR C2626
ENCODING 9766
SWIDTH 1000 0
DWIDTH 10 0
BBX 10 10 0 -2
BITMAP
0000
7E00
4400
0800
1000
1000
2200
7E00
0000
0000
ENDCHAR

STARTCHAR C2627
ENCODING 9767
SWIDTH 1000 0
DWIDTH 10 0
BBX 10 10 0 -2
BITMAP
0000
7700
2200
2200
3E00
2200
2200
7700
0000
0000
ENDCHAR

STARTCHAR C2628
ENCODING 9768
SWIDTH 1000 0
DWIDTH 10 0
BBX 10 10 0 -2
BITMAP
0000
1C00
2200
5500
5D00
5500
2200
1C00
0000
0000
ENDCHAR

STARTCHAR C2629
ENCODING 9769
SWIDTH 1000 0
DWIDTH 10 0
BBX 10 10 0 -2
BITMAP
0000
1C00
0800
0800
0800
0800
0800
1C00
0000
0000
ENDCHAR

STARTCHAR C262a
ENCODING 9770
SWIDTH 1000 0
DWIDTH 10 0
BBX 10 10 0 -2
BITMAP
0000
7600
2400
2800
3800
2400
2200
7300
0000
0000
ENDCHAR

STARTCHAR C262b
ENCODING 9771
SWIDTH 1000 0
DWIDTH 10 0
BBX 10 10 0 -2
BITMAP
0000
1800
1800
2400
2400
4200
4200
E700
0000
0000
ENDCHAR

STARTCHAR C262c
ENCODING 9772
SWIDTH 1000 0
DWIDTH 10 0
BBX 10 10 0 -2
BITMAP
0000
E380
6300
5500
5500
5500
4900
EB80
0000
0000
ENDCHAR

STARTCHAR C262d
ENCODING 9773
SWIDTH 1000 0
DWIDTH 10 0
BBX 10 10 0 -2
BITMAP
0000
6700
3200
3200
2A00
2600
2600
7200
0000
0000
ENDCHAR

STARTCHAR C262e
ENCODING 9774
SWIDTH 1000 0
DWIDTH 10 0
BBX 10 10 0 -2
BITMAP
0000
7F00
4100
2200
3E00
2200
4100
7F00
0000
0000
ENDCHAR

STARTCHAR C262f
ENCODING 9775
SWIDTH 1000 0
DWIDTH 10 0
BBX 10 10 0 -2
BITMAP
0000
1C00
2200
4100
4100
4100
2200
1C00
0000
0000
ENDCHAR

STARTCHAR C2630
ENCODING 9776
SWIDTH 1000 0
DWIDTH 10 0
BBX 10 10 0 -2
BITMAP
0000
7F00
2200
2200
2200
2200
2200
7700
0000
0000
ENDCHAR

STARTCHAR C2631
ENCODING 9777
SWIDTH 1000 0
DWIDTH 10 0
BBX 10 10 0 -2
BITMAP
0000
7C00
2200
2200
3C00
2000
2000
7000
0000
0000
ENDCHAR

STARTCHAR C2632
ENCODING 9778
SWIDTH 1000 0
DWIDTH 10 0
BBX 10 10 0 -2
BITMAP
0400
7E00
2200
1000
0800
1000
2200
7E00
0400
0000
ENDCHAR

STARTCHAR C2633
ENCODING 9779
SWIDTH 1000 0
DWIDTH 10 0
BBX 10 10 0 -2
BITMAP
0000
7F00
4900
0800
0800
0800
0800
1C00
0000
0000
ENDCHAR

STARTCHAR C2634
ENCODING 9780
SWIDTH 1000 0
DWIDTH 10 0
BBX 10 10 0 -2
BITMAP
0000
2200
5500
0800
0800
0800
0800
1C00
0000
0000
ENDCHAR

STARTCHAR C2635
ENCODING 9781
SWIDTH 1000 0
DWIDTH 10 0
BBX 10 10 0 -2
BITMAP
0000
1C00
0800
3E00
4900
3E00
0800
1C00
0000
0000
ENDCHAR

STARTCHAR C2636
ENCODING 9782
SWIDTH 1000 0
DWIDTH 10 0
BBX 10 10 0 -2
BITMAP
0000
7700
2200
1400
0800
1400
2200
7700
0000
0000
ENDCHAR

STARTCHAR C2637
ENCODING 9783
SWIDTH 1000 0
DWIDTH 10 0
BBX 10 10 0 -2
BITMAP
0000
1C00
C980
4900
4900
3E00
0800
1C00
0000
0000
ENDCHAR

STARTCHAR C2638
ENCODING 9784
SWIDTH 1000 0
DWIDTH 10 0
BBX 10 10 0 -2
BITMAP
0000
3E00
4100
4100
4100
3600
5500
7700
0000
0000
ENDCHAR

STARTCHAR C2639
ENCODING 9785
SWIDTH 1000 0
DWIDTH 10 0
BBX 10 10 0 -2
BITMAP
0000
0000
0000
0000
0000
0000
0000
0000
0000
0000
ENDCHAR

STARTCHAR C263a
ENCODING 9786
SWIDTH 1000 0
DWIDTH 10 0
BBX 10 10 0 -2
BITMAP
0000
0000
0000
0000
0000
0000
0000
0000
0000
0000
ENDCHAR

STARTCHAR C263b
ENCODING 9787
SWIDTH 1000 0
DWIDTH 10 0
BBX 10 10 0 -2
BITMAP
0000
0000
0000
0000
0000
0000
0000
0000
0000
0000
ENDCHAR

STARTCHAR C263c
ENCODING 9788
SWIDTH 1000 0
DWIDTH 10 0
BBX 10 10 0 -2
BITMAP
0000
0000
0000
0000
0000
0000
0000
0000
0000
0000
ENDCHAR

STARTCHAR C263d
ENCODING 9789
SWIDTH 1000 0
DWIDTH 10 0
BBX 10 10 0 -2
BITMAP
0000
0000
0000
0000
0000
0000
0000
0000
0000
0000
ENDCHAR

STARTCHAR C263e
ENCODING 9790
SWIDTH 1000 0
DWIDTH 10 0
BBX 10 10 0 -2
BITMAP
0000
0000
0000
0000
0000
0000
0000
0000
0000
0000
ENDCHAR

STARTCHAR C263f
ENCODING 9791
SWIDTH 1000 0
DWIDTH 10 0
BBX 10 10 0 -2
BITMAP
0000
0000
0000
0000
0000
0000
0000
0000
0000
0000
ENDCHAR

STARTCHAR C2640
ENCODING 9792
SWIDTH 1000 0
DWIDTH 10 0
BBX 10 10 0 -2
BITMAP
0000
0000
0000
0000
0000
0000
0000
0000
0000
0000
ENDCHAR

STARTCHAR C2641
ENCODING 9793
SWIDTH 1000 0
DWIDTH 10 0
BBX 10 10 0 -2
BITMAP
0000
0000
0000
1A00
2400
2400
2400
1A00
0000
0000
ENDCHAR

STARTCHAR C2642
ENCODING 9794
SWIDTH 1000 0
DWIDTH 10 0
BBX 10 10 0 -2
BITMAP
0000
0C00
1200
1200
2C00
2200
3200
4C00
4000
0000
ENDCHAR

STARTCHAR C2643
ENCODING 9795
SWIDTH 1000 0
DWIDTH 10 0
BBX 10 10 0 -2
BITMAP
0000
0000
0000
0000
3300
0C00
0800
1000
1000
0000
ENDCHAR

STARTCHAR C2644
ENCODING 9796
SWIDTH 1000 0
DWIDTH 10 0
BBX 10 10 0 -2
BITMAP
0000
1C00
1200
0800
0400
2400
2400
1800
0000
0000
ENDCHAR

STARTCHAR C2645
ENCODING 9797
SWIDTH 1000 0
DWIDTH 10 0
BBX 10 10 0 -2
BITMAP
0000
0000
0000
0E00
1000
1C00
2000
1E00
0000
0000
ENDCHAR

STARTCHAR C2646
ENCODING 9798
SWIDTH 1000 0
DWIDTH 10 0
BBX 10 10 0 -2
BITMAP
0000
0800
1200
0C00
0800
1000
1C00
0200
0C00
0000
ENDCHAR

STARTCHAR C2647
ENCODING 9799
SWIDTH 1000 0
DWIDTH 10 0
BBX 10 10 0 -2
BITMAP
0000
0000
0000
3400
1A00
1200
2200
2400
0400
0000
ENDCHAR

STARTCHAR C2648
ENCODING 9800
SWIDTH 1000 0
DWIDTH 10 0
BBX 10 10 0 -2
BITMAP
0000
0400
0A00
1200
1C00
2400
2800
1000
0000
0000
ENDCHAR

STARTCHAR C2649
ENCODING 9801
SWIDTH 1000 0
DWIDTH 10 0
BBX 10 10 0 -2
BITMAP
0000
0000
0000
0800
0800
1000
1400
1800
0000
0000
ENDCHAR

STARTCHAR C264a
ENCODING 9802
SWIDTH 1000 0
DWIDTH 10 0
BBX 10 10 0 -2
BITMAP
0000
0000
0000
2400
2A00
3000
4800
4C00
0000
0000
ENDCHAR

STARTCHAR C264b
ENCODING 9803
SWIDTH 1000 0
DWIDTH 10 0
BBX 10 10 0 -2
BITMAP
0000
3000
0800
0800
1800
2800
2800
4600
0000
0000
ENDCHAR

STARTCHAR C264c
ENCODING 9804
SWIDTH 1000 0
DWIDTH 10 0
BBX 10 10 0 -2
BITMAP
0000
0000
0000
1200
1200
2400
2400
5B00
4000
0000
ENDCHAR

STARTCHAR C264d
ENCODING 9805
SWIDTH 1000 0
DWIDTH 10 0
BBX 10 10 0 -2
BITMAP
0000
0000
0000
3200
1200
1200
1400
1800
0000
0000
ENDCHAR

STARTCHAR C264e
ENCODING 9806
SWIDTH 1000 0
DWIDTH 10 0
BBX 10 10 0 -2
BITMAP
0800
0E00
1000
0E00
1000
2000
1C00
0200
0C00
0000
ENDCHAR

STARTCHAR C264f
ENCODING 9807
SWIDTH 1000 0
DWIDTH 10 0
BBX 10 10 0 -2
BITMAP
0000
0000
0000
0C00
1200
2200
2400
1800
0000
0000
ENDCHAR

STARTCHAR C2650
ENCODING 9808
SWIDTH 1000 0
DWIDTH 10 0
BBX 10 10 0 -2
BITMAP
0000
0000
0000
3F00
1400
2400
2900
4E00
0000
0000
ENDCHAR

STARTCHAR C2651
ENCODING 9809
SWIDTH 1000 0
DWIDTH 10 0
BBX 10 10 0 -2
BITMAP
0000
0000
0000
0C00
1200
3200
2C00
4000
4000
0000
ENDCHAR

STARTCHAR C2652
ENCODING 9810
SWIDTH 1000 0
DWIDTH 10 0
BBX 10 10 0 -2
BITMAP
0000
0000
0000
1E00
2400
4400
4800
3000
0000
0000
ENDCHAR

STARTCHAR C2653
ENCODING 9811
SWIDTH 1000 0
DWIDTH 10 0
BBX 10 10 0 -2
BITMAP
0000
0000
0000
3E00
0800
0800
1200
1C00
0000
0000
ENDCHAR

STARTCHAR C2654
ENCODING 9812
SWIDTH 1000 0
DWIDTH 10 0
BBX 10 10 0 -2
BITMAP
0000
0000
0000
1200
1200
2200
2400
1800
0000
0000
ENDCHAR

STARTCHAR C2655
ENCODING 9813
SWIDTH 1000 0
DWIDTH 10 0
BBX 10 10 0 -2
BITMAP
0000
0200
0400
3C00
4A00
5200
3C00
2000
4000
0000
ENDCHAR

STARTCHAR C2656
ENCODING 9814
SWIDTH 1000 0
DWIDTH 10 0
BBX 10 10 0 -2
BITMAP
0000
0000
0000
3100
0A00
0C00
1800
2800
4600
0000
ENDCHAR

STARTCHAR C2657
ENCODING 9815
SWIDTH 1000 0
DWIDTH 10 0
BBX 10 10 0 -2
BITMAP
0000
0400
0400
6500
2900
4900
3E00
1000
1000
0000
ENDCHAR

STARTCHAR C2658
ENCODING 9816
SWIDTH 1000 0
DWIDTH 10 0
BBX 10 10 0 -2
BITMAP
0000
0000
0000
0000
2A00
2A00
2A00
1400
0000
0000
ENDCHAR

STARTCHAR C2659
ENCODING 9817
SWIDTH 1000 0
DWIDTH 10 0
BBX 10 10 0 -2
BITMAP
0000
0000
0000
0000
0000
0000
0000
0000
0000
0000
ENDCHAR

STARTCHAR C265a
ENCODING 9818
SWIDTH 1000 0
DWIDTH 10 0
BBX 10 10 0 -2
BITMAP
0000
0000
0000
0000
0000
0000
0000
0000
0000
0000
ENDCHAR

STARTCHAR C265b
ENCODING 9819
SWIDTH 1000 0
DWIDTH 10 0
BBX 10 10 0 -2
BITMAP
0000
0000
0000
0000
0000
0000
0000
0000
0000
0000
ENDCHAR

STARTCHAR C265c
ENCODING 9820
SWIDTH 1000 0
DWIDTH 10 0
BBX 10 10 0 -2
BITMAP
0000
0000
0000
0000
0000
0000
0000
0000
0000
0000
ENDCHAR

STARTCHAR C265d
ENCODING 9821
SWIDTH 1000 0
DWIDTH 10 0
BBX 10 10 0 -2
BITMAP
0000
0000
0000
0000
0000
0000
0000
0000
0000
0000
ENDCHAR

STARTCHAR C265e
ENCODING 9822
SWIDTH 1000 0
DWIDTH 10 0
BBX 10 10 0 -2
BITMAP
0000
0000
0000
0000
0000
0000
0000
0000
0000
0000
ENDCHAR

STARTCHAR C265f
ENCODING 9823
SWIDTH 1000 0
DWIDTH 10 0
BBX 10 10 0 -2
BITMAP
0000
0000
0000
0000
0000
0000
0000
0000
0000
0000
ENDCHAR

STARTCHAR C2660
ENCODING 9824
SWIDTH 1000 0
DWIDTH 10 0
BBX 10 10 0 -2
BITMAP
0000
0000
0000
0000
0000
0000
0000
0000
0000
0000
ENDCHAR

STARTCHAR C2661
ENCODING 9825
SWIDTH 1000 0
DWIDTH 10 0
BBX 10 10 0 -2
BITMAP
0000
0000
0000
0000
0000
0000
0000
0000
0000
0000
ENDCHAR

STARTCHAR C2662
ENCODING 9826
SWIDTH 1000 0
DWIDTH 10 0
BBX 10 10 0 -2
BITMAP
0000
0000
0000
0000
0000
0000
0000
0000
0000
0000
ENDCHAR

STARTCHAR C2663
ENCODING 9827
SWIDTH 1000 0
DWIDTH 10 0
BBX 10 10 0 -2
BITMAP
0000
0000
0000
0000
0000
0000
0000
0000
0000
0000
ENDCHAR

STARTCHAR C2664
ENCODING 9828
SWIDTH 1000 0
DWIDTH 10 0
BBX 10 10 0 -2
BITMAP
0000
0000
0000
0000
0000
0000
0000
0000
0000
0000
ENDCHAR

STARTCHAR C2665
ENCODING 9829
SWIDTH 1000 0
DWIDTH 10 0
BBX 10 10 0 -2
BITMAP
0000
0000
0000
0000
0000
0000
0000
0000
0000
0000
ENDCHAR

STARTCHAR C2666
ENCODING 9830
SWIDTH 1000 0
DWIDTH 10 0
BBX 10 10 0 -2
BITMAP
0000
0000
0000
0000
0000
0000
0000
0000
0000
0000
ENDCHAR

STARTCHAR C2667
ENCODING 9831
SWIDTH 1000 0
DWIDTH 10 0
BBX 10 10 0 -2
BITMAP
0000
0000
0000
0000
0000
0000
0000
0000
0000
0000
ENDCHAR

STARTCHAR C2668
ENCODING 9832
SWIDTH 1000 0
DWIDTH 10 0
BBX 10 10 0 -2
BITMAP
0000
0000
0000
0000
0000
0000
0000
0000
0000
0000
ENDCHAR

STARTCHAR C2669
ENCODING 9833
SWIDTH 1000 0
DWIDTH 10 0
BBX 10 10 0 -2
BITMAP
0000
0000
0000
0000
0000
0000
0000
0000
0000
0000
ENDCHAR

STARTCHAR C266a
ENCODING 9834
SWIDTH 1000 0
DWIDTH 10 0
BBX 10 10 0 -2
BITMAP
0000
0000
0000
0000
0000
0000
0000
0000
0000
0000
ENDCHAR

STARTCHAR C266b
ENCODING 9835
SWIDTH 1000 0
DWIDTH 10 0
BBX 10 10 0 -2
BITMAP
0000
0000
0000
0000
0000
0000
0000
0000
0000
0000
ENDCHAR

STARTCHAR C266c
ENCODING 9836
SWIDTH 1000 0
DWIDTH 10 0
BBX 10 10 0 -2
BITMAP
0000
0000
0000
0000
0000
0000
0000
0000
0000
0000
ENDCHAR

STARTCHAR C266d
ENCODING 9837
SWIDTH 1000 0
DWIDTH 10 0
BBX 10 10 0 -2
BITMAP
0000
0000
0000
0000
0000
0000
0000
0000
0000
0000
ENDCHAR

STARTCHAR C266e
ENCODING 9838
SWIDTH 1000 0
DWIDTH 10 0
BBX 10 10 0 -2
BITMAP
0000
0000
0000
0000
0000
0000
0000
0000
0000
0000
ENDCHAR

STARTCHAR C266f
ENCODING 9839
SWIDTH 1000 0
DWIDTH 10 0
BBX 10 10 0 -2
BITMAP
0000
0000
0000
0000
0000
0000
0000
0000
0000
0000
ENDCHAR

STARTCHAR C2670
ENCODING 9840
SWIDTH 1000 0
DWIDTH 10 0
BBX 10 10 0 -2
BITMAP
0000
0000
0000
0000
0000
0000
0000
0000
0000
0000
ENDCHAR

STARTCHAR C2671
ENCODING 9841
SWIDTH 1000 0
DWIDTH 10 0
BBX 10 10 0 -2
BITMAP
0000
0000
0000
0000
0000
0000
0000
0000
0000
0000
ENDCHAR

STARTCHAR C2672
ENCODING 9842
SWIDTH 1000 0
DWIDTH 10 0
BBX 10 10 0 -2
BITMAP
0000
0000
0000
0000
0000
0000
0000
0000
0000
0000
ENDCHAR

STARTCHAR C2673
ENCODING 9843
SWIDTH 1000 0
DWIDTH 10 0
BBX 10 10 0 -2
BITMAP
0000
0000
0000
0000
0000
0000
0000
0000
0000
0000
ENDCHAR

STARTCHAR C2674
ENCODING 9844
SWIDTH 1000 0
DWIDTH 10 0
BBX 10 10 0 -2
BITMAP
0000
0000
0000
0000
0000
0000
0000
0000
0000
0000
ENDCHAR

STARTCHAR C2675
ENCODING 9845
SWIDTH 1000 0
DWIDTH 10 0
BBX 10 10 0 -2
BITMAP
0000
0000
0000
0000
0000
0000
0000
0000
0000
0000
ENDCHAR

STARTCHAR C2676
ENCODING 9846
SWIDTH 1000 0
DWIDTH 10 0
BBX 10 10 0 -2
BITMAP
0000
0000
0000
0000
0000
0000
0000
0000
0000
0000
ENDCHAR

STARTCHAR C2677
ENCODING 9847
SWIDTH 1000 0
DWIDTH 10 0
BBX 10 10 0 -2
BITMAP
0000
0000
0000
0000
0000
0000
0000
0000
0000
0000
ENDCHAR

STARTCHAR C2678
ENCODING 9848
SWIDTH 1000 0
DWIDTH 10 0
BBX 10 10 0 -2
BITMAP
0000
0000
0000
0000
0000
0000
0000
0000
0000
0000
ENDCHAR

STARTCHAR C2679
ENCODING 9849
SWIDTH 1000 0
DWIDTH 10 0
BBX 10 10 0 -2
BITMAP
0000
0000
0000
0000
0000
0000
0000
0000
0000
0000
ENDCHAR

STARTCHAR C267a
ENCODING 9850
SWIDTH 1000 0
DWIDTH 10 0
BBX 10 10 0 -2
BITMAP
0000
0000
0000
0000
0000
0000
0000
0000
0000
0000
ENDCHAR

STARTCHAR C267b
ENCODING 9851
SWIDTH 1000 0
DWIDTH 10 0
BBX 10 10 0 -2
BITMAP
0000
0000
0000
0000
0000
0000
0000
0000
0000
0000
ENDCHAR

STARTCHAR C267c
ENCODING 9852
SWIDTH 1000 0
DWIDTH 10 0
BBX 10 10 0 -2
BITMAP
0000
0000
0000
0000
0000
0000
0000
0000
0000
0000
ENDCHAR

STARTCHAR C267d
ENCODING 9853
SWIDTH 1000 0
DWIDTH 10 0
BBX 10 10 0 -2
BITMAP
0000
0000
0000
0000
0000
0000
0000
0000
0000
0000
ENDCHAR

STARTCHAR C267e
ENCODING 9854
SWIDTH 1000 0
DWIDTH 10 0
BBX 10 10 0 -2
BITMAP
0000
0000
0000
0000
0000
0000
0000
0000
0000
0000
ENDCHAR

STARTCHAR C2721
ENCODING 10017
SWIDTH 1000 0
DWIDTH 10 0
BBX 10 10 0 -2
BITMAP
0000
1800
1800
2400
2400
7E00
4200
E700
0000
0000
ENDCHAR

STARTCHAR C2722
ENCODING 10018
SWIDTH 1000 0
DWIDTH 10 0
BBX 10 10 0 -2
BITMAP
0000
7E00
2200
2000
3C00
2200
2200
7C00
0000
0000
ENDCHAR

STARTCHAR C2723
ENCODING 10019
SWIDTH 1000 0
DWIDTH 10 0
BBX 10 10 0 -2
BITMAP
0000
7C00
2200
2200
3C00
2200
2200
7C00
0000
0000
ENDCHAR

STARTCHAR C2724
ENCODING 10020
SWIDTH 1000 0
DWIDTH 10 0
BBX 10 10 0 -2
BITMAP
0000
3E00
1200
1000
1000
1000
1000
3800
0000
0000
ENDCHAR

STARTCHAR C2725
ENCODING 10021
SWIDTH 1000 0
DWIDTH 10 0
BBX 10 10 0 -2
BITMAP
0000
3F00
1200
1200
1200
1200
2200
3E00
4100
0000
ENDCHAR

STARTCHAR C2726
ENCODING 10022
SWIDTH 1000 0
DWIDTH 10 0
BBX 10 10 0 -2
BITMAP
0000
7E00
2200
2800
3800
2800
2200
7E00
0000
0000
ENDCHAR

STARTCHAR C2727
ENCODING 10023
SWIDTH 1000 0
DWIDTH 10 0
BBX 10 10 0 -2
BITMAP
1400
0000
7E00
2200
3800
2000
2200
7E00
0000
0000
ENDCHAR

STARTCHAR C2728
ENCODING 10024
SWIDTH 1000 0
DWIDTH 10 0
BBX 10 10 0 -2
BITMAP
0000
DD80
4900
4900
3E00
2A00
4900
DD80
0000
0000
ENDCHAR

STARTCHAR C2729
ENCODING 10025
SWIDTH 1000 0
DWIDTH 10 0
BBX 10 10 0 -2
BITMAP
0000
3C00
2200
0200
1C00
0200
2200
3C00
0000
0000
ENDCHAR

STARTCHAR C272a
ENCODING 10026
SWIDTH 1000 0
DWIDTH 10 0
BBX 10 10 0 -2
BITMAP
0000
7700
2200
2600
2A00
3200
2200
7700
0000
0000
ENDCHAR

STARTCHAR C272b
ENCODING 10027
SWIDTH 1000 0
DWIDTH 10 0
BBX 10 10 0 -2
BITMAP
1400
0800
7700
2600
2A00
3200
2200
7700
0000
0000
ENDCHAR

STARTCHAR C272c
ENCODING 10028
SWIDTH 1000 0
DWIDTH 10 0
BBX 10 10 0 -2
BITMAP
0000
7300
2500
2800
3800
2400
2200
7700
0000
0000
ENDCHAR

STARTCHAR C272d
ENCODING 10029
SWIDTH 1000 0
DWIDTH 10 0
BBX 10 10 0 -2
BITMAP
0000
1E00
0A00
0A00
0A00
1200
5200
6700
0000
0000
ENDCHAR

STARTCHAR C272e
ENCODING 10030
SWIDTH 1000 0
DWIDTH 10 0
BBX 10 10 0 -2
BITMAP
0000
6300
2200
3600
5500
4900
4900
E380
0000
0000
ENDCHAR

STARTCHAR C272f
ENCODING 10031
SWIDTH 1000 0
DWIDTH 10 0
BBX 10 10 0 -2
BITMAP
0000
7700
2200
2200
3E00
2200
2200
7700
0000
0000
ENDCHAR

STARTCHAR C2730
ENCODING 10032
SWIDTH 1000 0
DWIDTH 10 0
BBX 10 10 0 -2
BITMAP
0000
1C00
2200
4100
4100
4100
2200
1C00
0000
0000
ENDCHAR

STARTCHAR C2731
ENCODING 10033
SWIDTH 1000 0
DWIDTH 10 0
BBX 10 10 0 -2
BITMAP
0000
7F00
2200
2200
2200
2200
2200
7700
0000
0000
ENDCHAR

STARTCHAR C2732
ENCODING 10034
SWIDTH 1000 0
DWIDTH 10 0
BBX 10 10 0 -2
BITMAP
0000
7C00
2200
2200
3C00
2000
2000
7000
0000
0000
ENDCHAR

STARTCHAR C2733
ENCODING 10035
SWIDTH 1000 0
DWIDTH 10 0
BBX 10 10 0 -2
BITMAP
0000
1E00
2200
4000
4000
4000
2200
1E00
0000
0000
ENDCHAR

STARTCHAR C2734
ENCODING 10036
SWIDTH 1000 0
DWIDTH 10 0
BBX 10 10 0 -2
BITMAP
0000
7F00
4900
0800
0800
0800
0800
1C00
0000
0000
ENDCHAR

STARTCHAR C2735
ENCODING 10037
SWIDTH 1000 0
DWIDTH 10 0
BBX 10 10 0 -2
BITMAP
0000
7700
2200
1200
1400
0800
4800
7000
0000
0000
ENDCHAR

STARTCHAR C2736
ENCODING 10038
SWIDTH 1000 0
DWIDTH 10 0
BBX 10 10 0 -2
BITMAP
0000
1C00
0800
3E00
4900
3E00
0800
1C00
0000
0000
ENDCHAR

STARTCHAR C2737
ENCODING 10039
SWIDTH 1000 0
DWIDTH 10 0
BBX 10 10 0 -2
BITMAP
0000
7700
2200
1400
0800
1400
2200
7700
0000
0000
ENDCHAR

STARTCHAR C2738
ENCODING 10040
SWIDTH 1000 0
DWIDTH 10 0
BBX 10 10 0 -2
BITMAP
0000
7700
2200
2200
2200
2200
2200
7F00
0080
0000
ENDCHAR

STARTCHAR C2739
ENCODING 10041
SWIDTH 1000 0
DWIDTH 10 0
BBX 10 10 0 -2
BITMAP
0000
7700
2200
2200
1E00
0200
0200
0700
0000
0000
ENDCHAR

STARTCHAR C273a
ENCODING 10042
SWIDTH 1000 0
DWIDTH 10 0
BBX 10 10 0 -2
BITMAP
0000
DD80
4900
4900
4900
4900
4900
FF80
0000
0000
ENDCHAR

STARTCHAR C273b
ENCODING 10043
SWIDTH 1000 0
DWIDTH 10 0
BBX 10 10 0 -2
BITMAP
0000
DD80
4900
4900
4900
4900
4900
FF80
0080
0000
ENDCHAR

STARTCHAR C273c
ENCODING 10044
SWIDTH 1000 0
DWIDTH 10 0
BBX 10 10 0 -2
BITMAP
0000
7000
2000
2000
3C00
2200
2200
7C00
0000
0000
ENDCHAR

STARTCHAR C273d
ENCODING 10045
SWIDTH 1000 0
DWIDTH 10 0
BBX 10 10 0 -2
BITMAP
0000
E700
4200
4200
7200
4A00
4A00
F700
0000
0000
ENDCHAR

STARTCHAR C273e
ENCODING 10046
SWIDTH 1000 0
DWIDTH 10 0
BBX 10 10 0 -2
BITMAP
0000
7000
2000
2000
3C00
2200
2200
7C00
0000
0000
ENDCHAR

STARTCHAR C273f
ENCODING 10047
SWIDTH 1000 0
DWIDTH 10 0
BBX 10 10 0 -2
BITMAP
0000
3C00
2200
0A00
1600
0200
2200
3C00
0000
0000
ENDCHAR

STARTCHAR C2740
ENCODING 10048
SWIDTH 1000 0
DWIDTH 10 0
BBX 10 10 0 -2
BITMAP
0000
E600
4900
4900
7900
4900
4900
E600
0000
0000
ENDCHAR

STARTCHAR C2741
ENCODING 10049
SWIDTH 1000 0
DWIDTH 10 0
BBX 10 10 0 -2
BITMAP
0000
1F00
2200
2200
1E00
1200
1200
6700
0000
0000
ENDCHAR

STARTCHAR C2742
ENCODING 10050
SWIDTH 1000 0
DWIDTH 10 0
BBX 10 10 0 -2
BITMAP
0000
0000
0000
0000
0000
0000
0000
0000
0000
0000
ENDCHAR

STARTCHAR C2743
ENCODING 10051
SWIDTH 1000 0
DWIDTH 10 0
BBX 10 10 0 -2
BITMAP
0000
0000
0000
0000
0000
0000
0000
0000
0000
0000
ENDCHAR

STARTCHAR C2744
ENCODING 10052
SWIDTH 1000 0
DWIDTH 10 0
BBX 10 10 0 -2
BITMAP
0000
0000
0000
0000
0000
0000
0000
0000
0000
0000
ENDCHAR

STARTCHAR C2745
ENCODING 10053
SWIDTH 1000 0
DWIDTH 10 0
BBX 10 10 0 -2
BITMAP
0000
0000
0000
0000
0000
0000
0000
0000
0000
0000
ENDCHAR

STARTCHAR C2746
ENCODING 10054
SWIDTH 1000 0
DWIDTH 10 0
BBX 10 10 0 -2
BITMAP
0000
0000
0000
0000
0000
0000
0000
0000
0000
0000
ENDCHAR

STARTCHAR C2747
ENCODING 10055
SWIDTH 1000 0
DWIDTH 10 0
BBX 10 10 0 -2
BITMAP
0000
0000
0000
0000
0000
0000
0000
0000
0000
0000
ENDCHAR

STARTCHAR C2748
ENCODING 10056
SWIDTH 1000 0
DWIDTH 10 0
BBX 10 10 0 -2
BITMAP
0000
0000
0000
0000
0000
0000
0000
0000
0000
0000
ENDCHAR

STARTCHAR C2749
ENCODING 10057
SWIDTH 1000 0
DWIDTH 10 0
BBX 10 10 0 -2
BITMAP
0000
0000
0000
0000
0000
0000
0000
0000
0000
0000
ENDCHAR

STARTCHAR C274a
ENCODING 10058
SWIDTH 1000 0
DWIDTH 10 0
BBX 10 10 0 -2
BITMAP
0000
0000
0000
0000
0000
0000
0000
0000
0000
0000
ENDCHAR

STARTCHAR C274b
ENCODING 10059
SWIDTH 1000 0
DWIDTH 10 0
BBX 10 10 0 -2
BITMAP
0000
0000
0000
0000
0000
0000
0000
0000
0000
0000
ENDCHAR

STARTCHAR C274c
ENCODING 10060
SWIDTH 1000 0
DWIDTH 10 0
BBX 10 10 0 -2
BITMAP
0000
0000
0000
0000
0000
0000
0000
0000
0000
0000
ENDCHAR

STARTCHAR C274d
ENCODING 10061
SWIDTH 1000 0
DWIDTH 10 0
BBX 10 10 0 -2
BITMAP
0000
0000
0000
0000
0000
0000
0000
0000
0000
0000
ENDCHAR

STARTCHAR C274e
ENCODING 10062
SWIDTH 1000 0
DWIDTH 10 0
BBX 10 10 0 -2
BITMAP
0000
0000
0000
0000
0000
0000
0000
0000
0000
0000
ENDCHAR

STARTCHAR C274f
ENCODING 10063
SWIDTH 1000 0
DWIDTH 10 0
BBX 10 10 0 -2
BITMAP
0000
0000
0000
0000
0000
0000
0000
0000
0000
0000
ENDCHAR

STARTCHAR C2750
ENCODING 10064
SWIDTH 1000 0
DWIDTH 10 0
BBX 10 10 0 -2
BITMAP
0000
0000
0000
0000
0000
0000
0000
0000
0000
0000
ENDCHAR

STARTCHAR C2751
ENCODING 10065
SWIDTH 1000 0
DWIDTH 10 0
BBX 10 10 0 -2
BITMAP
0000
0000
0000
3800
0400
3C00
4400
3C00
0000
0000
ENDCHAR

STARTCHAR C2752
ENCODING 10066
SWIDTH 1000 0
DWIDTH 10 0
BBX 10 10 0 -2
BITMAP
0200
1C00
2000
3C00
2200
2200
2200
1C00
0000
0000
ENDCHAR

STARTCHAR C2753
ENCODING 10067
SWIDTH 1000 0
DWIDTH 10 0
BBX 10 10 0 -2
BITMAP
0000
0000
0000
7800
2400
3800
2400
7800
0000
0000
ENDCHAR

STARTCHAR C2754
ENCODING 10068
SWIDTH 1000 0
DWIDTH 10 0
BBX 10 10 0 -2
BITMAP
0000
0000
0000
3E00
1200
1000
1000
3800
0000
0000
ENDCHAR

STARTCHAR C2755
ENCODING 10069
SWIDTH 1000 0
DWIDTH 10 0
BBX 10 10 0 -2
BITMAP
0000
0000
0000
3E00
1400
1400
2400
7E00
4200
0000
ENDCHAR

STARTCHAR C2756
ENCODING 10070
SWIDTH 1000 0
DWIDTH 10 0
BBX 10 10 0 -2
BITMAP
0000
0000
0000
1C00
2200
3E00
2000
1C00
0000
0000
ENDCHAR

STARTCHAR C2757
ENCODING 10071
SWIDTH 1000 0
DWIDTH 10 0
BBX 10 10 0 -2
BITMAP
1400
0000
0000
1C00
2200
3E00
2000
1C00
0000
0000
ENDCHAR

STARTCHAR C2758
ENCODING 10072
SWIDTH 1000 0
DWIDTH 10 0
BBX 10 10 0 -2
BITMAP
0000
0000
0000
D980
4900
3E00
4900
DD80
0000
0000
ENDCHAR

STARTCHAR C2759
ENCODING 10073
SWIDTH 1000 0
DWIDTH 10 0
BBX 10 10 0 -2
BITMAP
0000
0000
0000
3C00
2200
0C00
2200
3C00
0000
0000
ENDCHAR

STARTCHAR C275a
ENCODING 10074
SWIDTH 1000 0
DWIDTH 10 0
BBX 10 10 0 -2
BITMAP
0000
0000
0000
7700
2600
2A00
3200
7700
0000
0000
ENDCHAR

STARTCHAR C275b
ENCODING 10075
SWIDTH 1000 0
DWIDTH 10 0
BBX 10 10 0 -2
BITMAP
1400
0800
0000
7700
2600
2A00
3200
7700
0000
0000
ENDCHAR

STARTCHAR C275c
ENCODING 10076
SWIDTH 1000 0
DWIDTH 10 0
BBX 10 10 0 -2
BITMAP
0000
0000
0000
7600
2A00
3800
2400
7600
0000
0000
ENDCHAR

STARTCHAR C275d
ENCODING 10077
SWIDTH 1000 0
DWIDTH 10 0
BBX 10 10 0 -2
BITMAP
0000
0000
0000
3E00
1400
1400
5400
6E00
0000
0000
ENDCHAR

STARTCHAR C275e
ENCODING 10078
SWIDTH 1000 0
DWIDTH 10 0
BBX 10 10 0 -2
BITMAP
0000
0000
0000
E380
5500
5500
4900
EB80
0000
0000
ENDCHAR

STARTCHAR C275f
ENCODING 10079
SWIDTH 1000 0
DWIDTH 10 0
BBX 10 10 0 -2
BITMAP
0000
0000
0000
7700
2200
3E00
2200
7700
0000
0000
ENDCHAR

STARTCHAR C2760
ENCODING 10080
SWIDTH 1000 0
DWIDTH 10 0
BBX 10 10 0 -2
BITMAP
0000
0000
0000
1C00
2200
2200
2200
1C00
0000
0000
ENDCHAR

STARTCHAR C2761
ENCODING 10081
SWIDTH 1000 0
DWIDTH 10 0
BBX 10 10 0 -2
BITMAP
0000
0000
0000
7F00
2200
2200
2200
7700
0000
0000
ENDCHAR

STARTCHAR C2762
ENCODING 10082
SWIDTH 1000 0
DWIDTH 10 0
BBX 10 10 0 -2
BITMAP
0000
0000
0000
3C00
1200
1200
1C00
1000
3800
0000
ENDCHAR

STARTCHAR C2763
ENCODING 10083
SWIDTH 1000 0
DWIDTH 10 0
BBX 10 10 0 -2
BITMAP
0000
0000
0000
1C00
2400
2000
2400
1C00
0000
0000
ENDCHAR

STARTCHAR C2764
ENCODING 10084
SWIDTH 1000 0
DWIDTH 10 0
BBX 10 10 0 -2
BITMAP
0000
0000
0000
3E00
2A00
0800
0800
1C00
0000
0000
ENDCHAR

STARTCHAR C2765
ENCODING 10085
SWIDTH 1000 0
DWIDTH 10 0
BBX 10 10 0 -2
BITMAP
0000
0000
0000
7700
2200
1400
0800
4800
7000
0000
ENDCHAR

STARTCHAR C2766
ENCODING 10086
SWIDTH 1000 0
DWIDTH 10 0
BBX 10 10 0 -2
BITMAP
0000
1800
0800
2A00
5D00
5D00
2A00
0800
1C00
0000
ENDCHAR

STARTCHAR C2767
ENCODING 10087
SWIDTH 1000 0
DWIDTH 10 0
BBX 10 10 0 -2
BITMAP
0000
0000
0000
3600
1400
0800
1400
3600
0000
0000
ENDCHAR

STARTCHAR C2768
ENCODING 10088
SWIDTH 1000 0
DWIDTH 10 0
BBX 10 10 0 -2
BITMAP
0000
0000
0000
7700
2200
2200
2200
7F00
0000
0000
ENDCHAR

STARTCHAR C2769
ENCODING 10089
SWIDTH 1000 0
DWIDTH 10 0
BBX 10 10 0 -2
BITMAP
0000
0000
0000
7600
2400
2400
1C00
0400
0E00
0000
ENDCHAR

STARTCHAR C276a
ENCODING 10090
SWIDTH 1000 0
DWIDTH 10 0
BBX 10 10 0 -2
BITMAP
0000
0000
0000
6B00
2A00
2A00
2A00
7F00
0000
0000
ENDCHAR

STARTCHAR C276b
ENCODING 10091
SWIDTH 1000 0
DWIDTH 10 0
BBX 10 10 0 -2
BITMAP
0000
0000
0000
6B00
2A00
2A00
2A00
7F00
0100
0000
ENDCHAR

STARTCHAR C276c
ENCODING 10092
SWIDTH 1000 0
DWIDTH 10 0
BBX 10 10 0 -2
BITMAP
0000
0000
0000
7800
5000
1C00
1200
3C00
0000
0000
ENDCHAR

STARTCHAR C276d
ENCODING 10093
SWIDTH 1000 0
DWIDTH 10 0
BBX 10 10 0 -2
BITMAP
0000
0000
0000
E700
4200
7200
4A00
F700
0000
0000
ENDCHAR

STARTCHAR C276e
ENCODING 10094
SWIDTH 1000 0
DWIDTH 10 0
BBX 10 10 0 -2
BITMAP
0000
0000
0000
7000
2000
3C00
2200
7C00
0000
0000
ENDCHAR

STARTCHAR C276f
ENCODING 10095
SWIDTH 1000 0
DWIDTH 10 0
BBX 10 10 0 -2
BITMAP
0000
0000
0000
3800
0400
1C00
0400
3800
0000
0000
ENDCHAR

STARTCHAR C2770
ENCODING 10096
SWIDTH 1000 0
DWIDTH 10 0
BBX 10 10 0 -2
BITMAP
0000
0000
0000
E600
4900
7900
4900
E600
0000
0000
ENDCHAR

STARTCHAR C2771
ENCODING 10097
SWIDTH 1000 0
DWIDTH 10 0
BBX 10 10 0 -2
BITMAP
0000
0000
0000
3F00
4200
3E00
1200
6700
0000
0000
ENDCHAR

STARTCHAR C2772
ENCODING 10098
SWIDTH 1000 0
DWIDTH 10 0
BBX 10 10 0 -2
BITMAP
0000
0000
0000
0000
0000
0000
0000
0000
0000
0000
ENDCHAR

STARTCHAR C2773
ENCODING 10099
SWIDTH 1000 0
DWIDTH 10 0
BBX 10 10 0 -2
BITMAP
0000
0000
0000
0000
0000
0000
0000
0000
0000
0000
ENDCHAR

STARTCHAR C2774
ENCODING 10100
SWIDTH 1000 0
DWIDTH 10 0
BBX 10 10 0 -2
BITMAP
0000
0000
0000
0000
0000
0000
0000
0000
0000
0000
ENDCHAR

STARTCHAR C2775
ENCODING 10101
SWIDTH 1000 0
DWIDTH 10 0
BBX 10 10 0 -2
BITMAP
0000
0000
0000
0000
0000
0000
0000
0000
0000
0000
ENDCHAR

STARTCHAR C2776
ENCODING 10102
SWIDTH 1000 0
DWIDTH 10 0
BBX 10 10 0 -2
BITMAP
0000
0000
0000
0000
0000
0000
0000
0000
0000
0000
ENDCHAR

STARTCHAR C2777
ENCODING 10103
SWIDTH 1000 0
DWIDTH 10 0
BBX 10 10 0 -2
BITMAP
0000
0000
0000
0000
0000
0000
0000
0000
0000
0000
ENDCHAR

STARTCHAR C2778
ENCODING 10104
SWIDTH 1000 0
DWIDTH 10 0
BBX 10 10 0 -2
BITMAP
0000
0000
0000
0000
0000
0000
0000
0000
0000
0000
ENDCHAR

STARTCHAR C2779
ENCODING 10105
SWIDTH 1000 0
DWIDTH 10 0
BBX 10 10 0 -2
BITMAP
0000
0000
0000
0000
0000
0000
0000
0000
0000
0000
ENDCHAR

STARTCHAR C277a
ENCODING 10106
SWIDTH 1000 0
DWIDTH 10 0
BBX 10 10 0 -2
BITMAP
0000
0000
0000
0000
0000
0000
0000
0000
0000
0000
ENDCHAR

STARTCHAR C277b
ENCODING 10107
SWIDTH 1000 0
DWIDTH 10 0
BBX 10 10 0 -2
BITMAP
0000
0000
0000
0000
0000
0000
0000
0000
0000
0000
ENDCHAR

STARTCHAR C277c
ENCODING 10108
SWIDTH 1000 0
DWIDTH 10 0
BBX 10 10 0 -2
BITMAP
0000
0000
0000
0000
0000
0000
0000
0000
0000
0000
ENDCHAR

STARTCHAR C277d
ENCODING 10109
SWIDTH 1000 0
DWIDTH 10 0
BBX 10 10 0 -2
BITMAP
0000
0000
0000
0000
0000
0000
0000
0000
0000
0000
ENDCHAR

STARTCHAR C277e
ENCODING 10110
SWIDTH 1000 0
DWIDTH 10 0
BBX 10 10 0 -2
BITMAP
0000
0000
0000
0000
0000
0000
0000
0000
0000
0000
ENDCHAR

STARTCHAR C2821
ENCODING 10273
SWIDTH 1000 0
DWIDTH 10 0
BBX 10 10 0 -2
BITMAP
0000
0000
0000
0000
FFC0
0000
0000
0000
0000
0000
ENDCHAR

STARTCHAR C2822
ENCODING 10274
SWIDTH 1000 0
DWIDTH 10 0
BBX 10 10 0 -2
BITMAP
0800
0800
0800
0800
0800
0800
0800
0800
0800
0800
ENDCHAR

STARTCHAR C2823
ENCODING 10275
SWIDTH 1000 0
DWIDTH 10 0
BBX 10 10 0 -2
BITMAP
0000
0000
0000
0000
0FC0
0800
0800
0800
0800
0800
ENDCHAR

STARTCHAR C2824
ENCODING 10276
SWIDTH 1000 0
DWIDTH 10 0
BBX 10 10 0 -2
BITMAP
0000
0000
0000
0000
F800
0800
0800
0800
0800
0800
ENDCHAR

STARTCHAR C2825
ENCODING 10277
SWIDTH 1000 0
DWIDTH 10 0
BBX 10 10 0 -2
BITMAP
0800
0800
0800
0800
F800
0000
0000
0000
0000
0000
ENDCHAR

STARTCHAR C2826
ENCODING 10278
SWIDTH 1000 0
DWIDTH 10 0
BBX 10 10 0 -2
BITMAP
0800
0800
0800
0800
0FC0
0000
0000
0000
0000
0000
ENDCHAR

STARTCHAR C2827
ENCODING 10279
SWIDTH 1000 0
DWIDTH 10 0
BBX 10 10 0 -2
BITMAP
0800
0800
0800
0800
0FC0
0800
0800
0800
0800
0800
ENDCHAR

STARTCHAR C2828
ENCODING 10280
SWIDTH 1000 0
DWIDTH 10 0
BBX 10 10 0 -2
BITMAP
0000
0000
0000
0000
FFC0
0800
0800
0800
0800
0800
ENDCHAR

STARTCHAR C2829
ENCODING 10281
SWIDTH 1000 0
DWIDTH 10 0
BBX 10 10 0 -2
BITMAP
0800
0800
0800
0800
F800
0800
0800
0800
0800
0800
ENDCHAR

STARTCHAR C282a
ENCODING 10282
SWIDTH 1000 0
DWIDTH 10 0
BBX 10 10 0 -2
BITMAP
0800
0800
0800
0800
FFC0
0000
0000
0000
0000
0000
ENDCHAR

STARTCHAR C282b
ENCODING 10283
SWIDTH 1000 0
DWIDTH 10 0
BBX 10 10 0 -2
BITMAP
0800
0800
0800
0800
FFC0
0800
0800
0800
0800
0800
ENDCHAR

STARTCHAR C282c
ENCODING 10284
SWIDTH 1000 0
DWIDTH 10 0
BBX 10 10 0 -2
BITMAP
0000
0000
0000
FFC0
FFC0
0000
0000
0000
0000
0000
ENDCHAR

STARTCHAR C282d
ENCODING 10285
SWIDTH 1000 0
DWIDTH 10 0
BBX 10 10 0 -2
BITMAP
1800
1800
1800
1800
1800
1800
1800
1800
1800
1800
ENDCHAR

STARTCHAR C282e
ENCODING 10286
SWIDTH 1000 0
DWIDTH 10 0
BBX 10 10 0 -2
BITMAP
0000
0000
0000
1FC0
1FC0
1800
1800
1800
1800
1800
ENDCHAR

STARTCHAR C282f
ENCODING 10287
SWIDTH 1000 0
DWIDTH 10 0
BBX 10 10 0 -2
BITMAP
0000
0000
0000
F800
F800
1800
1800
1800
1800
1800
ENDCHAR

STARTCHAR C2830
ENCODING 10288
SWIDTH 1000 0
DWIDTH 10 0
BBX 10 10 0 -2
BITMAP
1800
1800
1800
F800
F800
0000
0000
0000
0000
0000
ENDCHAR

STARTCHAR C2831
ENCODING 10289
SWIDTH 1000 0
DWIDTH 10 0
BBX 10 10 0 -2
BITMAP
1800
1800
1800
1FC0
1FC0
0000
0000
0000
0000
0000
ENDCHAR

STARTCHAR C2832
ENCODING 10290
SWIDTH 1000 0
DWIDTH 10 0
BBX 10 10 0 -2
BITMAP
1800
1800
1800
1FC0
1FC0
1800
1800
1800
1800
1800
ENDCHAR

STARTCHAR C2833
ENCODING 10291
SWIDTH 1000 0
DWIDTH 10 0
BBX 10 10 0 -2
BITMAP
0000
0000
0000
FFC0
FFC0
1800
1800
1800
1800
1800
ENDCHAR

STARTCHAR C2834
ENCODING 10292
SWIDTH 1000 0
DWIDTH 10 0
BBX 10 10 0 -2
BITMAP
1800
1800
1800
F800
F800
1800
1800
1800
1800
1800
ENDCHAR

STARTCHAR C2835
ENCODING 10293
SWIDTH 1000 0
DWIDTH 10 0
BBX 10 10 0 -2
BITMAP
1800
1800
1800
FFC0
FFC0
0000
0000
0000
0000
0000
ENDCHAR

STARTCHAR C2836
ENCODING 10294
SWIDTH 1000 0
DWIDTH 10 0
BBX 10 10 0 -2
BITMAP
1800
1800
1800
FFC0
FFC0
1800
1800
1800
1800
1800
ENDCHAR

STARTCHAR C2837
ENCODING 10295
SWIDTH 1000 0
DWIDTH 10 0
BBX 10 10 0 -2
BITMAP
1800
1800
1800
1800
1FC0
1800
1800
1800
1800
1800
ENDCHAR

STARTCHAR C2838
ENCODING 10296
SWIDTH 1000 0
DWIDTH 10 0
BBX 10 10 0 -2
BITMAP
0000
0000
0000
FFC0
FFC0
0800
0800
0800
0800
0800
ENDCHAR

STARTCHAR C2839
ENCODING 10297
SWIDTH 1000 0
DWIDTH 10 0
BBX 10 10 0 -2
BITMAP
1800
1800
1800
1800
F800
1800
1800
1800
1800
1800
ENDCHAR

STARTCHAR C283a
ENCODING 10298
SWIDTH 1000 0
DWIDTH 10 0
BBX 10 10 0 -2
BITMAP
0800
0800
0800
FFC0
FFC0
0000
0000
0000
0000
0000
ENDCHAR

STARTCHAR C283b
ENCODING 10299
SWIDTH 1000 0
DWIDTH 10 0
BBX 10 10 0 -2
BITMAP
0800
0800
0800
FFC0
FFC0
0800
0800
0800
0800
0800
ENDCHAR

STARTCHAR C283c
ENCODING 10300
SWIDTH 1000 0
DWIDTH 10 0
BBX 10 10 0 -2
BITMAP
0800
0800
0800
0FC0
0FC0
0800
0800
0800
0800
0800
ENDCHAR

STARTCHAR C283d
ENCODING 10301
SWIDTH 1000 0
DWIDTH 10 0
BBX 10 10 0 -2
BITMAP
0000
0000
0000
0000
FFC0
1800
1800
1800
1800
1800
ENDCHAR

STARTCHAR C283e
ENCODING 10302
SWIDTH 1000 0
DWIDTH 10 0
BBX 10 10 0 -2
BITMAP
0800
0800
0800
F800
F800
0800
0800
0800
0800
0800
ENDCHAR

STARTCHAR C283f
ENCODING 10303
SWIDTH 1000 0
DWIDTH 10 0
BBX 10 10 0 -2
BITMAP
1800
1800
1800
1800
FFC0
0000
0000
0000
0000
0000
ENDCHAR

STARTCHAR C2840
ENCODING 10304
SWIDTH 1000 0
DWIDTH 10 0
BBX 10 10 0 -2
BITMAP
1800
1800
1800
1800
FFC0
1800
1800
1800
1800
1800
ENDCHAR

STARTCHAR C2841
ENCODING 10305
SWIDTH 1000 0
DWIDTH 10 0
BBX 10 10 0 -2
BITMAP
0000
0000
0000
0000
0000
0000
0000
0000
0000
0000
ENDCHAR

STARTCHAR C2842
ENCODING 10306
SWIDTH 1000 0
DWIDTH 10 0
BBX 10 10 0 -2
BITMAP
0000
0000
0000
0000
0000
0000
0000
0000
0000
0000
ENDCHAR

STARTCHAR C2843
ENCODING 10307
SWIDTH 1000 0
DWIDTH 10 0
BBX 10 10 0 -2
BITMAP
0000
0000
0000
0000
0000
0000
0000
0000
0000
0000
ENDCHAR

STARTCHAR C2844
ENCODING 10308
SWIDTH 1000 0
DWIDTH 10 0
BBX 10 10 0 -2
BITMAP
0000
0000
0000
0000
0000
0000
0000
0000
0000
0000
ENDCHAR

STARTCHAR C2845
ENCODING 10309
SWIDTH 1000 0
DWIDTH 10 0
BBX 10 10 0 -2
BITMAP
0000
0000
0000
0000
0000
0000
0000
0000
0000
0000
ENDCHAR

STARTCHAR C2846
ENCODING 10310
SWIDTH 1000 0
DWIDTH 10 0
BBX 10 10 0 -2
BITMAP
0000
0000
0000
0000
0000
0000
0000
0000
0000
0000
ENDCHAR

STARTCHAR C2847
ENCODING 10311
SWIDTH 1000 0
DWIDTH 10 0
BBX 10 10 0 -2
BITMAP
0000
0000
0000
0000
0000
0000
0000
0000
0000
0000
ENDCHAR

STARTCHAR C2848
ENCODING 10312
SWIDTH 1000 0
DWIDTH 10 0
BBX 10 10 0 -2
BITMAP
0000
0000
0000
0000
0000
0000
0000
0000
0000
0000
ENDCHAR

STARTCHAR C2849
ENCODING 10313
SWIDTH 1000 0
DWIDTH 10 0
BBX 10 10 0 -2
BITMAP
0000
0000
0000
0000
0000
0000
0000
0000
0000
0000
ENDCHAR

STARTCHAR C284a
ENCODING 10314
SWIDTH 1000 0
DWIDTH 10 0
BBX 10 10 0 -2
BITMAP
0000
0000
0000
0000
0000
0000
0000
0000
0000
0000
ENDCHAR

STARTCHAR C284b
ENCODING 10315
SWIDTH 1000 0
DWIDTH 10 0
BBX 10 10 0 -2
BITMAP
0000
0000
0000
0000
0000
0000
0000
0000
0000
0000
ENDCHAR

STARTCHAR C284c
ENCODING 10316
SWIDTH 1000 0
DWIDTH 10 0
BBX 10 10 0 -2
BITMAP
0000
0000
0000
0000
0000
0000
0000
0000
0000
0000
ENDCHAR

STARTCHAR C284d
ENCODING 10317
SWIDTH 1000 0
DWIDTH 10 0
BBX 10 10 0 -2
BITMAP
0000
0000
0000
0000
0000
0000
0000
0000
0000
0000
ENDCHAR

STARTCHAR C284e
ENCODING 10318
SWIDTH 1000 0
DWIDTH 10 0
BBX 10 10 0 -2
BITMAP
0000
0000
0000
0000
0000
0000
0000
0000
0000
0000
ENDCHAR

STARTCHAR C284f
ENCODING 10319
SWIDTH 1000 0
DWIDTH 10 0
BBX 10 10 0 -2
BITMAP
0000
0000
0000
0000
0000
0000
0000
0000
0000
0000
ENDCHAR

STARTCHAR C2850
ENCODING 10320
SWIDTH 1000 0
DWIDTH 10 0
BBX 10 10 0 -2
BITMAP
0000
0000
0000
0000
0000
0000
0000
0000
0000
0000
ENDCHAR

STARTCHAR C2851
ENCODING 10321
SWIDTH 1000 0
DWIDTH 10 0
BBX 10 10 0 -2
BITMAP
0000
0000
0000
0000
0000
0000
0000
0000
0000
0000
ENDCHAR

STARTCHAR C2852
ENCODING 10322
SWIDTH 1000 0
DWIDTH 10 0
BBX 10 10 0 -2
BITMAP
0000
0000
0000
0000
0000
0000
0000
0000
0000
0000
ENDCHAR

STARTCHAR C2853
ENCODING 10323
SWIDTH 1000 0
DWIDTH 10 0
BBX 10 10 0 -2
BITMAP
0000
0000
0000
0000
0000
0000
0000
0000
0000
0000
ENDCHAR

STARTCHAR C2854
ENCODING 10324
SWIDTH 1000 0
DWIDTH 10 0
BBX 10 10 0 -2
BITMAP
0000
0000
0000
0000
0000
0000
0000
0000
0000
0000
ENDCHAR

STARTCHAR C2855
ENCODING 10325
SWIDTH 1000 0
DWIDTH 10 0
BBX 10 10 0 -2
BITMAP
0000
0000
0000
0000
0000
0000
0000
0000
0000
0000
ENDCHAR

STARTCHAR C2856
ENCODING 10326
SWIDTH 1000 0
DWIDTH 10 0
BBX 10 10 0 -2
BITMAP
0000
0000
0000
0000
0000
0000
0000
0000
0000
0000
ENDCHAR

STARTCHAR C2857
ENCODING 10327
SWIDTH 1000 0
DWIDTH 10 0
BBX 10 10 0 -2
BITMAP
0000
0000
0000
0000
0000
0000
0000
0000
0000
0000
ENDCHAR

STARTCHAR C2858
ENCODING 10328
SWIDTH 1000 0
DWIDTH 10 0
BBX 10 10 0 -2
BITMAP
0000
0000
0000
0000
0000
0000
0000
0000
0000
0000
ENDCHAR

STARTCHAR C2859
ENCODING 10329
SWIDTH 1000 0
DWIDTH 10 0
BBX 10 10 0 -2
BITMAP
0000
0000
0000
0000
0000
0000
0000
0000
0000
0000
ENDCHAR

STARTCHAR C285a
ENCODING 10330
SWIDTH 1000 0
DWIDTH 10 0
BBX 10 10 0 -2
BITMAP
0000
0000
0000
0000
0000
0000
0000
0000
0000
0000
ENDCHAR

STARTCHAR C285b
ENCODING 10331
SWIDTH 1000 0
DWIDTH 10 0
BBX 10 10 0 -2
BITMAP
0000
0000
0000
0000
0000
0000
0000
0000
0000
0000
ENDCHAR

STARTCHAR C285c
ENCODING 10332
SWIDTH 1000 0
DWIDTH 10 0
BBX 10 10 0 -2
BITMAP
0000
0000
0000
0000
0000
0000
0000
0000
0000
0000
ENDCHAR

STARTCHAR C285d
ENCODING 10333
SWIDTH 1000 0
DWIDTH 10 0
BBX 10 10 0 -2
BITMAP
0000
0000
0000
0000
0000
0000
0000
0000
0000
0000
ENDCHAR

STARTCHAR C285e
ENCODING 10334
SWIDTH 1000 0
DWIDTH 10 0
BBX 10 10 0 -2
BITMAP
0000
0000
0000
0000
0000
0000
0000
0000
0000
0000
ENDCHAR

STARTCHAR C285f
ENCODING 10335
SWIDTH 1000 0
DWIDTH 10 0
BBX 10 10 0 -2
BITMAP
0000
0000
0000
0000
0000
0000
0000
0000
0000
0000
ENDCHAR

STARTCHAR C2860
ENCODING 10336
SWIDTH 1000 0
DWIDTH 10 0
BBX 10 10 0 -2
BITMAP
0000
0000
0000
0000
0000
0000
0000
0000
0000
0000
ENDCHAR

STARTCHAR C2861
ENCODING 10337
SWIDTH 1000 0
DWIDTH 10 0
BBX 10 10 0 -2
BITMAP
0000
0000
0000
0000
0000
0000
0000
0000
0000
0000
ENDCHAR

STARTCHAR C2862
ENCODING 10338
SWIDTH 1000 0
DWIDTH 10 0
BBX 10 10 0 -2
BITMAP
0000
0000
0000
0000
0000
0000
0000
0000
0000
0000
ENDCHAR

STARTCHAR C2863
ENCODING 10339
SWIDTH 1000 0
DWIDTH 10 0
BBX 10 10 0 -2
BITMAP
0000
0000
0000
0000
0000
0000
0000
0000
0000
0000
ENDCHAR

STARTCHAR C2864
ENCODING 10340
SWIDTH 1000 0
DWIDTH 10 0
BBX 10 10 0 -2
BITMAP
0000
0000
0000
0000
0000
0000
0000
0000
0000
0000
ENDCHAR

STARTCHAR C2865
ENCODING 10341
SWIDTH 1000 0
DWIDTH 10 0
BBX 10 10 0 -2
BITMAP
0000
0000
0000
0000
0000
0000
0000
0000
0000
0000
ENDCHAR

STARTCHAR C2866
ENCODING 10342
SWIDTH 1000 0
DWIDTH 10 0
BBX 10 10 0 -2
BITMAP
0000
0000
0000
0000
0000
0000
0000
0000
0000
0000
ENDCHAR

STARTCHAR C2867
ENCODING 10343
SWIDTH 1000 0
DWIDTH 10 0
BBX 10 10 0 -2
BITMAP
0000
0000
0000
0000
0000
0000
0000
0000
0000
0000
ENDCHAR

STARTCHAR C2868
ENCODING 10344
SWIDTH 1000 0
DWIDTH 10 0
BBX 10 10 0 -2
BITMAP
0000
0000
0000
0000
0000
0000
0000
0000
0000
0000
ENDCHAR

STARTCHAR C2869
ENCODING 10345
SWIDTH 1000 0
DWIDTH 10 0
BBX 10 10 0 -2
BITMAP
0000
0000
0000
0000
0000
0000
0000
0000
0000
0000
ENDCHAR

STARTCHAR C286a
ENCODING 10346
SWIDTH 1000 0
DWIDTH 10 0
BBX 10 10 0 -2
BITMAP
0000
0000
0000
0000
0000
0000
0000
0000
0000
0000
ENDCHAR

STARTCHAR C286b
ENCODING 10347
SWIDTH 1000 0
DWIDTH 10 0
BBX 10 10 0 -2
BITMAP
0000
0000
0000
0000
0000
0000
0000
0000
0000
0000
ENDCHAR

STARTCHAR C286c
ENCODING 10348
SWIDTH 1000 0
DWIDTH 10 0
BBX 10 10 0 -2
BITMAP
0000
0000
0000
0000
0000
0000
0000
0000
0000
0000
ENDCHAR

STARTCHAR C286d
ENCODING 10349
SWIDTH 1000 0
DWIDTH 10 0
BBX 10 10 0 -2
BITMAP
0000
0000
0000
0000
0000
0000
0000
0000
0000
0000
ENDCHAR

STARTCHAR C286e
ENCODING 10350
SWIDTH 1000 0
DWIDTH 10 0
BBX 10 10 0 -2
BITMAP
0000
0000
0000
0000
0000
0000
0000
0000
0000
0000
ENDCHAR

STARTCHAR C286f
ENCODING 10351
SWIDTH 1000 0
DWIDTH 10 0
BBX 10 10 0 -2
BITMAP
0000
0000
0000
0000
0000
0000
0000
0000
0000
0000
ENDCHAR

STARTCHAR C2870
ENCODING 10352
SWIDTH 1000 0
DWIDTH 10 0
BBX 10 10 0 -2
BITMAP
0000
0000
0000
0000
0000
0000
0000
0000
0000
0000
ENDCHAR

STARTCHAR C2871
ENCODING 10353
SWIDTH 1000 0
DWIDTH 10 0
BBX 10 10 0 -2
BITMAP
0000
0000
0000
0000
0000
0000
0000
0000
0000
0000
ENDCHAR

STARTCHAR C2872
ENCODING 10354
SWIDTH 1000 0
DWIDTH 10 0
BBX 10 10 0 -2
BITMAP
0000
0000
0000
0000
0000
0000
0000
0000
0000
0000
ENDCHAR

STARTCHAR C2873
ENCODING 10355
SWIDTH 1000 0
DWIDTH 10 0
BBX 10 10 0 -2
BITMAP
0000
0000
0000
0000
0000
0000
0000
0000
0000
0000
ENDCHAR

STARTCHAR C2874
ENCODING 10356
SWIDTH 1000 0
DWIDTH 10 0
BBX 10 10 0 -2
BITMAP
0000
0000
0000
0000
0000
0000
0000
0000
0000
0000
ENDCHAR

STARTCHAR C2875
ENCODING 10357
SWIDTH 1000 0
DWIDTH 10 0
BBX 10 10 0 -2
BITMAP
0000
0000
0000
0000
0000
0000
0000
0000
0000
0000
ENDCHAR

STARTCHAR C2876
ENCODING 10358
SWIDTH 1000 0
DWIDTH 10 0
BBX 10 10 0 -2
BITMAP
0000
0000
0000
0000
0000
0000
0000
0000
0000
0000
ENDCHAR

STARTCHAR C2877
ENCODING 10359
SWIDTH 1000 0
DWIDTH 10 0
BBX 10 10 0 -2
BITMAP
0000
0000
0000
0000
0000
0000
0000
0000
0000
0000
ENDCHAR

STARTCHAR C2878
ENCODING 10360
SWIDTH 1000 0
DWIDTH 10 0
BBX 10 10 0 -2
BITMAP
0000
0000
0000
0000
0000
0000
0000
0000
0000
0000
ENDCHAR

STARTCHAR C2879
ENCODING 10361
SWIDTH 1000 0
DWIDTH 10 0
BBX 10 10 0 -2
BITMAP
0000
0000
0000
0000
0000
0000
0000
0000
0000
0000
ENDCHAR

STARTCHAR C287a
ENCODING 10362
SWIDTH 1000 0
DWIDTH 10 0
BBX 10 10 0 -2
BITMAP
0000
0000
0000
0000
0000
0000
0000
0000
0000
0000
ENDCHAR

STARTCHAR C287b
ENCODING 10363
SWIDTH 1000 0
DWIDTH 10 0
BBX 10 10 0 -2
BITMAP
0000
0000
0000
0000
0000
0000
0000
0000
0000
0000
ENDCHAR

STARTCHAR C287c
ENCODING 10364
SWIDTH 1000 0
DWIDTH 10 0
BBX 10 10 0 -2
BITMAP
0000
0000
0000
0000
0000
0000
0000
0000
0000
0000
ENDCHAR

STARTCHAR C287d
ENCODING 10365
SWIDTH 1000 0
DWIDTH 10 0
BBX 10 10 0 -2
BITMAP
0000
0000
0000
0000
0000
0000
0000
0000
0000
0000
ENDCHAR

STARTCHAR C287e
ENCODING 10366
SWIDTH 1000 0
DWIDTH 10 0
BBX 10 10 0 -2
BITMAP
0000
0000
0000
0000
0000
0000
0000
0000
0000
0000
ENDCHAR

STARTCHAR C2921
ENCODING 10529
SWIDTH 1000 0
DWIDTH 10 0
BBX 10 10 0 -2
BITMAP
0000
0000
0000
0000
0000
0000
0000
0000
0000
0000
ENDCHAR

STARTCHAR C2922
ENCODING 10530
SWIDTH 1000 0
DWIDTH 10 0
BBX 10 10 0 -2
BITMAP
0000
0000
0000
0000
0000
0000
0000
0000
0000
0000
ENDCHAR

STARTCHAR C2923
ENCODING 10531
SWIDTH 1000 0
DWIDTH 10 0
BBX 10 10 0 -2
BITMAP
0000
0000
0000
0000
0000
0000
0000
0000
0000
0000
ENDCHAR

STARTCHAR C2924
ENCODING 10532
SWIDTH 1000 0
DWIDTH 10 0
BBX 10 10 0 -2
BITMAP
0000
0000
0000
0000
0000
0000
0000
0000
0000
0000
ENDCHAR

STARTCHAR C2925
ENCODING 10533
SWIDTH 1000 0
DWIDTH 10 0
BBX 10 10 0 -2
BITMAP
0000
0000
0000
0000
0000
0000
0000
0000
0000
0000
ENDCHAR

STARTCHAR C2926
ENCODING 10534
SWIDTH 1000 0
DWIDTH 10 0
BBX 10 10 0 -2
BITMAP
0000
0000
0000
0000
0000
0000
0000
0000
0000
0000
ENDCHAR

STARTCHAR C2927
ENCODING 10535
SWIDTH 1000 0
DWIDTH 10 0
BBX 10 10 0 -2
BITMAP
0000
0000
0000
0000
0000
0000
0000
0000
0000
0000
ENDCHAR

STARTCHAR C2928
ENCODING 10536
SWIDTH 1000 0
DWIDTH 10 0
BBX 10 10 0 -2
BITMAP
0000
0000
0000
0000
0000
0000
0000
0000
0000
0000
ENDCHAR

STARTCHAR C2929
ENCODING 10537
SWIDTH 1000 0
DWIDTH 10 0
BBX 10 10 0 -2
BITMAP
0000
0000
0000
0000
0000
0000
0000
0000
0000
0000
ENDCHAR

STARTCHAR C292a
ENCODING 10538
SWIDTH 1000 0
DWIDTH 10 0
BBX 10 10 0 -2
BITMAP
0000
0000
0000
0000
0000
0000
0000
0000
0000
0000
ENDCHAR

STARTCHAR C292b
ENCODING 10539
SWIDTH 1000 0
DWIDTH 10 0
BBX 10 10 0 -2
BITMAP
0000
0000
0000
0000
0000
0000
0000
0000
0000
0000
ENDCHAR

STARTCHAR C292c
ENCODING 10540
SWIDTH 1000 0
DWIDTH 10 0
BBX 10 10 0 -2
BITMAP
0000
0000
0000
0000
0000
0000
0000
0000
0000
0000
ENDCHAR

STARTCHAR C292d
ENCODING 10541
SWIDTH 1000 0
DWIDTH 10 0
BBX 10 10 0 -2
BITMAP
0000
0000
0000
0000
0000
0000
0000
0000
0000
0000
ENDCHAR

STARTCHAR C292e
ENCODING 10542
SWIDTH 1000 0
DWIDTH 10 0
BBX 10 10 0 -2
BITMAP
0000
0000
0000
0000
0000
0000
0000
0000
0000
0000
ENDCHAR

STARTCHAR C292f
ENCODING 10543
SWIDTH 1000 0
DWIDTH 10 0
BBX 10 10 0 -2
BITMAP
0000
0000
0000
0000
0000
0000
0000
0000
0000
0000
ENDCHAR

STARTCHAR C2930
ENCODING 10544
SWIDTH 1000 0
DWIDTH 10 0
BBX 10 10 0 -2
BITMAP
0000
0000
0000
0000
0000
0000
0000
0000
0000
0000
ENDCHAR

STARTCHAR C2931
ENCODING 10545
SWIDTH 1000 0
DWIDTH 10 0
BBX 10 10 0 -2
BITMAP
0000
0000
0000
0000
0000
0000
0000
0000
0000
0000
ENDCHAR

STARTCHAR C2932
ENCODING 10546
SWIDTH 1000 0
DWIDTH 10 0
BBX 10 10 0 -2
BITMAP
0000
0000
0000
0000
0000
0000
0000
0000
0000
0000
ENDCHAR

STARTCHAR C2933
ENCODING 10547
SWIDTH 1000 0
DWIDTH 10 0
BBX 10 10 0 -2
BITMAP
0000
0000
0000
0000
0000
0000
0000
0000
0000
0000
ENDCHAR

STARTCHAR C2934
ENCODING 10548
SWIDTH 1000 0
DWIDTH 10 0
BBX 10 10 0 -2
BITMAP
0000
0000
0000
0000
0000
0000
0000
0000
0000
0000
ENDCHAR

STARTCHAR C2935
ENCODING 10549
SWIDTH 1000 0
DWIDTH 10 0
BBX 10 10 0 -2
BITMAP
0000
0000
0000
0000
0000
0000
0000
0000
0000
0000
ENDCHAR

STARTCHAR C2936
ENCODING 10550
SWIDTH 1000 0
DWIDTH 10 0
BBX 10 10 0 -2
BITMAP
0000
0000
0000
0000
0000
0000
0000
0000
0000
0000
ENDCHAR

STARTCHAR C2937
ENCODING 10551
SWIDTH 1000 0
DWIDTH 10 0
BBX 10 10 0 -2
BITMAP
0000
0000
0000
0000
0000
0000
0000
0000
0000
0000
ENDCHAR

STARTCHAR C2938
ENCODING 10552
SWIDTH 1000 0
DWIDTH 10 0
BBX 10 10 0 -2
BITMAP
0000
0000
0000
0000
0000
0000
0000
0000
0000
0000
ENDCHAR

STARTCHAR C2939
ENCODING 10553
SWIDTH 1000 0
DWIDTH 10 0
BBX 10 10 0 -2
BITMAP
0000
0000
0000
0000
0000
0000
0000
0000
0000
0000
ENDCHAR

STARTCHAR C293a
ENCODING 10554
SWIDTH 1000 0
DWIDTH 10 0
BBX 10 10 0 -2
BITMAP
0000
0000
0000
0000
0000
0000
0000
0000
0000
0000
ENDCHAR

STARTCHAR C293b
ENCODING 10555
SWIDTH 1000 0
DWIDTH 10 0
BBX 10 10 0 -2
BITMAP
0000
0000
0000
0000
0000
0000
0000
0000
0000
0000
ENDCHAR

STARTCHAR C293c
ENCODING 10556
SWIDTH 1000 0
DWIDTH 10 0
BBX 10 10 0 -2
BITMAP
0000
0000
0000
0000
0000
0000
0000
0000
0000
0000
ENDCHAR

STARTCHAR C293d
ENCODING 10557
SWIDTH 1000 0
DWIDTH 10 0
BBX 10 10 0 -2
BITMAP
0000
0000
0000
0000
0000
0000
0000
0000
0000
0000
ENDCHAR

STARTCHAR C293e
ENCODING 10558
SWIDTH 1000 0
DWIDTH 10 0
BBX 10 10 0 -2
BITMAP
0000
0000
0000
0000
0000
0000
0000
0000
0000
0000
ENDCHAR

STARTCHAR C293f
ENCODING 10559
SWIDTH 1000 0
DWIDTH 10 0
BBX 10 10 0 -2
BITMAP
0000
0000
0000
0000
0000
0000
0000
0000
0000
0000
ENDCHAR

STARTCHAR C2940
ENCODING 10560
SWIDTH 1000 0
DWIDTH 10 0
BBX 10 10 0 -2
BITMAP
0000
0000
0000
0000
0000
0000
0000
0000
0000
0000
ENDCHAR

STARTCHAR C2941
ENCODING 10561
SWIDTH 1000 0
DWIDTH 10 0
BBX 10 10 0 -2
BITMAP
0000
0000
0000
0000
0000
0000
0000
0000
0000
0000
ENDCHAR

STARTCHAR C2942
ENCODING 10562
SWIDTH 1000 0
DWIDTH 10 0
BBX 10 10 0 -2
BITMAP
0000
0000
0000
0000
0000
0000
0000
0000
0000
0000
ENDCHAR

STARTCHAR C2943
ENCODING 10563
SWIDTH 1000 0
DWIDTH 10 0
BBX 10 10 0 -2
BITMAP
0000
0000
0000
0000
0000
0000
0000
0000
0000
0000
ENDCHAR

STARTCHAR C2944
ENCODING 10564
SWIDTH 1000 0
DWIDTH 10 0
BBX 10 10 0 -2
BITMAP
0000
0000
0000
0000
0000
0000
0000
0000
0000
0000
ENDCHAR

STARTCHAR C2945
ENCODING 10565
SWIDTH 1000 0
DWIDTH 10 0
BBX 10 10 0 -2
BITMAP
0000
0000
0000
0000
0000
0000
0000
0000
0000
0000
ENDCHAR

STARTCHAR C2946
ENCODING 10566
SWIDTH 1000 0
DWIDTH 10 0
BBX 10 10 0 -2
BITMAP
0000
0000
0000
0000
0000
0000
0000
0000
0000
0000
ENDCHAR

STARTCHAR C2947
ENCODING 10567
SWIDTH 1000 0
DWIDTH 10 0
BBX 10 10 0 -2
BITMAP
0000
0000
0000
0000
0000
0000
0000
0000
0000
0000
ENDCHAR

STARTCHAR C2948
ENCODING 10568
SWIDTH 1000 0
DWIDTH 10 0
BBX 10 10 0 -2
BITMAP
0000
0000
0000
0000
0000
0000
0000
0000
0000
0000
ENDCHAR

STARTCHAR C2949
ENCODING 10569
SWIDTH 1000 0
DWIDTH 10 0
BBX 10 10 0 -2
BITMAP
0000
0000
0000
0000
0000
0000
0000
0000
0000
0000
ENDCHAR

STARTCHAR C294a
ENCODING 10570
SWIDTH 1000 0
DWIDTH 10 0
BBX 10 10 0 -2
BITMAP
0000
0000
0000
0000
0000
0000
0000
0000
0000
0000
ENDCHAR

STARTCHAR C294b
ENCODING 10571
SWIDTH 1000 0
DWIDTH 10 0
BBX 10 10 0 -2
BITMAP
0000
0000
0000
0000
0000
0000
0000
0000
0000
0000
ENDCHAR

STARTCHAR C294c
ENCODING 10572
SWIDTH 1000 0
DWIDTH 10 0
BBX 10 10 0 -2
BITMAP
0000
0000
0000
0000
0000
0000
0000
0000
0000
0000
ENDCHAR

STARTCHAR C294d
ENCODING 10573
SWIDTH 1000 0
DWIDTH 10 0
BBX 10 10 0 -2
BITMAP
0000
0000
0000
0000
0000
0000
0000
0000
0000
0000
ENDCHAR

STARTCHAR C294e
ENCODING 10574
SWIDTH 1000 0
DWIDTH 10 0
BBX 10 10 0 -2
BITMAP
0000
0000
0000
0000
0000
0000
0000
0000
0000
0000
ENDCHAR

STARTCHAR C294f
ENCODING 10575
SWIDTH 1000 0
DWIDTH 10 0
BBX 10 10 0 -2
BITMAP
0000
0000
0000
0000
0000
0000
0000
0000
0000
0000
ENDCHAR

STARTCHAR C2950
ENCODING 10576
SWIDTH 1000 0
DWIDTH 10 0
BBX 10 10 0 -2
BITMAP
0000
0000
0000
0000
0000
0000
0000
0000
0000
0000
ENDCHAR

STARTCHAR C2951
ENCODING 10577
SWIDTH 1000 0
DWIDTH 10 0
BBX 10 10 0 -2
BITMAP
0000
0000
0000
0000
0000
0000
0000
0000
0000
0000
ENDCHAR

STARTCHAR C2952
ENCODING 10578
SWIDTH 1000 0
DWIDTH 10 0
BBX 10 10 0 -2
BITMAP
0000
0000
0000
0000
0000
0000
0000
0000
0000
0000
ENDCHAR

STARTCHAR C2953
ENCODING 10579
SWIDTH 1000 0
DWIDTH 10 0
BBX 10 10 0 -2
BITMAP
0000
0000
0000
0000
0000
0000
0000
0000
0000
0000
ENDCHAR

STARTCHAR C2954
ENCODING 10580
SWIDTH 1000 0
DWIDTH 10 0
BBX 10 10 0 -2
BITMAP
0000
0000
0000
0000
0000
0000
0000
0000
0000
0000
ENDCHAR

STARTCHAR C2955
ENCODING 10581
SWIDTH 1000 0
DWIDTH 10 0
BBX 10 10 0 -2
BITMAP
0000
0000
0000
0000
0000
0000
0000
0000
0000
0000
ENDCHAR

STARTCHAR C2956
ENCODING 10582
SWIDTH 1000 0
DWIDTH 10 0
BBX 10 10 0 -2
BITMAP
0000
0000
0000
0000
0000
0000
0000
0000
0000
0000
ENDCHAR

STARTCHAR C2957
ENCODING 10583
SWIDTH 1000 0
DWIDTH 10 0
BBX 10 10 0 -2
BITMAP
0000
0000
0000
0000
0000
0000
0000
0000
0000
0000
ENDCHAR

STARTCHAR C2958
ENCODING 10584
SWIDTH 1000 0
DWIDTH 10 0
BBX 10 10 0 -2
BITMAP
0000
0000
0000
0000
0000
0000
0000
0000
0000
0000
ENDCHAR

STARTCHAR C2959
ENCODING 10585
SWIDTH 1000 0
DWIDTH 10 0
BBX 10 10 0 -2
BITMAP
0000
0000
0000
0000
0000
0000
0000
0000
0000
0000
ENDCHAR

STARTCHAR C295a
ENCODING 10586
SWIDTH 1000 0
DWIDTH 10 0
BBX 10 10 0 -2
BITMAP
0000
0000
0000
0000
0000
0000
0000
0000
0000
0000
ENDCHAR

STARTCHAR C295b
ENCODING 10587
SWIDTH 1000 0
DWIDTH 10 0
BBX 10 10 0 -2
BITMAP
0000
0000
0000
0000
0000
0000
0000
0000
0000
0000
ENDCHAR

STARTCHAR C295c
ENCODING 10588
SWIDTH 1000 0
DWIDTH 10 0
BBX 10 10 0 -2
BITMAP
0000
0000
0000
0000
0000
0000
0000
0000
0000
0000
ENDCHAR

STARTCHAR C295d
ENCODING 10589
SWIDTH 1000 0
DWIDTH 10 0
BBX 10 10 0 -2
BITMAP
0000
0000
0000
0000
0000
0000
0000
0000
0000
0000
ENDCHAR

STARTCHAR C295e
ENCODING 10590
SWIDTH 1000 0
DWIDTH 10 0
BBX 10 10 0 -2
BITMAP
0000
0000
0000
0000
0000
0000
0000
0000
0000
0000
ENDCHAR

STARTCHAR C295f
ENCODING 10591
SWIDTH 1000 0
DWIDTH 10 0
BBX 10 10 0 -2
BITMAP
0000
0000
0000
0000
0000
0000
0000
0000
0000
0000
ENDCHAR

STARTCHAR C2960
ENCODING 10592
SWIDTH 1000 0
DWIDTH 10 0
BBX 10 10 0 -2
BITMAP
0000
0000
0000
0000
0000
0000
0000
0000
0000
0000
ENDCHAR

STARTCHAR C2961
ENCODING 10593
SWIDTH 1000 0
DWIDTH 10 0
BBX 10 10 0 -2
BITMAP
0000
0000
0000
0000
0000
0000
0000
0000
0000
0000
ENDCHAR

STARTCHAR C2962
ENCODING 10594
SWIDTH 1000 0
DWIDTH 10 0
BBX 10 10 0 -2
BITMAP
0000
0000
0000
0000
0000
0000
0000
0000
0000
0000
ENDCHAR

STARTCHAR C2963
ENCODING 10595
SWIDTH 1000 0
DWIDTH 10 0
BBX 10 10 0 -2
BITMAP
0000
0000
0000
0000
0000
0000
0000
0000
0000
0000
ENDCHAR

STARTCHAR C2964
ENCODING 10596
SWIDTH 1000 0
DWIDTH 10 0
BBX 10 10 0 -2
BITMAP
0000
0000
0000
0000
0000
0000
0000
0000
0000
0000
ENDCHAR

STARTCHAR C2965
ENCODING 10597
SWIDTH 1000 0
DWIDTH 10 0
BBX 10 10 0 -2
BITMAP
0000
0000
0000
0000
0000
0000
0000
0000
0000
0000
ENDCHAR

STARTCHAR C2966
ENCODING 10598
SWIDTH 1000 0
DWIDTH 10 0
BBX 10 10 0 -2
BITMAP
0000
0000
0000
0000
0000
0000
0000
0000
0000
0000
ENDCHAR

STARTCHAR C2967
ENCODING 10599
SWIDTH 1000 0
DWIDTH 10 0
BBX 10 10 0 -2
BITMAP
0000
0000
0000
0000
0000
0000
0000
0000
0000
0000
ENDCHAR

STARTCHAR C2968
ENCODING 10600
SWIDTH 1000 0
DWIDTH 10 0
BBX 10 10 0 -2
BITMAP
0000
0000
0000
0000
0000
0000
0000
0000
0000
0000
ENDCHAR

STARTCHAR C2969
ENCODING 10601
SWIDTH 1000 0
DWIDTH 10 0
BBX 10 10 0 -2
BITMAP
0000
0000
0000
0000
0000
0000
0000
0000
0000
0000
ENDCHAR

STARTCHAR C296a
ENCODING 10602
SWIDTH 1000 0
DWIDTH 10 0
BBX 10 10 0 -2
BITMAP
0000
0000
0000
0000
0000
0000
0000
0000
0000
0000
ENDCHAR

STARTCHAR C296b
ENCODING 10603
SWIDTH 1000 0
DWIDTH 10 0
BBX 10 10 0 -2
BITMAP
0000
0000
0000
0000
0000
0000
0000
0000
0000
0000
ENDCHAR

STARTCHAR C296c
ENCODING 10604
SWIDTH 1000 0
DWIDTH 10 0
BBX 10 10 0 -2
BITMAP
0000
0000
0000
0000
0000
0000
0000
0000
0000
0000
ENDCHAR

STARTCHAR C296d
ENCODING 10605
SWIDTH 1000 0
DWIDTH 10 0
BBX 10 10 0 -2
BITMAP
0000
0000
0000
0000
0000
0000
0000
0000
0000
0000
ENDCHAR

STARTCHAR C296e
ENCODING 10606
SWIDTH 1000 0
DWIDTH 10 0
BBX 10 10 0 -2
BITMAP
0000
0000
0000
0000
0000
0000
0000
0000
0000
0000
ENDCHAR

STARTCHAR C296f
ENCODING 10607
SWIDTH 1000 0
DWIDTH 10 0
BBX 10 10 0 -2
BITMAP
0000
0000
0000
0000
0000
0000
0000
0000
0000
0000
ENDCHAR

STARTCHAR C2970
ENCODING 10608
SWIDTH 1000 0
DWIDTH 10 0
BBX 10 10 0 -2
BITMAP
0000
0000
0000
0000
0000
0000
0000
0000
0000
0000
ENDCHAR

STARTCHAR C2971
ENCODING 10609
SWIDTH 1000 0
DWIDTH 10 0
BBX 10 10 0 -2
BITMAP
0000
0000
0000
0000
0000
0000
0000
0000
0000
0000
ENDCHAR

STARTCHAR C2972
ENCODING 10610
SWIDTH 1000 0
DWIDTH 10 0
BBX 10 10 0 -2
BITMAP
0000
0000
0000
0000
0000
0000
0000
0000
0000
0000
ENDCHAR

STARTCHAR C2973
ENCODING 10611
SWIDTH 1000 0
DWIDTH 10 0
BBX 10 10 0 -2
BITMAP
0000
0000
0000
0000
0000
0000
0000
0000
0000
0000
ENDCHAR

STARTCHAR C2974
ENCODING 10612
SWIDTH 1000 0
DWIDTH 10 0
BBX 10 10 0 -2
BITMAP
0000
0000
0000
0000
0000
0000
0000
0000
0000
0000
ENDCHAR

STARTCHAR C2975
ENCODING 10613
SWIDTH 1000 0
DWIDTH 10 0
BBX 10 10 0 -2
BITMAP
0000
0000
0000
0000
0000
0000
0000
0000
0000
0000
ENDCHAR

STARTCHAR C2976
ENCODING 10614
SWIDTH 1000 0
DWIDTH 10 0
BBX 10 10 0 -2
BITMAP
0000
0000
0000
0000
0000
0000
0000
0000
0000
0000
ENDCHAR

STARTCHAR C2977
ENCODING 10615
SWIDTH 1000 0
DWIDTH 10 0
BBX 10 10 0 -2
BITMAP
0000
0000
0000
0000
0000
0000
0000
0000
0000
0000
ENDCHAR

STARTCHAR C2978
ENCODING 10616
SWIDTH 1000 0
DWIDTH 10 0
BBX 10 10 0 -2
BITMAP
0000
0000
0000
0000
0000
0000
0000
0000
0000
0000
ENDCHAR

STARTCHAR C2979
ENCODING 10617
SWIDTH 1000 0
DWIDTH 10 0
BBX 10 10 0 -2
BITMAP
0000
0000
0000
0000
0000
0000
0000
0000
0000
0000
ENDCHAR

STARTCHAR C297a
ENCODING 10618
SWIDTH 1000 0
DWIDTH 10 0
BBX 10 10 0 -2
BITMAP
0000
0000
0000
0000
0000
0000
0000
0000
0000
0000
ENDCHAR

STARTCHAR C297b
ENCODING 10619
SWIDTH 1000 0
DWIDTH 10 0
BBX 10 10 0 -2
BITMAP
0000
0000
0000
0000
0000
0000
0000
0000
0000
0000
ENDCHAR

STARTCHAR C297c
ENCODING 10620
SWIDTH 1000 0
DWIDTH 10 0
BBX 10 10 0 -2
BITMAP
0000
0000
0000
0000
0000
0000
0000
0000
0000
0000
ENDCHAR

STARTCHAR C297d
ENCODING 10621
SWIDTH 1000 0
DWIDTH 10 0
BBX 10 10 0 -2
BITMAP
0000
0000
0000
0000
0000
0000
0000
0000
0000
0000
ENDCHAR

STARTCHAR C297e
ENCODING 10622
SWIDTH 1000 0
DWIDTH 10 0
BBX 10 10 0 -2
BITMAP
0000
0000
0000
0000
0000
0000
0000
0000
0000
0000
ENDCHAR

STARTCHAR C2a21
ENCODING 10785
SWIDTH 1000 0
DWIDTH 10 0
BBX 10 10 0 -2
BITMAP
0000
0000
0000
0000
0000
0000
0000
0000
0000
0000
ENDCHAR

STARTCHAR C2a22
ENCODING 10786
SWIDTH 1000 0
DWIDTH 10 0
BBX 10 10 0 -2
BITMAP
0000
0000
0000
0000
0000
0000
0000
0000
0000
0000
ENDCHAR

STARTCHAR C2a23
ENCODING 10787
SWIDTH 1000 0
DWIDTH 10 0
BBX 10 10 0 -2
BITMAP
0000
0000
0000
0000
0000
0000
0000
0000
0000
0000
ENDCHAR

STARTCHAR C2a24
ENCODING 10788
SWIDTH 1000 0
DWIDTH 10 0
BBX 10 10 0 -2
BITMAP
0000
0000
0000
0000
0000
0000
0000
0000
0000
0000
ENDCHAR

STARTCHAR C2a25
ENCODING 10789
SWIDTH 1000 0
DWIDTH 10 0
BBX 10 10 0 -2
BITMAP
0000
0000
0000
0000
0000
0000
0000
0000
0000
0000
ENDCHAR

STARTCHAR C2a26
ENCODING 10790
SWIDTH 1000 0
DWIDTH 10 0
BBX 10 10 0 -2
BITMAP
0000
0000
0000
0000
0000
0000
0000
0000
0000
0000
ENDCHAR

STARTCHAR C2a27
ENCODING 10791
SWIDTH 1000 0
DWIDTH 10 0
BBX 10 10 0 -2
BITMAP
0000
0000
0000
0000
0000
0000
0000
0000
0000
0000
ENDCHAR

STARTCHAR C2a28
ENCODING 10792
SWIDTH 1000 0
DWIDTH 10 0
BBX 10 10 0 -2
BITMAP
0000
0000
0000
0000
0000
0000
0000
0000
0000
0000
ENDCHAR

STARTCHAR C2a29
ENCODING 10793
SWIDTH 1000 0
DWIDTH 10 0
BBX 10 10 0 -2
BITMAP
0000
0000
0000
0000
0000
0000
0000
0000
0000
0000
ENDCHAR

STARTCHAR C2a2a
ENCODING 10794
SWIDTH 1000 0
DWIDTH 10 0
BBX 10 10 0 -2
BITMAP
0000
0000
0000
0000
0000
0000
0000
0000
0000
0000
ENDCHAR

STARTCHAR C2a2b
ENCODING 10795
SWIDTH 1000 0
DWIDTH 10 0
BBX 10 10 0 -2
BITMAP
0000
0000
0000
0000
0000
0000
0000
0000
0000
0000
ENDCHAR

STARTCHAR C2a2c
ENCODING 10796
SWIDTH 1000 0
DWIDTH 10 0
BBX 10 10 0 -2
BITMAP
0000
0000
0000
0000
0000
0000
0000
0000
0000
0000
ENDCHAR

STARTCHAR C2a2d
ENCODING 10797
SWIDTH 1000 0
DWIDTH 10 0
BBX 10 10 0 -2
BITMAP
0000
0000
0000
0000
0000
0000
0000
0000
0000
0000
ENDCHAR

STARTCHAR C2a2e
ENCODING 10798
SWIDTH 1000 0
DWIDTH 10 0
BBX 10 10 0 -2
BITMAP
0000
0000
0000
0000
0000
0000
0000
0000
0000
0000
ENDCHAR

STARTCHAR C2a2f
ENCODING 10799
SWIDTH 1000 0
DWIDTH 10 0
BBX 10 10 0 -2
BITMAP
0000
0000
0000
0000
0000
0000
0000
0000
0000
0000
ENDCHAR

STARTCHAR C2a30
ENCODING 10800
SWIDTH 1000 0
DWIDTH 10 0
BBX 10 10 0 -2
BITMAP
0000
0000
0000
0000
0000
0000
0000
0000
0000
0000
ENDCHAR

STARTCHAR C2a31
ENCODING 10801
SWIDTH 1000 0
DWIDTH 10 0
BBX 10 10 0 -2
BITMAP
0000
0000
0000
0000
0000
0000
0000
0000
0000
0000
ENDCHAR

STARTCHAR C2a32
ENCODING 10802
SWIDTH 1000 0
DWIDTH 10 0
BBX 10 10 0 -2
BITMAP
0000
0000
0000
0000
0000
0000
0000
0000
0000
0000
ENDCHAR

STARTCHAR C2a33
ENCODING 10803
SWIDTH 1000 0
DWIDTH 10 0
BBX 10 10 0 -2
BITMAP
0000
0000
0000
0000
0000
0000
0000
0000
0000
0000
ENDCHAR

STARTCHAR C2a34
ENCODING 10804
SWIDTH 1000 0
DWIDTH 10 0
BBX 10 10 0 -2
BITMAP
0000
0000
0000
0000
0000
0000
0000
0000
0000
0000
ENDCHAR

STARTCHAR C2a35
ENCODING 10805
SWIDTH 1000 0
DWIDTH 10 0
BBX 10 10 0 -2
BITMAP
0000
0000
0000
0000
0000
0000
0000
0000
0000
0000
ENDCHAR

STARTCHAR C2a36
ENCODING 10806
SWIDTH 1000 0
DWIDTH 10 0
BBX 10 10 0 -2
BITMAP
0000
0000
0000
0000
0000
0000
0000
0000
0000
0000
ENDCHAR

STARTCHAR C2a37
ENCODING 10807
SWIDTH 1000 0
DWIDTH 10 0
BBX 10 10 0 -2
BITMAP
0000
0000
0000
0000
0000
0000
0000
0000
0000
0000
ENDCHAR

STARTCHAR C2a38
ENCODING 10808
SWIDTH 1000 0
DWIDTH 10 0
BBX 10 10 0 -2
BITMAP
0000
0000
0000
0000
0000
0000
0000
0000
0000
0000
ENDCHAR

STARTCHAR C2a39
ENCODING 10809
SWIDTH 1000 0
DWIDTH 10 0
BBX 10 10 0 -2
BITMAP
0000
0000
0000
0000
0000
0000
0000
0000
0000
0000
ENDCHAR

STARTCHAR C2a3a
ENCODING 10810
SWIDTH 1000 0
DWIDTH 10 0
BBX 10 10 0 -2
BITMAP
0000
0000
0000
0000
0000
0000
0000
0000
0000
0000
ENDCHAR

STARTCHAR C2a3b
ENCODING 10811
SWIDTH 1000 0
DWIDTH 10 0
BBX 10 10 0 -2
BITMAP
0000
0000
0000
0000
0000
0000
0000
0000
0000
0000
ENDCHAR

STARTCHAR C2a3c
ENCODING 10812
SWIDTH 1000 0
DWIDTH 10 0
BBX 10 10 0 -2
BITMAP
0000
0000
0000
0000
0000
0000
0000
0000
0000
0000
ENDCHAR

STARTCHAR C2a3d
ENCODING 10813
SWIDTH 1000 0
DWIDTH 10 0
BBX 10 10 0 -2
BITMAP
0000
0000
0000
0000
0000
0000
0000
0000
0000
0000
ENDCHAR

STARTCHAR C2a3e
ENCODING 10814
SWIDTH 1000 0
DWIDTH 10 0
BBX 10 10 0 -2
BITMAP
0000
0000
0000
0000
0000
0000
0000
0000
0000
0000
ENDCHAR

STARTCHAR C2a3f
ENCODING 10815
SWIDTH 1000 0
DWIDTH 10 0
BBX 10 10 0 -2
BITMAP
0000
0000
0000
0000
0000
0000
0000
0000
0000
0000
ENDCHAR

STARTCHAR C2a40
ENCODING 10816
SWIDTH 1000 0
DWIDTH 10 0
BBX 10 10 0 -2
BITMAP
0000
0000
0000
0000
0000
0000
0000
0000
0000
0000
ENDCHAR

STARTCHAR C2a41
ENCODING 10817
SWIDTH 1000 0
DWIDTH 10 0
BBX 10 10 0 -2
BITMAP
0000
0000
0000
0000
0000
0000
0000
0000
0000
0000
ENDCHAR

STARTCHAR C2a42
ENCODING 10818
SWIDTH 1000 0
DWIDTH 10 0
BBX 10 10 0 -2
BITMAP
0000
0000
0000
0000
0000
0000
0000
0000
0000
0000
ENDCHAR

STARTCHAR C2a43
ENCODING 10819
SWIDTH 1000 0
DWIDTH 10 0
BBX 10 10 0 -2
BITMAP
0000
0000
0000
0000
0000
0000
0000
0000
0000
0000
ENDCHAR

STARTCHAR C2a44
ENCODING 10820
SWIDTH 1000 0
DWIDTH 10 0
BBX 10 10 0 -2
BITMAP
0000
0000
0000
0000
0000
0000
0000
0000
0000
0000
ENDCHAR

STARTCHAR C2a45
ENCODING 10821
SWIDTH 1000 0
DWIDTH 10 0
BBX 10 10 0 -2
BITMAP
0000
0000
0000
0000
0000
0000
0000
0000
0000
0000
ENDCHAR

STARTCHAR C2a46
ENCODING 10822
SWIDTH 1000 0
DWIDTH 10 0
BBX 10 10 0 -2
BITMAP
0000
0000
0000
0000
0000
0000
0000
0000
0000
0000
ENDCHAR

STARTCHAR C2a47
ENCODING 10823
SWIDTH 1000 0
DWIDTH 10 0
BBX 10 10 0 -2
BITMAP
0000
0000
0000
0000
0000
0000
0000
0000
0000
0000
ENDCHAR

STARTCHAR C2a48
ENCODING 10824
SWIDTH 1000 0
DWIDTH 10 0
BBX 10 10 0 -2
BITMAP
0000
0000
0000
0000
0000
0000
0000
0000
0000
0000
ENDCHAR

STARTCHAR C2a49
ENCODING 10825
SWIDTH 1000 0
DWIDTH 10 0
BBX 10 10 0 -2
BITMAP
0000
0000
0000
0000
0000
0000
0000
0000
0000
0000
ENDCHAR

STARTCHAR C2a4a
ENCODING 10826
SWIDTH 1000 0
DWIDTH 10 0
BBX 10 10 0 -2
BITMAP
0000
0000
0000
0000
0000
0000
0000
0000
0000
0000
ENDCHAR

STARTCHAR C2a4b
ENCODING 10827
SWIDTH 1000 0
DWIDTH 10 0
BBX 10 10 0 -2
BITMAP
0000
0000
0000
0000
0000
0000
0000
0000
0000
0000
ENDCHAR

STARTCHAR C2a4c
ENCODING 10828
SWIDTH 1000 0
DWIDTH 10 0
BBX 10 10 0 -2
BITMAP
0000
0000
0000
0000
0000
0000
0000
0000
0000
0000
ENDCHAR

STARTCHAR C2a4d
ENCODING 10829
SWIDTH 1000 0
DWIDTH 10 0
BBX 10 10 0 -2
BITMAP
0000
0000
0000
0000
0000
0000
0000
0000
0000
0000
ENDCHAR

STARTCHAR C2a4e
ENCODING 10830
SWIDTH 1000 0
DWIDTH 10 0
BBX 10 10 0 -2
BITMAP
0000
0000
0000
0000
0000
0000
0000
0000
0000
0000
ENDCHAR

STARTCHAR C2a4f
ENCODING 10831
SWIDTH 1000 0
DWIDTH 10 0
BBX 10 10 0 -2
BITMAP
0000
0000
0000
0000
0000
0000
0000
0000
0000
0000
ENDCHAR

STARTCHAR C2a50
ENCODING 10832
SWIDTH 1000 0
DWIDTH 10 0
BBX 10 10 0 -2
BITMAP
0000
0000
0000
0000
0000
0000
0000
0000
0000
0000
ENDCHAR

STARTCHAR C2a51
ENCODING 10833
SWIDTH 1000 0
DWIDTH 10 0
BBX 10 10 0 -2
BITMAP
0000
0000
0000
0000
0000
0000
0000
0000
0000
0000
ENDCHAR

STARTCHAR C2a52
ENCODING 10834
SWIDTH 1000 0
DWIDTH 10 0
BBX 10 10 0 -2
BITMAP
0000
0000
0000
0000
0000
0000
0000
0000
0000
0000
ENDCHAR

STARTCHAR C2a53
ENCODING 10835
SWIDTH 1000 0
DWIDTH 10 0
BBX 10 10 0 -2
BITMAP
0000
0000
0000
0000
0000
0000
0000
0000
0000
0000
ENDCHAR

STARTCHAR C2a54
ENCODING 10836
SWIDTH 1000 0
DWIDTH 10 0
BBX 10 10 0 -2
BITMAP
0000
0000
0000
0000
0000
0000
0000
0000
0000
0000
ENDCHAR

STARTCHAR C2a55
ENCODING 10837
SWIDTH 1000 0
DWIDTH 10 0
BBX 10 10 0 -2
BITMAP
0000
0000
0000
0000
0000
0000
0000
0000
0000
0000
ENDCHAR

STARTCHAR C2a56
ENCODING 10838
SWIDTH 1000 0
DWIDTH 10 0
BBX 10 10 0 -2
BITMAP
0000
0000
0000
0000
0000
0000
0000
0000
0000
0000
ENDCHAR

STARTCHAR C2a57
ENCODING 10839
SWIDTH 1000 0
DWIDTH 10 0
BBX 10 10 0 -2
BITMAP
0000
0000
0000
0000
0000
0000
0000
0000
0000
0000
ENDCHAR

STARTCHAR C2a58
ENCODING 10840
SWIDTH 1000 0
DWIDTH 10 0
BBX 10 10 0 -2
BITMAP
0000
0000
0000
0000
0000
0000
0000
0000
0000
0000
ENDCHAR

STARTCHAR C2a59
ENCODING 10841
SWIDTH 1000 0
DWIDTH 10 0
BBX 10 10 0 -2
BITMAP
0000
0000
0000
0000
0000
0000
0000
0000
0000
0000
ENDCHAR

STARTCHAR C2a5a
ENCODING 10842
SWIDTH 1000 0
DWIDTH 10 0
BBX 10 10 0 -2
BITMAP
0000
0000
0000
0000
0000
0000
0000
0000
0000
0000
ENDCHAR

STARTCHAR C2a5b
ENCODING 10843
SWIDTH 1000 0
DWIDTH 10 0
BBX 10 10 0 -2
BITMAP
0000
0000
0000
0000
0000
0000
0000
0000
0000
0000
ENDCHAR

STARTCHAR C2a5c
ENCODING 10844
SWIDTH 1000 0
DWIDTH 10 0
BBX 10 10 0 -2
BITMAP
0000
0000
0000
0000
0000
0000
0000
0000
0000
0000
ENDCHAR

STARTCHAR C2a5d
ENCODING 10845
SWIDTH 1000 0
DWIDTH 10 0
BBX 10 10 0 -2
BITMAP
0000
0000
0000
0000
0000
0000
0000
0000
0000
0000
ENDCHAR

STARTCHAR C2a5e
ENCODING 10846
SWIDTH 1000 0
DWIDTH 10 0
BBX 10 10 0 -2
BITMAP
0000
0000
0000
0000
0000
0000
0000
0000
0000
0000
ENDCHAR

STARTCHAR C2a5f
ENCODING 10847
SWIDTH 1000 0
DWIDTH 10 0
BBX 10 10 0 -2
BITMAP
0000
0000
0000
0000
0000
0000
0000
0000
0000
0000
ENDCHAR

STARTCHAR C2a60
ENCODING 10848
SWIDTH 1000 0
DWIDTH 10 0
BBX 10 10 0 -2
BITMAP
0000
0000
0000
0000
0000
0000
0000
0000
0000
0000
ENDCHAR

STARTCHAR C2a61
ENCODING 10849
SWIDTH 1000 0
DWIDTH 10 0
BBX 10 10 0 -2
BITMAP
0000
0000
0000
0000
0000
0000
0000
0000
0000
0000
ENDCHAR

STARTCHAR C2a62
ENCODING 10850
SWIDTH 1000 0
DWIDTH 10 0
BBX 10 10 0 -2
BITMAP
0000
0000
0000
0000
0000
0000
0000
0000
0000
0000
ENDCHAR

STARTCHAR C2a63
ENCODING 10851
SWIDTH 1000 0
DWIDTH 10 0
BBX 10 10 0 -2
BITMAP
0000
0000
0000
0000
0000
0000
0000
0000
0000
0000
ENDCHAR

STARTCHAR C2a64
ENCODING 10852
SWIDTH 1000 0
DWIDTH 10 0
BBX 10 10 0 -2
BITMAP
0000
0000
0000
0000
0000
0000
0000
0000
0000
0000
ENDCHAR

STARTCHAR C2a65
ENCODING 10853
SWIDTH 1000 0
DWIDTH 10 0
BBX 10 10 0 -2
BITMAP
0000
0000
0000
0000
0000
0000
0000
0000
0000
0000
ENDCHAR

STARTCHAR C2a66
ENCODING 10854
SWIDTH 1000 0
DWIDTH 10 0
BBX 10 10 0 -2
BITMAP
0000
0000
0000
0000
0000
0000
0000
0000
0000
0000
ENDCHAR

STARTCHAR C2a67
ENCODING 10855
SWIDTH 1000 0
DWIDTH 10 0
BBX 10 10 0 -2
BITMAP
0000
0000
0000
0000
0000
0000
0000
0000
0000
0000
ENDCHAR

STARTCHAR C2a68
ENCODING 10856
SWIDTH 1000 0
DWIDTH 10 0
BBX 10 10 0 -2
BITMAP
0000
0000
0000
0000
0000
0000
0000
0000
0000
0000
ENDCHAR

STARTCHAR C2a69
ENCODING 10857
SWIDTH 1000 0
DWIDTH 10 0
BBX 10 10 0 -2
BITMAP
0000
0000
0000
0000
0000
0000
0000
0000
0000
0000
ENDCHAR

STARTCHAR C2a6a
ENCODING 10858
SWIDTH 1000 0
DWIDTH 10 0
BBX 10 10 0 -2
BITMAP
0000
0000
0000
0000
0000
0000
0000
0000
0000
0000
ENDCHAR

STARTCHAR C2a6b
ENCODING 10859
SWIDTH 1000 0
DWIDTH 10 0
BBX 10 10 0 -2
BITMAP
0000
0000
0000
0000
0000
0000
0000
0000
0000
0000
ENDCHAR

STARTCHAR C2a6c
ENCODING 10860
SWIDTH 1000 0
DWIDTH 10 0
BBX 10 10 0 -2
BITMAP
0000
0000
0000
0000
0000
0000
0000
0000
0000
0000
ENDCHAR

STARTCHAR C2a6d
ENCODING 10861
SWIDTH 1000 0
DWIDTH 10 0
BBX 10 10 0 -2
BITMAP
0000
0000
0000
0000
0000
0000
0000
0000
0000
0000
ENDCHAR

STARTCHAR C2a6e
ENCODING 10862
SWIDTH 1000 0
DWIDTH 10 0
BBX 10 10 0 -2
BITMAP
0000
0000
0000
0000
0000
0000
0000
0000
0000
0000
ENDCHAR

STARTCHAR C2a6f
ENCODING 10863
SWIDTH 1000 0
DWIDTH 10 0
BBX 10 10 0 -2
BITMAP
0000
0000
0000
0000
0000
0000
0000
0000
0000
0000
ENDCHAR

STARTCHAR C2a70
ENCODING 10864
SWIDTH 1000 0
DWIDTH 10 0
BBX 10 10 0 -2
BITMAP
0000
0000
0000
0000
0000
0000
0000
0000
0000
0000
ENDCHAR

STARTCHAR C2a71
ENCODING 10865
SWIDTH 1000 0
DWIDTH 10 0
BBX 10 10 0 -2
BITMAP
0000
0000
0000
0000
0000
0000
0000
0000
0000
0000
ENDCHAR

STARTCHAR C2a72
ENCODING 10866
SWIDTH 1000 0
DWIDTH 10 0
BBX 10 10 0 -2
BITMAP
0000
0000
0000
0000
0000
0000
0000
0000
0000
0000
ENDCHAR

STARTCHAR C2a73
ENCODING 10867
SWIDTH 1000 0
DWIDTH 10 0
BBX 10 10 0 -2
BITMAP
0000
0000
0000
0000
0000
0000
0000
0000
0000
0000
ENDCHAR

STARTCHAR C2a74
ENCODING 10868
SWIDTH 1000 0
DWIDTH 10 0
BBX 10 10 0 -2
BITMAP
0000
0000
0000
0000
0000
0000
0000
0000
0000
0000
ENDCHAR

STARTCHAR C2a75
ENCODING 10869
SWIDTH 1000 0
DWIDTH 10 0
BBX 10 10 0 -2
BITMAP
0000
0000
0000
0000
0000
0000
0000
0000
0000
0000
ENDCHAR

STARTCHAR C2a76
ENCODING 10870
SWIDTH 1000 0
DWIDTH 10 0
BBX 10 10 0 -2
BITMAP
0000
0000
0000
0000
0000
0000
0000
0000
0000
0000
ENDCHAR

STARTCHAR C2a77
ENCODING 10871
SWIDTH 1000 0
DWIDTH 10 0
BBX 10 10 0 -2
BITMAP
0000
0000
0000
0000
0000
0000
0000
0000
0000
0000
ENDCHAR

STARTCHAR C2a78
ENCODING 10872
SWIDTH 1000 0
DWIDTH 10 0
BBX 10 10 0 -2
BITMAP
0000
0000
0000
0000
0000
0000
0000
0000
0000
0000
ENDCHAR

STARTCHAR C2a79
ENCODING 10873
SWIDTH 1000 0
DWIDTH 10 0
BBX 10 10 0 -2
BITMAP
0000
0000
0000
0000
0000
0000
0000
0000
0000
0000
ENDCHAR

STARTCHAR C2a7a
ENCODING 10874
SWIDTH 1000 0
DWIDTH 10 0
BBX 10 10 0 -2
BITMAP
0000
0000
0000
0000
0000
0000
0000
0000
0000
0000
ENDCHAR

STARTCHAR C2a7b
ENCODING 10875
SWIDTH 1000 0
DWIDTH 10 0
BBX 10 10 0 -2
BITMAP
0000
0000
0000
0000
0000
0000
0000
0000
0000
0000
ENDCHAR

STARTCHAR C2a7c
ENCODING 10876
SWIDTH 1000 0
DWIDTH 10 0
BBX 10 10 0 -2
BITMAP
0000
0000
0000
0000
0000
0000
0000
0000
0000
0000
ENDCHAR

STARTCHAR C2a7d
ENCODING 10877
SWIDTH 1000 0
DWIDTH 10 0
BBX 10 10 0 -2
BITMAP
0000
0000
0000
0000
0000
0000
0000
0000
0000
0000
ENDCHAR

STARTCHAR C2a7e
ENCODING 10878
SWIDTH 1000 0
DWIDTH 10 0
BBX 10 10 0 -2
BITMAP
0000
0000
0000
0000
0000
0000
0000
0000
0000
0000
ENDCHAR

STARTCHAR C2b21
ENCODING 11041
SWIDTH 1000 0
DWIDTH 10 0
BBX 10 10 0 -2
BITMAP
0000
0000
0000
0000
0000
0000
0000
0000
0000
0000
ENDCHAR

STARTCHAR C2b22
ENCODING 11042
SWIDTH 1000 0
DWIDTH 10 0
BBX 10 10 0 -2
BITMAP
0000
0000
0000
0000
0000
0000
0000
0000
0000
0000
ENDCHAR

STARTCHAR C2b23
ENCODING 11043
SWIDTH 1000 0
DWIDTH 10 0
BBX 10 10 0 -2
BITMAP
0000
0000
0000
0000
0000
0000
0000
0000
0000
0000
ENDCHAR

STARTCHAR C2b24
ENCODING 11044
SWIDTH 1000 0
DWIDTH 10 0
BBX 10 10 0 -2
BITMAP
0000
0000
0000
0000
0000
0000
0000
0000
0000
0000
ENDCHAR

STARTCHAR C2b25
ENCODING 11045
SWIDTH 1000 0
DWIDTH 10 0
BBX 10 10 0 -2
BITMAP
0000
0000
0000
0000
0000
0000
0000
0000
0000
0000
ENDCHAR

STARTCHAR C2b26
ENCODING 11046
SWIDTH 1000 0
DWIDTH 10 0
BBX 10 10 0 -2
BITMAP
0000
0000
0000
0000
0000
0000
0000
0000
0000
0000
ENDCHAR

STARTCHAR C2b27
ENCODING 11047
SWIDTH 1000 0
DWIDTH 10 0
BBX 10 10 0 -2
BITMAP
0000
0000
0000
0000
0000
0000
0000
0000
0000
0000
ENDCHAR

STARTCHAR C2b28
ENCODING 11048
SWIDTH 1000 0
DWIDTH 10 0
BBX 10 10 0 -2
BITMAP
0000
0000
0000
0000
0000
0000
0000
0000
0000
0000
ENDCHAR

STARTCHAR C2b29
ENCODING 11049
SWIDTH 1000 0
DWIDTH 10 0
BBX 10 10 0 -2
BITMAP
0000
0000
0000
0000
0000
0000
0000
0000
0000
0000
ENDCHAR

STARTCHAR C2b2a
ENCODING 11050
SWIDTH 1000 0
DWIDTH 10 0
BBX 10 10 0 -2
BITMAP
0000
0000
0000
0000
0000
0000
0000
0000
0000
0000
ENDCHAR

STARTCHAR C2b2b
ENCODING 11051
SWIDTH 1000 0
DWIDTH 10 0
BBX 10 10 0 -2
BITMAP
0000
0000
0000
0000
0000
0000
0000
0000
0000
0000
ENDCHAR

STARTCHAR C2b2c
ENCODING 11052
SWIDTH 1000 0
DWIDTH 10 0
BBX 10 10 0 -2
BITMAP
0000
0000
0000
0000
0000
0000
0000
0000
0000
0000
ENDCHAR

STARTCHAR C2b2d
ENCODING 11053
SWIDTH 1000 0
DWIDTH 10 0
BBX 10 10 0 -2
BITMAP
0000
0000
0000
0000
0000
0000
0000
0000
0000
0000
ENDCHAR

STARTCHAR C2b2e
ENCODING 11054
SWIDTH 1000 0
DWIDTH 10 0
BBX 10 10 0 -2
BITMAP
0000
0000
0000
0000
0000
0000
0000
0000
0000
0000
ENDCHAR

STARTCHAR C2b2f
ENCODING 11055
SWIDTH 1000 0
DWIDTH 10 0
BBX 10 10 0 -2
BITMAP
0000
0000
0000
0000
0000
0000
0000
0000
0000
0000
ENDCHAR

STARTCHAR C2b30
ENCODING 11056
SWIDTH 1000 0
DWIDTH 10 0
BBX 10 10 0 -2
BITMAP
0000
0000
0000
0000
0000
0000
0000
0000
0000
0000
ENDCHAR

STARTCHAR C2b31
ENCODING 11057
SWIDTH 1000 0
DWIDTH 10 0
BBX 10 10 0 -2
BITMAP
0000
0000
0000
0000
0000
0000
0000
0000
0000
0000
ENDCHAR

STARTCHAR C2b32
ENCODING 11058
SWIDTH 1000 0
DWIDTH 10 0
BBX 10 10 0 -2
BITMAP
0000
0000
0000
0000
0000
0000
0000
0000
0000
0000
ENDCHAR

STARTCHAR C2b33
ENCODING 11059
SWIDTH 1000 0
DWIDTH 10 0
BBX 10 10 0 -2
BITMAP
0000
0000
0000
0000
0000
0000
0000
0000
0000
0000
ENDCHAR

STARTCHAR C2b34
ENCODING 11060
SWIDTH 1000 0
DWIDTH 10 0
BBX 10 10 0 -2
BITMAP
0000
0000
0000
0000
0000
0000
0000
0000
0000
0000
ENDCHAR

STARTCHAR C2b35
ENCODING 11061
SWIDTH 1000 0
DWIDTH 10 0
BBX 10 10 0 -2
BITMAP
0000
0000
0000
0000
0000
0000
0000
0000
0000
0000
ENDCHAR

STARTCHAR C2b36
ENCODING 11062
SWIDTH 1000 0
DWIDTH 10 0
BBX 10 10 0 -2
BITMAP
0000
0000
0000
0000
0000
0000
0000
0000
0000
0000
ENDCHAR

STARTCHAR C2b37
ENCODING 11063
SWIDTH 1000 0
DWIDTH 10 0
BBX 10 10 0 -2
BITMAP
0000
0000
0000
0000
0000
0000
0000
0000
0000
0000
ENDCHAR

STARTCHAR C2b38
ENCODING 11064
SWIDTH 1000 0
DWIDTH 10 0
BBX 10 10 0 -2
BITMAP
0000
0000
0000
0000
0000
0000
0000
0000
0000
0000
ENDCHAR

STARTCHAR C2b39
ENCODING 11065
SWIDTH 1000 0
DWIDTH 10 0
BBX 10 10 0 -2
BITMAP
0000
0000
0000
0000
0000
0000
0000
0000
0000
0000
ENDCHAR

STARTCHAR C2b3a
ENCODING 11066
SWIDTH 1000 0
DWIDTH 10 0
BBX 10 10 0 -2
BITMAP
0000
0000
0000
0000
0000
0000
0000
0000
0000
0000
ENDCHAR

STARTCHAR C2b3b
ENCODING 11067
SWIDTH 1000 0
DWIDTH 10 0
BBX 10 10 0 -2
BITMAP
0000
0000
0000
0000
0000
0000
0000
0000
0000
0000
ENDCHAR

STARTCHAR C2b3c
ENCODING 11068
SWIDTH 1000 0
DWIDTH 10 0
BBX 10 10 0 -2
BITMAP
0000
0000
0000
0000
0000
0000
0000
0000
0000
0000
ENDCHAR

STARTCHAR C2b3d
ENCODING 11069
SWIDTH 1000 0
DWIDTH 10 0
BBX 10 10 0 -2
BITMAP
0000
0000
0000
0000
0000
0000
0000
0000
0000
0000
ENDCHAR

STARTCHAR C2b3e
ENCODING 11070
SWIDTH 1000 0
DWIDTH 10 0
BBX 10 10 0 -2
BITMAP
0000
0000
0000
0000
0000
0000
0000
0000
0000
0000
ENDCHAR

STARTCHAR C2b3f
ENCODING 11071
SWIDTH 1000 0
DWIDTH 10 0
BBX 10 10 0 -2
BITMAP
0000
0000
0000
0000
0000
0000
0000
0000
0000
0000
ENDCHAR

STARTCHAR C2b40
ENCODING 11072
SWIDTH 1000 0
DWIDTH 10 0
BBX 10 10 0 -2
BITMAP
0000
0000
0000
0000
0000
0000
0000
0000
0000
0000
ENDCHAR

STARTCHAR C2b41
ENCODING 11073
SWIDTH 1000 0
DWIDTH 10 0
BBX 10 10 0 -2
BITMAP
0000
0000
0000
0000
0000
0000
0000
0000
0000
0000
ENDCHAR

STARTCHAR C2b42
ENCODING 11074
SWIDTH 1000 0
DWIDTH 10 0
BBX 10 10 0 -2
BITMAP
0000
0000
0000
0000
0000
0000
0000
0000
0000
0000
ENDCHAR

STARTCHAR C2b43
ENCODING 11075
SWIDTH 1000 0
DWIDTH 10 0
BBX 10 10 0 -2
BITMAP
0000
0000
0000
0000
0000
0000
0000
0000
0000
0000
ENDCHAR

STARTCHAR C2b44
ENCODING 11076
SWIDTH 1000 0
DWIDTH 10 0
BBX 10 10 0 -2
BITMAP
0000
0000
0000
0000
0000
0000
0000
0000
0000
0000
ENDCHAR

STARTCHAR C2b45
ENCODING 11077
SWIDTH 1000 0
DWIDTH 10 0
BBX 10 10 0 -2
BITMAP
0000
0000
0000
0000
0000
0000
0000
0000
0000
0000
ENDCHAR

STARTCHAR C2b46
ENCODING 11078
SWIDTH 1000 0
DWIDTH 10 0
BBX 10 10 0 -2
BITMAP
0000
0000
0000
0000
0000
0000
0000
0000
0000
0000
ENDCHAR

STARTCHAR C2b47
ENCODING 11079
SWIDTH 1000 0
DWIDTH 10 0
BBX 10 10 0 -2
BITMAP
0000
0000
0000
0000
0000
0000
0000
0000
0000
0000
ENDCHAR

STARTCHAR C2b48
ENCODING 11080
SWIDTH 1000 0
DWIDTH 10 0
BBX 10 10 0 -2
BITMAP
0000
0000
0000
0000
0000
0000
0000
0000
0000
0000
ENDCHAR

STARTCHAR C2b49
ENCODING 11081
SWIDTH 1000 0
DWIDTH 10 0
BBX 10 10 0 -2
BITMAP
0000
0000
0000
0000
0000
0000
0000
0000
0000
0000
ENDCHAR

STARTCHAR C2b4a
ENCODING 11082
SWIDTH 1000 0
DWIDTH 10 0
BBX 10 10 0 -2
BITMAP
0000
0000
0000
0000
0000
0000
0000
0000
0000
0000
ENDCHAR

STARTCHAR C2b4b
ENCODING 11083
SWIDTH 1000 0
DWIDTH 10 0
BBX 10 10 0 -2
BITMAP
0000
0000
0000
0000
0000
0000
0000
0000
0000
0000
ENDCHAR

STARTCHAR C2b4c
ENCODING 11084
SWIDTH 1000 0
DWIDTH 10 0
BBX 10 10 0 -2
BITMAP
0000
0000
0000
0000
0000
0000
0000
0000
0000
0000
ENDCHAR

STARTCHAR C2b4d
ENCODING 11085
SWIDTH 1000 0
DWIDTH 10 0
BBX 10 10 0 -2
BITMAP
0000
0000
0000
0000
0000
0000
0000
0000
0000
0000
ENDCHAR

STARTCHAR C2b4e
ENCODING 11086
SWIDTH 1000 0
DWIDTH 10 0
BBX 10 10 0 -2
BITMAP
0000
0000
0000
0000
0000
0000
0000
0000
0000
0000
ENDCHAR

STARTCHAR C2b4f
ENCODING 11087
SWIDTH 1000 0
DWIDTH 10 0
BBX 10 10 0 -2
BITMAP
0000
0000
0000
0000
0000
0000
0000
0000
0000
0000
ENDCHAR

STARTCHAR C2b50
ENCODING 11088
SWIDTH 1000 0
DWIDTH 10 0
BBX 10 10 0 -2
BITMAP
0000
0000
0000
0000
0000
0000
0000
0000
0000
0000
ENDCHAR

STARTCHAR C2b51
ENCODING 11089
SWIDTH 1000 0
DWIDTH 10 0
BBX 10 10 0 -2
BITMAP
0000
0000
0000
0000
0000
0000
0000
0000
0000
0000
ENDCHAR

STARTCHAR C2b52
ENCODING 11090
SWIDTH 1000 0
DWIDTH 10 0
BBX 10 10 0 -2
BITMAP
0000
0000
0000
0000
0000
0000
0000
0000
0000
0000
ENDCHAR

STARTCHAR C2b53
ENCODING 11091
SWIDTH 1000 0
DWIDTH 10 0
BBX 10 10 0 -2
BITMAP
0000
0000
0000
0000
0000
0000
0000
0000
0000
0000
ENDCHAR

STARTCHAR C2b54
ENCODING 11092
SWIDTH 1000 0
DWIDTH 10 0
BBX 10 10 0 -2
BITMAP
0000
0000
0000
0000
0000
0000
0000
0000
0000
0000
ENDCHAR

STARTCHAR C2b55
ENCODING 11093
SWIDTH 1000 0
DWIDTH 10 0
BBX 10 10 0 -2
BITMAP
0000
0000
0000
0000
0000
0000
0000
0000
0000
0000
ENDCHAR

STARTCHAR C2b56
ENCODING 11094
SWIDTH 1000 0
DWIDTH 10 0
BBX 10 10 0 -2
BITMAP
0000
0000
0000
0000
0000
0000
0000
0000
0000
0000
ENDCHAR

STARTCHAR C2b57
ENCODING 11095
SWIDTH 1000 0
DWIDTH 10 0
BBX 10 10 0 -2
BITMAP
0000
0000
0000
0000
0000
0000
0000
0000
0000
0000
ENDCHAR

STARTCHAR C2b58
ENCODING 11096
SWIDTH 1000 0
DWIDTH 10 0
BBX 10 10 0 -2
BITMAP
0000
0000
0000
0000
0000
0000
0000
0000
0000
0000
ENDCHAR

STARTCHAR C2b59
ENCODING 11097
SWIDTH 1000 0
DWIDTH 10 0
BBX 10 10 0 -2
BITMAP
0000
0000
0000
0000
0000
0000
0000
0000
0000
0000
ENDCHAR

STARTCHAR C2b5a
ENCODING 11098
SWIDTH 1000 0
DWIDTH 10 0
BBX 10 10 0 -2
BITMAP
0000
0000
0000
0000
0000
0000
0000
0000
0000
0000
ENDCHAR

STARTCHAR C2b5b
ENCODING 11099
SWIDTH 1000 0
DWIDTH 10 0
BBX 10 10 0 -2
BITMAP
0000
0000
0000
0000
0000
0000
0000
0000
0000
0000
ENDCHAR

STARTCHAR C2b5c
ENCODING 11100
SWIDTH 1000 0
DWIDTH 10 0
BBX 10 10 0 -2
BITMAP
0000
0000
0000
0000
0000
0000
0000
0000
0000
0000
ENDCHAR

STARTCHAR C2b5d
ENCODING 11101
SWIDTH 1000 0
DWIDTH 10 0
BBX 10 10 0 -2
BITMAP
0000
0000
0000
0000
0000
0000
0000
0000
0000
0000
ENDCHAR

STARTCHAR C2b5e
ENCODING 11102
SWIDTH 1000 0
DWIDTH 10 0
BBX 10 10 0 -2
BITMAP
0000
0000
0000
0000
0000
0000
0000
0000
0000
0000
ENDCHAR

STARTCHAR C2b5f
ENCODING 11103
SWIDTH 1000 0
DWIDTH 10 0
BBX 10 10 0 -2
BITMAP
0000
0000
0000
0000
0000
0000
0000
0000
0000
0000
ENDCHAR

STARTCHAR C2b60
ENCODING 11104
SWIDTH 1000 0
DWIDTH 10 0
BBX 10 10 0 -2
BITMAP
0000
0000
0000
0000
0000
0000
0000
0000
0000
0000
ENDCHAR

STARTCHAR C2b61
ENCODING 11105
SWIDTH 1000 0
DWIDTH 10 0
BBX 10 10 0 -2
BITMAP
0000
0000
0000
0000
0000
0000
0000
0000
0000
0000
ENDCHAR

STARTCHAR C2b62
ENCODING 11106
SWIDTH 1000 0
DWIDTH 10 0
BBX 10 10 0 -2
BITMAP
0000
0000
0000
0000
0000
0000
0000
0000
0000
0000
ENDCHAR

STARTCHAR C2b63
ENCODING 11107
SWIDTH 1000 0
DWIDTH 10 0
BBX 10 10 0 -2
BITMAP
0000
0000
0000
0000
0000
0000
0000
0000
0000
0000
ENDCHAR

STARTCHAR C2b64
ENCODING 11108
SWIDTH 1000 0
DWIDTH 10 0
BBX 10 10 0 -2
BITMAP
0000
0000
0000
0000
0000
0000
0000
0000
0000
0000
ENDCHAR

STARTCHAR C2b65
ENCODING 11109
SWIDTH 1000 0
DWIDTH 10 0
BBX 10 10 0 -2
BITMAP
0000
0000
0000
0000
0000
0000
0000
0000
0000
0000
ENDCHAR

STARTCHAR C2b66
ENCODING 11110
SWIDTH 1000 0
DWIDTH 10 0
BBX 10 10 0 -2
BITMAP
0000
0000
0000
0000
0000
0000
0000
0000
0000
0000
ENDCHAR

STARTCHAR C2b67
ENCODING 11111
SWIDTH 1000 0
DWIDTH 10 0
BBX 10 10 0 -2
BITMAP
0000
0000
0000
0000
0000
0000
0000
0000
0000
0000
ENDCHAR

STARTCHAR C2b68
ENCODING 11112
SWIDTH 1000 0
DWIDTH 10 0
BBX 10 10 0 -2
BITMAP
0000
0000
0000
0000
0000
0000
0000
0000
0000
0000
ENDCHAR

STARTCHAR C2b69
ENCODING 11113
SWIDTH 1000 0
DWIDTH 10 0
BBX 10 10 0 -2
BITMAP
0000
0000
0000
0000
0000
0000
0000
0000
0000
0000
ENDCHAR

STARTCHAR C2b6a
ENCODING 11114
SWIDTH 1000 0
DWIDTH 10 0
BBX 10 10 0 -2
BITMAP
0000
0000
0000
0000
0000
0000
0000
0000
0000
0000
ENDCHAR

STARTCHAR C2b6b
ENCODING 11115
SWIDTH 1000 0
DWIDTH 10 0
BBX 10 10 0 -2
BITMAP
0000
0000
0000
0000
0000
0000
0000
0000
0000
0000
ENDCHAR

STARTCHAR C2b6c
ENCODING 11116
SWIDTH 1000 0
DWIDTH 10 0
BBX 10 10 0 -2
BITMAP
0000
0000
0000
0000
0000
0000
0000
0000
0000
0000
ENDCHAR

STARTCHAR C2b6d
ENCODING 11117
SWIDTH 1000 0
DWIDTH 10 0
BBX 10 10 0 -2
BITMAP
0000
0000
0000
0000
0000
0000
0000
0000
0000
0000
ENDCHAR

STARTCHAR C2b6e
ENCODING 11118
SWIDTH 1000 0
DWIDTH 10 0
BBX 10 10 0 -2
BITMAP
0000
0000
0000
0000
0000
0000
0000
0000
0000
0000
ENDCHAR

STARTCHAR C2b6f
ENCODING 11119
SWIDTH 1000 0
DWIDTH 10 0
BBX 10 10 0 -2
BITMAP
0000
0000
0000
0000
0000
0000
0000
0000
0000
0000
ENDCHAR

STARTCHAR C2b70
ENCODING 11120
SWIDTH 1000 0
DWIDTH 10 0
BBX 10 10 0 -2
BITMAP
0000
0000
0000
0000
0000
0000
0000
0000
0000
0000
ENDCHAR

STARTCHAR C2b71
ENCODING 11121
SWIDTH 1000 0
DWIDTH 10 0
BBX 10 10 0 -2
BITMAP
0000
0000
0000
0000
0000
0000
0000
0000
0000
0000
ENDCHAR

STARTCHAR C2b72
ENCODING 11122
SWIDTH 1000 0
DWIDTH 10 0
BBX 10 10 0 -2
BITMAP
0000
0000
0000
0000
0000
0000
0000
0000
0000
0000
ENDCHAR

STARTCHAR C2b73
ENCODING 11123
SWIDTH 1000 0
DWIDTH 10 0
BBX 10 10 0 -2
BITMAP
0000
0000
0000
0000
0000
0000
0000
0000
0000
0000
ENDCHAR

STARTCHAR C2b74
ENCODING 11124
SWIDTH 1000 0
DWIDTH 10 0
BBX 10 10 0 -2
BITMAP
0000
0000
0000
0000
0000
0000
0000
0000
0000
0000
ENDCHAR

STARTCHAR C2b75
ENCODING 11125
SWIDTH 1000 0
DWIDTH 10 0
BBX 10 10 0 -2
BITMAP
0000
0000
0000
0000
0000
0000
0000
0000
0000
0000
ENDCHAR

STARTCHAR C2b76
ENCODING 11126
SWIDTH 1000 0
DWIDTH 10 0
BBX 10 10 0 -2
BITMAP
0000
0000
0000
0000
0000
0000
0000
0000
0000
0000
ENDCHAR

STARTCHAR C2b77
ENCODING 11127
SWIDTH 1000 0
DWIDTH 10 0
BBX 10 10 0 -2
BITMAP
0000
0000
0000
0000
0000
0000
0000
0000
0000
0000
ENDCHAR

STARTCHAR C2b78
ENCODING 11128
SWIDTH 1000 0
DWIDTH 10 0
BBX 10 10 0 -2
BITMAP
0000
0000
0000
0000
0000
0000
0000
0000
0000
0000
ENDCHAR

STARTCHAR C2b79
ENCODING 11129
SWIDTH 1000 0
DWIDTH 10 0
BBX 10 10 0 -2
BITMAP
0000
0000
0000
0000
0000
0000
0000
0000
0000
0000
ENDCHAR

STARTCHAR C2b7a
ENCODING 11130
SWIDTH 1000 0
DWIDTH 10 0
BBX 10 10 0 -2
BITMAP
0000
0000
0000
0000
0000
0000
0000
0000
0000
0000
ENDCHAR

STARTCHAR C2b7b
ENCODING 11131
SWIDTH 1000 0
DWIDTH 10 0
BBX 10 10 0 -2
BITMAP
0000
0000
0000
0000
0000
0000
0000
0000
0000
0000
ENDCHAR

STARTCHAR C2b7c
ENCODING 11132
SWIDTH 1000 0
DWIDTH 10 0
BBX 10 10 0 -2
BITMAP
0000
0000
0000
0000
0000
0000
0000
0000
0000
0000
ENDCHAR

STARTCHAR C2b7d
ENCODING 11133
SWIDTH 1000 0
DWIDTH 10 0
BBX 10 10 0 -2
BITMAP
0000
0000
0000
0000
0000
0000
0000
0000
0000
0000
ENDCHAR

STARTCHAR C2b7e
ENCODING 11134
SWIDTH 1000 0
DWIDTH 10 0
BBX 10 10 0 -2
BITMAP
0000
0000
0000
0000
0000
0000
0000
0000
0000
0000
ENDCHAR

STARTCHAR C2c21
ENCODING 11297
SWIDTH 1000 0
DWIDTH 10 0
BBX 10 10 0 -2
BITMAP
0000
0000
0000
0000
0000
0000
0000
0000
0000
0000
ENDCHAR

STARTCHAR C2c22
ENCODING 11298
SWIDTH 1000 0
DWIDTH 10 0
BBX 10 10 0 -2
BITMAP
0000
0000
0000
0000
0000
0000
0000
0000
0000
0000
ENDCHAR

STARTCHAR C2c23
ENCODING 11299
SWIDTH 1000 0
DWIDTH 10 0
BBX 10 10 0 -2
BITMAP
0000
0000
0000
0000
0000
0000
0000
0000
0000
0000
ENDCHAR

STARTCHAR C2c24
ENCODING 11300
SWIDTH 1000 0
DWIDTH 10 0
BBX 10 10 0 -2
BITMAP
0000
0000
0000
0000
0000
0000
0000
0000
0000
0000
ENDCHAR

STARTCHAR C2c25
ENCODING 11301
SWIDTH 1000 0
DWIDTH 10 0
BBX 10 10 0 -2
BITMAP
0000
0000
0000
0000
0000
0000
0000
0000
0000
0000
ENDCHAR

STARTCHAR C2c26
ENCODING 11302
SWIDTH 1000 0
DWIDTH 10 0
BBX 10 10 0 -2
BITMAP
0000
0000
0000
0000
0000
0000
0000
0000
0000
0000
ENDCHAR

STARTCHAR C2c27
ENCODING 11303
SWIDTH 1000 0
DWIDTH 10 0
BBX 10 10 0 -2
BITMAP
0000
0000
0000
0000
0000
0000
0000
0000
0000
0000
ENDCHAR

STARTCHAR C2c28
ENCODING 11304
SWIDTH 1000 0
DWIDTH 10 0
BBX 10 10 0 -2
BITMAP
0000
0000
0000
0000
0000
0000
0000
0000
0000
0000
ENDCHAR

STARTCHAR C2c29
ENCODING 11305
SWIDTH 1000 0
DWIDTH 10 0
BBX 10 10 0 -2
BITMAP
0000
0000
0000
0000
0000
0000
0000
0000
0000
0000
ENDCHAR

STARTCHAR C2c2a
ENCODING 11306
SWIDTH 1000 0
DWIDTH 10 0
BBX 10 10 0 -2
BITMAP
0000
0000
0000
0000
0000
0000
0000
0000
0000
0000
ENDCHAR

STARTCHAR C2c2b
ENCODING 11307
SWIDTH 1000 0
DWIDTH 10 0
BBX 10 10 0 -2
BITMAP
0000
0000
0000
0000
0000
0000
0000
0000
0000
0000
ENDCHAR

STARTCHAR C2c2c
ENCODING 11308
SWIDTH 1000 0
DWIDTH 10 0
BBX 10 10 0 -2
BITMAP
0000
0000
0000
0000
0000
0000
0000
0000
0000
0000
ENDCHAR

STARTCHAR C2c2d
ENCODING 11309
SWIDTH 1000 0
DWIDTH 10 0
BBX 10 10 0 -2
BITMAP
0000
0000
0000
0000
0000
0000
0000
0000
0000
0000
ENDCHAR

STARTCHAR C2c2e
ENCODING 11310
SWIDTH 1000 0
DWIDTH 10 0
BBX 10 10 0 -2
BITMAP
0000
0000
0000
0000
0000
0000
0000
0000
0000
0000
ENDCHAR

STARTCHAR C2c2f
ENCODING 11311
SWIDTH 1000 0
DWIDTH 10 0
BBX 10 10 0 -2
BITMAP
0000
0000
0000
0000
0000
0000
0000
0000
0000
0000
ENDCHAR

STARTCHAR C2c30
ENCODING 11312
SWIDTH 1000 0
DWIDTH 10 0
BBX 10 10 0 -2
BITMAP
0000
0000
0000
0000
0000
0000
0000
0000
0000
0000
ENDCHAR

STARTCHAR C2c31
ENCODING 11313
SWIDTH 1000 0
DWIDTH 10 0
BBX 10 10 0 -2
BITMAP
0000
0000
0000
0000
0000
0000
0000
0000
0000
0000
ENDCHAR

STARTCHAR C2c32
ENCODING 11314
SWIDTH 1000 0
DWIDTH 10 0
BBX 10 10 0 -2
BITMAP
0000
0000
0000
0000
0000
0000
0000
0000
0000
0000
ENDCHAR

STARTCHAR C2c33
ENCODING 11315
SWIDTH 1000 0
DWIDTH 10 0
BBX 10 10 0 -2
BITMAP
0000
0000
0000
0000
0000
0000
0000
0000
0000
0000
ENDCHAR

STARTCHAR C2c34
ENCODING 11316
SWIDTH 1000 0
DWIDTH 10 0
BBX 10 10 0 -2
BITMAP
0000
0000
0000
0000
0000
0000
0000
0000
0000
0000
ENDCHAR

STARTCHAR C2c35
ENCODING 11317
SWIDTH 1000 0
DWIDTH 10 0
BBX 10 10 0 -2
BITMAP
0000
0000
0000
0000
0000
0000
0000
0000
0000
0000
ENDCHAR

STARTCHAR C2c36
ENCODING 11318
SWIDTH 1000 0
DWIDTH 10 0
BBX 10 10 0 -2
BITMAP
0000
0000
0000
0000
0000
0000
0000
0000
0000
0000
ENDCHAR

STARTCHAR C2c37
ENCODING 11319
SWIDTH 1000 0
DWIDTH 10 0
BBX 10 10 0 -2
BITMAP
0000
0000
0000
0000
0000
0000
0000
0000
0000
0000
ENDCHAR

STARTCHAR C2c38
ENCODING 11320
SWIDTH 1000 0
DWIDTH 10 0
BBX 10 10 0 -2
BITMAP
0000
0000
0000
0000
0000
0000
0000
0000
0000
0000
ENDCHAR

STARTCHAR C2c39
ENCODING 11321
SWIDTH 1000 0
DWIDTH 10 0
BBX 10 10 0 -2
BITMAP
0000
0000
0000
0000
0000
0000
0000
0000
0000
0000
ENDCHAR

STARTCHAR C2c3a
ENCODING 11322
SWIDTH 1000 0
DWIDTH 10 0
BBX 10 10 0 -2
BITMAP
0000
0000
0000
0000
0000
0000
0000
0000
0000
0000
ENDCHAR

STARTCHAR C2c3b
ENCODING 11323
SWIDTH 1000 0
DWIDTH 10 0
BBX 10 10 0 -2
BITMAP
0000
0000
0000
0000
0000
0000
0000
0000
0000
0000
ENDCHAR

STARTCHAR C2c3c
ENCODING 11324
SWIDTH 1000 0
DWIDTH 10 0
BBX 10 10 0 -2
BITMAP
0000
0000
0000
0000
0000
0000
0000
0000
0000
0000
ENDCHAR

STARTCHAR C2c3d
ENCODING 11325
SWIDTH 1000 0
DWIDTH 10 0
BBX 10 10 0 -2
BITMAP
0000
0000
0000
0000
0000
0000
0000
0000
0000
0000
ENDCHAR

STARTCHAR C2c3e
ENCODING 11326
SWIDTH 1000 0
DWIDTH 10 0
BBX 10 10 0 -2
BITMAP
0000
0000
0000
0000
0000
0000
0000
0000
0000
0000
ENDCHAR

STARTCHAR C2c3f
ENCODING 11327
SWIDTH 1000 0
DWIDTH 10 0
BBX 10 10 0 -2
BITMAP
0000
0000
0000
0000
0000
0000
0000
0000
0000
0000
ENDCHAR

STARTCHAR C2c40
ENCODING 11328
SWIDTH 1000 0
DWIDTH 10 0
BBX 10 10 0 -2
BITMAP
0000
0000
0000
0000
0000
0000
0000
0000
0000
0000
ENDCHAR

STARTCHAR C2c41
ENCODING 11329
SWIDTH 1000 0
DWIDTH 10 0
BBX 10 10 0 -2
BITMAP
0000
0000
0000
0000
0000
0000
0000
0000
0000
0000
ENDCHAR

STARTCHAR C2c42
ENCODING 11330
SWIDTH 1000 0
DWIDTH 10 0
BBX 10 10 0 -2
BITMAP
0000
0000
0000
0000
0000
0000
0000
0000
0000
0000
ENDCHAR

STARTCHAR C2c43
ENCODING 11331
SWIDTH 1000 0
DWIDTH 10 0
BBX 10 10 0 -2
BITMAP
0000
0000
0000
0000
0000
0000
0000
0000
0000
0000
ENDCHAR

STARTCHAR C2c44
ENCODING 11332
SWIDTH 1000 0
DWIDTH 10 0
BBX 10 10 0 -2
BITMAP
0000
0000
0000
0000
0000
0000
0000
0000
0000
0000
ENDCHAR

STARTCHAR C2c45
ENCODING 11333
SWIDTH 1000 0
DWIDTH 10 0
BBX 10 10 0 -2
BITMAP
0000
0000
0000
0000
0000
0000
0000
0000
0000
0000
ENDCHAR

STARTCHAR C2c46
ENCODING 11334
SWIDTH 1000 0
DWIDTH 10 0
BBX 10 10 0 -2
BITMAP
0000
0000
0000
0000
0000
0000
0000
0000
0000
0000
ENDCHAR

STARTCHAR C2c47
ENCODING 11335
SWIDTH 1000 0
DWIDTH 10 0
BBX 10 10 0 -2
BITMAP
0000
0000
0000
0000
0000
0000
0000
0000
0000
0000
ENDCHAR

STARTCHAR C2c48
ENCODING 11336
SWIDTH 1000 0
DWIDTH 10 0
BBX 10 10 0 -2
BITMAP
0000
0000
0000
0000
0000
0000
0000
0000
0000
0000
ENDCHAR

STARTCHAR C2c49
ENCODING 11337
SWIDTH 1000 0
DWIDTH 10 0
BBX 10 10 0 -2
BITMAP
0000
0000
0000
0000
0000
0000
0000
0000
0000
0000
ENDCHAR

STARTCHAR C2c4a
ENCODING 11338
SWIDTH 1000 0
DWIDTH 10 0
BBX 10 10 0 -2
BITMAP
0000
0000
0000
0000
0000
0000
0000
0000
0000
0000
ENDCHAR

STARTCHAR C2c4b
ENCODING 11339
SWIDTH 1000 0
DWIDTH 10 0
BBX 10 10 0 -2
BITMAP
0000
0000
0000
0000
0000
0000
0000
0000
0000
0000
ENDCHAR

STARTCHAR C2c4c
ENCODING 11340
SWIDTH 1000 0
DWIDTH 10 0
BBX 10 10 0 -2
BITMAP
0000
0000
0000
0000
0000
0000
0000
0000
0000
0000
ENDCHAR

STARTCHAR C2c4d
ENCODING 11341
SWIDTH 1000 0
DWIDTH 10 0
BBX 10 10 0 -2
BITMAP
0000
0000
0000
0000
0000
0000
0000
0000
0000
0000
ENDCHAR

STARTCHAR C2c4e
ENCODING 11342
SWIDTH 1000 0
DWIDTH 10 0
BBX 10 10 0 -2
BITMAP
0000
0000
0000
0000
0000
0000
0000
0000
0000
0000
ENDCHAR

STARTCHAR C2c4f
ENCODING 11343
SWIDTH 1000 0
DWIDTH 10 0
BBX 10 10 0 -2
BITMAP
0000
0000
0000
0000
0000
0000
0000
0000
0000
0000
ENDCHAR

STARTCHAR C2c50
ENCODING 11344
SWIDTH 1000 0
DWIDTH 10 0
BBX 10 10 0 -2
BITMAP
0000
0000
0000
0000
0000
0000
0000
0000
0000
0000
ENDCHAR

STARTCHAR C2c51
ENCODING 11345
SWIDTH 1000 0
DWIDTH 10 0
BBX 10 10 0 -2
BITMAP
0000
0000
0000
0000
0000
0000
0000
0000
0000
0000
ENDCHAR

STARTCHAR C2c52
ENCODING 11346
SWIDTH 1000 0
DWIDTH 10 0
BBX 10 10 0 -2
BITMAP
0000
0000
0000
0000
0000
0000
0000
0000
0000
0000
ENDCHAR

STARTCHAR C2c53
ENCODING 11347
SWIDTH 1000 0
DWIDTH 10 0
BBX 10 10 0 -2
BITMAP
0000
0000
0000
0000
0000
0000
0000
0000
0000
0000
ENDCHAR

STARTCHAR C2c54
ENCODING 11348
SWIDTH 1000 0
DWIDTH 10 0
BBX 10 10 0 -2
BITMAP
0000
0000
0000
0000
0000
0000
0000
0000
0000
0000
ENDCHAR

STARTCHAR C2c55
ENCODING 11349
SWIDTH 1000 0
DWIDTH 10 0
BBX 10 10 0 -2
BITMAP
0000
0000
0000
0000
0000
0000
0000
0000
0000
0000
ENDCHAR

STARTCHAR C2c56
ENCODING 11350
SWIDTH 1000 0
DWIDTH 10 0
BBX 10 10 0 -2
BITMAP
0000
0000
0000
0000
0000
0000
0000
0000
0000
0000
ENDCHAR

STARTCHAR C2c57
ENCODING 11351
SWIDTH 1000 0
DWIDTH 10 0
BBX 10 10 0 -2
BITMAP
0000
0000
0000
0000
0000
0000
0000
0000
0000
0000
ENDCHAR

STARTCHAR C2c58
ENCODING 11352
SWIDTH 1000 0
DWIDTH 10 0
BBX 10 10 0 -2
BITMAP
0000
0000
0000
0000
0000
0000
0000
0000
0000
0000
ENDCHAR

STARTCHAR C2c59
ENCODING 11353
SWIDTH 1000 0
DWIDTH 10 0
BBX 10 10 0 -2
BITMAP
0000
0000
0000
0000
0000
0000
0000
0000
0000
0000
ENDCHAR

STARTCHAR C2c5a
ENCODING 11354
SWIDTH 1000 0
DWIDTH 10 0
BBX 10 10 0 -2
BITMAP
0000
0000
0000
0000
0000
0000
0000
0000
0000
0000
ENDCHAR

STARTCHAR C2c5b
ENCODING 11355
SWIDTH 1000 0
DWIDTH 10 0
BBX 10 10 0 -2
BITMAP
0000
0000
0000
0000
0000
0000
0000
0000
0000
0000
ENDCHAR

STARTCHAR C2c5c
ENCODING 11356
SWIDTH 1000 0
DWIDTH 10 0
BBX 10 10 0 -2
BITMAP
0000
0000
0000
0000
0000
0000
0000
0000
0000
0000
ENDCHAR

STARTCHAR C2c5d
ENCODING 11357
SWIDTH 1000 0
DWIDTH 10 0
BBX 10 10 0 -2
BITMAP
0000
0000
0000
0000
0000
0000
0000
0000
0000
0000
ENDCHAR

STARTCHAR C2c5e
ENCODING 11358
SWIDTH 1000 0
DWIDTH 10 0
BBX 10 10 0 -2
BITMAP
0000
0000
0000
0000
0000
0000
0000
0000
0000
0000
ENDCHAR

STARTCHAR C2c5f
ENCODING 11359
SWIDTH 1000 0
DWIDTH 10 0
BBX 10 10 0 -2
BITMAP
0000
0000
0000
0000
0000
0000
0000
0000
0000
0000
ENDCHAR

STARTCHAR C2c60
ENCODING 11360
SWIDTH 1000 0
DWIDTH 10 0
BBX 10 10 0 -2
BITMAP
0000
0000
0000
0000
0000
0000
0000
0000
0000
0000
ENDCHAR

STARTCHAR C2c61
ENCODING 11361
SWIDTH 1000 0
DWIDTH 10 0
BBX 10 10 0 -2
BITMAP
0000
0000
0000
0000
0000
0000
0000
0000
0000
0000
ENDCHAR

STARTCHAR C2c62
ENCODING 11362
SWIDTH 1000 0
DWIDTH 10 0
BBX 10 10 0 -2
BITMAP
0000
0000
0000
0000
0000
0000
0000
0000
0000
0000
ENDCHAR

STARTCHAR C2c63
ENCODING 11363
SWIDTH 1000 0
DWIDTH 10 0
BBX 10 10 0 -2
BITMAP
0000
0000
0000
0000
0000
0000
0000
0000
0000
0000
ENDCHAR

STARTCHAR C2c64
ENCODING 11364
SWIDTH 1000 0
DWIDTH 10 0
BBX 10 10 0 -2
BITMAP
0000
0000
0000
0000
0000
0000
0000
0000
0000
0000
ENDCHAR

STARTCHAR C2c65
ENCODING 11365
SWIDTH 1000 0
DWIDTH 10 0
BBX 10 10 0 -2
BITMAP
0000
0000
0000
0000
0000
0000
0000
0000
0000
0000
ENDCHAR

STARTCHAR C2c66
ENCODING 11366
SWIDTH 1000 0
DWIDTH 10 0
BBX 10 10 0 -2
BITMAP
0000
0000
0000
0000
0000
0000
0000
0000
0000
0000
ENDCHAR

STARTCHAR C2c67
ENCODING 11367
SWIDTH 1000 0
DWIDTH 10 0
BBX 10 10 0 -2
BITMAP
0000
0000
0000
0000
0000
0000
0000
0000
0000
0000
ENDCHAR

STARTCHAR C2c68
ENCODING 11368
SWIDTH 1000 0
DWIDTH 10 0
BBX 10 10 0 -2
BITMAP
0000
0000
0000
0000
0000
0000
0000
0000
0000
0000
ENDCHAR

STARTCHAR C2c69
ENCODING 11369
SWIDTH 1000 0
DWIDTH 10 0
BBX 10 10 0 -2
BITMAP
0000
0000
0000
0000
0000
0000
0000
0000
0000
0000
ENDCHAR

STARTCHAR C2c6a
ENCODING 11370
SWIDTH 1000 0
DWIDTH 10 0
BBX 10 10 0 -2
BITMAP
0000
0000
0000
0000
0000
0000
0000
0000
0000
0000
ENDCHAR

STARTCHAR C2c6b
ENCODING 11371
SWIDTH 1000 0
DWIDTH 10 0
BBX 10 10 0 -2
BITMAP
0000
0000
0000
0000
0000
0000
0000
0000
0000
0000
ENDCHAR

STARTCHAR C2c6c
ENCODING 11372
SWIDTH 1000 0
DWIDTH 10 0
BBX 10 10 0 -2
BITMAP
0000
0000
0000
0000
0000
0000
0000
0000
0000
0000
ENDCHAR

STARTCHAR C2c6d
ENCODING 11373
SWIDTH 1000 0
DWIDTH 10 0
BBX 10 10 0 -2
BITMAP
0000
0000
0000
0000
0000
0000
0000
0000
0000
0000
ENDCHAR

STARTCHAR C2c6e
ENCODING 11374
SWIDTH 1000 0
DWIDTH 10 0
BBX 10 10 0 -2
BITMAP
0000
0000
0000
0000
0000
0000
0000
0000
0000
0000
ENDCHAR

STARTCHAR C2c6f
ENCODING 11375
SWIDTH 1000 0
DWIDTH 10 0
BBX 10 10 0 -2
BITMAP
0000
0000
0000
0000
0000
0000
0000
0000
0000
0000
ENDCHAR

STARTCHAR C2c70
ENCODING 11376
SWIDTH 1000 0
DWIDTH 10 0
BBX 10 10 0 -2
BITMAP
0000
0000
0000
0000
0000
0000
0000
0000
0000
0000
ENDCHAR

STARTCHAR C2c71
ENCODING 11377
SWIDTH 1000 0
DWIDTH 10 0
BBX 10 10 0 -2
BITMAP
0000
0000
0000
0000
0000
0000
0000
0000
0000
0000
ENDCHAR

STARTCHAR C2c72
ENCODING 11378
SWIDTH 1000 0
DWIDTH 10 0
BBX 10 10 0 -2
BITMAP
0000
0000
0000
0000
0000
0000
0000
0000
0000
0000
ENDCHAR

STARTCHAR C2c73
ENCODING 11379
SWIDTH 1000 0
DWIDTH 10 0
BBX 10 10 0 -2
BITMAP
0000
0000
0000
0000
0000
0000
0000
0000
0000
0000
ENDCHAR

STARTCHAR C2c74
ENCODING 11380
SWIDTH 1000 0
DWIDTH 10 0
BBX 10 10 0 -2
BITMAP
0000
0000
0000
0000
0000
0000
0000
0000
0000
0000
ENDCHAR

STARTCHAR C2c75
ENCODING 11381
SWIDTH 1000 0
DWIDTH 10 0
BBX 10 10 0 -2
BITMAP
0000
0000
0000
0000
0000
0000
0000
0000
0000
0000
ENDCHAR

STARTCHAR C2c76
ENCODING 11382
SWIDTH 1000 0
DWIDTH 10 0
BBX 10 10 0 -2
BITMAP
0000
0000
0000
0000
0000
0000
0000
0000
0000
0000
ENDCHAR

STARTCHAR C2c77
ENCODING 11383
SWIDTH 1000 0
DWIDTH 10 0
BBX 10 10 0 -2
BITMAP
0000
0000
0000
0000
0000
0000
0000
0000
0000
0000
ENDCHAR

STARTCHAR C2c78
ENCODING 11384
SWIDTH 1000 0
DWIDTH 10 0
BBX 10 10 0 -2
BITMAP
0000
0000
0000
0000
0000
0000
0000
0000
0000
0000
ENDCHAR

STARTCHAR C2c79
ENCODING 11385
SWIDTH 1000 0
DWIDTH 10 0
BBX 10 10 0 -2
BITMAP
0000
0000
0000
0000
0000
0000
0000
0000
0000
0000
ENDCHAR

STARTCHAR C2c7a
ENCODING 11386
SWIDTH 1000 0
DWIDTH 10 0
BBX 10 10 0 -2
BITMAP
0000
0000
0000
0000
0000
0000
0000
0000
0000
0000
ENDCHAR

STARTCHAR C2c7b
ENCODING 11387
SWIDTH 1000 0
DWIDTH 10 0
BBX 10 10 0 -2
BITMAP
0000
0000
0000
0000
0000
0000
0000
0000
0000
0000
ENDCHAR

STARTCHAR C2c7c
ENCODING 11388
SWIDTH 1000 0
DWIDTH 10 0
BBX 10 10 0 -2
BITMAP
0000
0000
0000
0000
0000
0000
0000
0000
0000
0000
ENDCHAR

STARTCHAR C2c7d
ENCODING 11389
SWIDTH 1000 0
DWIDTH 10 0
BBX 10 10 0 -2
BITMAP
0000
0000
0000
0000
0000
0000
0000
0000
0000
0000
ENDCHAR

STARTCHAR C2c7e
ENCODING 11390
SWIDTH 1000 0
DWIDTH 10 0
BBX 10 10 0 -2
BITMAP
0000
0000
0000
0000
0000
0000
0000
0000
0000
0000
ENDCHAR

STARTCHAR C2d21
ENCODING 11553
SWIDTH 1000 0
DWIDTH 10 0
BBX 10 10 0 -2
BITMAP
0000
0000
0000
0000
0000
0000
0000
0000
0000
0000
ENDCHAR

STARTCHAR C2d22
ENCODING 11554
SWIDTH 1000 0
DWIDTH 10 0
BBX 10 10 0 -2
BITMAP
0000
0000
0000
0000
0000
0000
0000
0000
0000
0000
ENDCHAR

STARTCHAR C2d23
ENCODING 11555
SWIDTH 1000 0
DWIDTH 10 0
BBX 10 10 0 -2
BITMAP
0000
0000
0000
0000
0000
0000
0000
0000
0000
0000
ENDCHAR

STARTCHAR C2d24
ENCODING 11556
SWIDTH 1000 0
DWIDTH 10 0
BBX 10 10 0 -2
BITMAP
0000
0000
0000
0000
0000
0000
0000
0000
0000
0000
ENDCHAR

STARTCHAR C2d25
ENCODING 11557
SWIDTH 1000 0
DWIDTH 10 0
BBX 10 10 0 -2
BITMAP
0000
0000
0000
0000
0000
0000
0000
0000
0000
0000
ENDCHAR

STARTCHAR C2d26
ENCODING 11558
SWIDTH 1000 0
DWIDTH 10 0
BBX 10 10 0 -2
BITMAP
0000
0000
0000
0000
0000
0000
0000
0000
0000
0000
ENDCHAR

STARTCHAR C2d27
ENCODING 11559
SWIDTH 1000 0
DWIDTH 10 0
BBX 10 10 0 -2
BITMAP
0000
0000
0000
0000
0000
0000
0000
0000
0000
0000
ENDCHAR

STARTCHAR C2d28
ENCODING 11560
SWIDTH 1000 0
DWIDTH 10 0
BBX 10 10 0 -2
BITMAP
0000
0000
0000
0000
0000
0000
0000
0000
0000
0000
ENDCHAR

STARTCHAR C2d29
ENCODING 11561
SWIDTH 1000 0
DWIDTH 10 0
BBX 10 10 0 -2
BITMAP
0000
0000
0000
0000
0000
0000
0000
0000
0000
0000
ENDCHAR

STARTCHAR C2d2a
ENCODING 11562
SWIDTH 1000 0
DWIDTH 10 0
BBX 10 10 0 -2
BITMAP
0000
0000
0000
0000
0000
0000
0000
0000
0000
0000
ENDCHAR

STARTCHAR C2d2b
ENCODING 11563
SWIDTH 1000 0
DWIDTH 10 0
BBX 10 10 0 -2
BITMAP
0000
0000
0000
0000
0000
0000
0000
0000
0000
0000
ENDCHAR

STARTCHAR C2d2c
ENCODING 11564
SWIDTH 1000 0
DWIDTH 10 0
BBX 10 10 0 -2
BITMAP
0000
0000
0000
0000
0000
0000
0000
0000
0000
0000
ENDCHAR

STARTCHAR C2d2d
ENCODING 11565
SWIDTH 1000 0
DWIDTH 10 0
BBX 10 10 0 -2
BITMAP
0000
0000
0000
0000
0000
0000
0000
0000
0000
0000
ENDCHAR

STARTCHAR C2d2e
ENCODING 11566
SWIDTH 1000 0
DWIDTH 10 0
BBX 10 10 0 -2
BITMAP
0000
0000
0000
0000
0000
0000
0000
0000
0000
0000
ENDCHAR

STARTCHAR C2d2f
ENCODING 11567
SWIDTH 1000 0
DWIDTH 10 0
BBX 10 10 0 -2
BITMAP
0000
0000
0000
0000
0000
0000
0000
0000
0000
0000
ENDCHAR

STARTCHAR C2d30
ENCODING 11568
SWIDTH 1000 0
DWIDTH 10 0
BBX 10 10 0 -2
BITMAP
0000
0000
0000
0000
0000
0000
0000
0000
0000
0000
ENDCHAR

STARTCHAR C2d31
ENCODING 11569
SWIDTH 1000 0
DWIDTH 10 0
BBX 10 10 0 -2
BITMAP
0000
0000
0000
0000
0000
0000
0000
0000
0000
0000
ENDCHAR

STARTCHAR C2d32
ENCODING 11570
SWIDTH 1000 0
DWIDTH 10 0
BBX 10 10 0 -2
BITMAP
0000
0000
0000
0000
0000
0000
0000
0000
0000
0000
ENDCHAR

STARTCHAR C2d33
ENCODING 11571
SWIDTH 1000 0
DWIDTH 10 0
BBX 10 10 0 -2
BITMAP
0000
0000
0000
0000
0000
0000
0000
0000
0000
0000
ENDCHAR

STARTCHAR C2d34
ENCODING 11572
SWIDTH 1000 0
DWIDTH 10 0
BBX 10 10 0 -2
BITMAP
0000
0000
0000
0000
0000
0000
0000
0000
0000
0000
ENDCHAR

STARTCHAR C2d35
ENCODING 11573
SWIDTH 1000 0
DWIDTH 10 0
BBX 10 10 0 -2
BITMAP
0000
0000
0000
0000
0000
0000
0000
0000
0000
0000
ENDCHAR

STARTCHAR C2d36
ENCODING 11574
SWIDTH 1000 0
DWIDTH 10 0
BBX 10 10 0 -2
BITMAP
0000
0000
0000
0000
0000
0000
0000
0000
0000
0000
ENDCHAR

STARTCHAR C2d37
ENCODING 11575
SWIDTH 1000 0
DWIDTH 10 0
BBX 10 10 0 -2
BITMAP
0000
0000
0000
0000
0000
0000
0000
0000
0000
0000
ENDCHAR

STARTCHAR C2d38
ENCODING 11576
SWIDTH 1000 0
DWIDTH 10 0
BBX 10 10 0 -2
BITMAP
0000
0000
0000
0000
0000
0000
0000
0000
0000
0000
ENDCHAR

STARTCHAR C2d39
ENCODING 11577
SWIDTH 1000 0
DWIDTH 10 0
BBX 10 10 0 -2
BITMAP
0000
0000
0000
0000
0000
0000
0000
0000
0000
0000
ENDCHAR

STARTCHAR C2d3a
ENCODING 11578
SWIDTH 1000 0
DWIDTH 10 0
BBX 10 10 0 -2
BITMAP
0000
0000
0000
0000
0000
0000
0000
0000
0000
0000
ENDCHAR

STARTCHAR C2d3b
ENCODING 11579
SWIDTH 1000 0
DWIDTH 10 0
BBX 10 10 0 -2
BITMAP
0000
0000
0000
0000
0000
0000
0000
0000
0000
0000
ENDCHAR

STARTCHAR C2d3c
ENCODING 11580
SWIDTH 1000 0
DWIDTH 10 0
BBX 10 10 0 -2
BITMAP
0000
0000
0000
0000
0000
0000
0000
0000
0000
0000
ENDCHAR

STARTCHAR C2d3d
ENCODING 11581
SWIDTH 1000 0
DWIDTH 10 0
BBX 10 10 0 -2
BITMAP
0000
0000
0000
0000
0000
0000
0000
0000
0000
0000
ENDCHAR

STARTCHAR C2d3e
ENCODING 11582
SWIDTH 1000 0
DWIDTH 10 0
BBX 10 10 0 -2
BITMAP
0000
0000
0000
0000
0000
0000
0000
0000
0000
0000
ENDCHAR

STARTCHAR C2d3f
ENCODING 11583
SWIDTH 1000 0
DWIDTH 10 0
BBX 10 10 0 -2
BITMAP
0000
0000
0000
0000
0000
0000
0000
0000
0000
0000
ENDCHAR

STARTCHAR C2d40
ENCODING 11584
SWIDTH 1000 0
DWIDTH 10 0
BBX 10 10 0 -2
BITMAP
0000
0000
0000
0000
0000
0000
0000
0000
0000
0000
ENDCHAR

STARTCHAR C2d41
ENCODING 11585
SWIDTH 1000 0
DWIDTH 10 0
BBX 10 10 0 -2
BITMAP
0000
0000
0000
0000
0000
0000
0000
0000
0000
0000
ENDCHAR

STARTCHAR C2d42
ENCODING 11586
SWIDTH 1000 0
DWIDTH 10 0
BBX 10 10 0 -2
BITMAP
0000
0000
0000
0000
0000
0000
0000
0000
0000
0000
ENDCHAR

STARTCHAR C2d43
ENCODING 11587
SWIDTH 1000 0
DWIDTH 10 0
BBX 10 10 0 -2
BITMAP
0000
0000
0000
0000
0000
0000
0000
0000
0000
0000
ENDCHAR

STARTCHAR C2d44
ENCODING 11588
SWIDTH 1000 0
DWIDTH 10 0
BBX 10 10 0 -2
BITMAP
0000
0000
0000
0000
0000
0000
0000
0000
0000
0000
ENDCHAR

STARTCHAR C2d45
ENCODING 11589
SWIDTH 1000 0
DWIDTH 10 0
BBX 10 10 0 -2
BITMAP
0000
0000
0000
0000
0000
0000
0000
0000
0000
0000
ENDCHAR

STARTCHAR C2d46
ENCODING 11590
SWIDTH 1000 0
DWIDTH 10 0
BBX 10 10 0 -2
BITMAP
0000
0000
0000
0000
0000
0000
0000
0000
0000
0000
ENDCHAR

STARTCHAR C2d47
ENCODING 11591
SWIDTH 1000 0
DWIDTH 10 0
BBX 10 10 0 -2
BITMAP
0000
0000
0000
0000
0000
0000
0000
0000
0000
0000
ENDCHAR

STARTCHAR C2d48
ENCODING 11592
SWIDTH 1000 0
DWIDTH 10 0
BBX 10 10 0 -2
BITMAP
0000
0000
0000
0000
0000
0000
0000
0000
0000
0000
ENDCHAR

STARTCHAR C2d49
ENCODING 11593
SWIDTH 1000 0
DWIDTH 10 0
BBX 10 10 0 -2
BITMAP
0000
0000
0000
0000
0000
0000
0000
0000
0000
0000
ENDCHAR

STARTCHAR C2d4a
ENCODING 11594
SWIDTH 1000 0
DWIDTH 10 0
BBX 10 10 0 -2
BITMAP
0000
0000
0000
0000
0000
0000
0000
0000
0000
0000
ENDCHAR

STARTCHAR C2d4b
ENCODING 11595
SWIDTH 1000 0
DWIDTH 10 0
BBX 10 10 0 -2
BITMAP
0000
0000
0000
0000
0000
0000
0000
0000
0000
0000
ENDCHAR

STARTCHAR C2d4c
ENCODING 11596
SWIDTH 1000 0
DWIDTH 10 0
BBX 10 10 0 -2
BITMAP
0000
0000
0000
0000
0000
0000
0000
0000
0000
0000
ENDCHAR

STARTCHAR C2d4d
ENCODING 11597
SWIDTH 1000 0
DWIDTH 10 0
BBX 10 10 0 -2
BITMAP
0000
0000
0000
0000
0000
0000
0000
0000
0000
0000
ENDCHAR

STARTCHAR C2d4e
ENCODING 11598
SWIDTH 1000 0
DWIDTH 10 0
BBX 10 10 0 -2
BITMAP
0000
0000
0000
0000
0000
0000
0000
0000
0000
0000
ENDCHAR

STARTCHAR C2d4f
ENCODING 11599
SWIDTH 1000 0
DWIDTH 10 0
BBX 10 10 0 -2
BITMAP
0000
0000
0000
0000
0000
0000
0000
0000
0000
0000
ENDCHAR

STARTCHAR C2d50
ENCODING 11600
SWIDTH 1000 0
DWIDTH 10 0
BBX 10 10 0 -2
BITMAP
0000
0000
0000
0000
0000
0000
0000
0000
0000
0000
ENDCHAR

STARTCHAR C2d51
ENCODING 11601
SWIDTH 1000 0
DWIDTH 10 0
BBX 10 10 0 -2
BITMAP
0000
0000
0000
0000
0000
0000
0000
0000
0000
0000
ENDCHAR

STARTCHAR C2d52
ENCODING 11602
SWIDTH 1000 0
DWIDTH 10 0
BBX 10 10 0 -2
BITMAP
0000
0000
0000
0000
0000
0000
0000
0000
0000
0000
ENDCHAR

STARTCHAR C2d53
ENCODING 11603
SWIDTH 1000 0
DWIDTH 10 0
BBX 10 10 0 -2
BITMAP
0000
0000
0000
0000
0000
0000
0000
0000
0000
0000
ENDCHAR

STARTCHAR C2d54
ENCODING 11604
SWIDTH 1000 0
DWIDTH 10 0
BBX 10 10 0 -2
BITMAP
0000
0000
0000
0000
0000
0000
0000
0000
0000
0000
ENDCHAR

STARTCHAR C2d55
ENCODING 11605
SWIDTH 1000 0
DWIDTH 10 0
BBX 10 10 0 -2
BITMAP
0000
0000
0000
0000
0000
0000
0000
0000
0000
0000
ENDCHAR

STARTCHAR C2d56
ENCODING 11606
SWIDTH 1000 0
DWIDTH 10 0
BBX 10 10 0 -2
BITMAP
0000
0000
0000
0000
0000
0000
0000
0000
0000
0000
ENDCHAR

STARTCHAR C2d57
ENCODING 11607
SWIDTH 1000 0
DWIDTH 10 0
BBX 10 10 0 -2
BITMAP
0000
0000
0000
0000
0000
0000
0000
0000
0000
0000
ENDCHAR

STARTCHAR C2d58
ENCODING 11608
SWIDTH 1000 0
DWIDTH 10 0
BBX 10 10 0 -2
BITMAP
0000
0000
0000
0000
0000
0000
0000
0000
0000
0000
ENDCHAR

STARTCHAR C2d59
ENCODING 11609
SWIDTH 1000 0
DWIDTH 10 0
BBX 10 10 0 -2
BITMAP
0000
0000
0000
0000
0000
0000
0000
0000
0000
0000
ENDCHAR

STARTCHAR C2d5a
ENCODING 11610
SWIDTH 1000 0
DWIDTH 10 0
BBX 10 10 0 -2
BITMAP
0000
0000
0000
0000
0000
0000
0000
0000
0000
0000
ENDCHAR

STARTCHAR C2d5b
ENCODING 11611
SWIDTH 1000 0
DWIDTH 10 0
BBX 10 10 0 -2
BITMAP
0000
0000
0000
0000
0000
0000
0000
0000
0000
0000
ENDCHAR

STARTCHAR C2d5c
ENCODING 11612
SWIDTH 1000 0
DWIDTH 10 0
BBX 10 10 0 -2
BITMAP
0000
0000
0000
0000
0000
0000
0000
0000
0000
0000
ENDCHAR

STARTCHAR C2d5d
ENCODING 11613
SWIDTH 1000 0
DWIDTH 10 0
BBX 10 10 0 -2
BITMAP
0000
0000
0000
0000
0000
0000
0000
0000
0000
0000
ENDCHAR

STARTCHAR C2d5e
ENCODING 11614
SWIDTH 1000 0
DWIDTH 10 0
BBX 10 10 0 -2
BITMAP
0000
0000
0000
0000
0000
0000
0000
0000
0000
0000
ENDCHAR

STARTCHAR C2d5f
ENCODING 11615
SWIDTH 1000 0
DWIDTH 10 0
BBX 10 10 0 -2
BITMAP
0000
0000
0000
0000
0000
0000
0000
0000
0000
0000
ENDCHAR

STARTCHAR C2d60
ENCODING 11616
SWIDTH 1000 0
DWIDTH 10 0
BBX 10 10 0 -2
BITMAP
0000
0000
0000
0000
0000
0000
0000
0000
0000
0000
ENDCHAR

STARTCHAR C2d61
ENCODING 11617
SWIDTH 1000 0
DWIDTH 10 0
BBX 10 10 0 -2
BITMAP
0000
0000
0000
0000
0000
0000
0000
0000
0000
0000
ENDCHAR

STARTCHAR C2d62
ENCODING 11618
SWIDTH 1000 0
DWIDTH 10 0
BBX 10 10 0 -2
BITMAP
0000
0000
0000
0000
0000
0000
0000
0000
0000
0000
ENDCHAR

STARTCHAR C2d63
ENCODING 11619
SWIDTH 1000 0
DWIDTH 10 0
BBX 10 10 0 -2
BITMAP
0000
0000
0000
0000
0000
0000
0000
0000
0000
0000
ENDCHAR

STARTCHAR C2d64
ENCODING 11620
SWIDTH 1000 0
DWIDTH 10 0
BBX 10 10 0 -2
BITMAP
0000
0000
0000
0000
0000
0000
0000
0000
0000
0000
ENDCHAR

STARTCHAR C2d65
ENCODING 11621
SWIDTH 1000 0
DWIDTH 10 0
BBX 10 10 0 -2
BITMAP
0000
0000
0000
0000
0000
0000
0000
0000
0000
0000
ENDCHAR

STARTCHAR C2d66
ENCODING 11622
SWIDTH 1000 0
DWIDTH 10 0
BBX 10 10 0 -2
BITMAP
0000
0000
0000
0000
0000
0000
0000
0000
0000
0000
ENDCHAR

STARTCHAR C2d67
ENCODING 11623
SWIDTH 1000 0
DWIDTH 10 0
BBX 10 10 0 -2
BITMAP
0000
0000
0000
0000
0000
0000
0000
0000
0000
0000
ENDCHAR

STARTCHAR C2d68
ENCODING 11624
SWIDTH 1000 0
DWIDTH 10 0
BBX 10 10 0 -2
BITMAP
0000
0000
0000
0000
0000
0000
0000
0000
0000
0000
ENDCHAR

STARTCHAR C2d69
ENCODING 11625
SWIDTH 1000 0
DWIDTH 10 0
BBX 10 10 0 -2
BITMAP
0000
0000
0000
0000
0000
0000
0000
0000
0000
0000
ENDCHAR

STARTCHAR C2d6a
ENCODING 11626
SWIDTH 1000 0
DWIDTH 10 0
BBX 10 10 0 -2
BITMAP
0000
0000
0000
0000
0000
0000
0000
0000
0000
0000
ENDCHAR

STARTCHAR C2d6b
ENCODING 11627
SWIDTH 1000 0
DWIDTH 10 0
BBX 10 10 0 -2
BITMAP
0000
0000
0000
0000
0000
0000
0000
0000
0000
0000
ENDCHAR

STARTCHAR C2d6c
ENCODING 11628
SWIDTH 1000 0
DWIDTH 10 0
BBX 10 10 0 -2
BITMAP
0000
0000
0000
0000
0000
0000
0000
0000
0000
0000
ENDCHAR

STARTCHAR C2d6d
ENCODING 11629
SWIDTH 1000 0
DWIDTH 10 0
BBX 10 10 0 -2
BITMAP
0000
0000
0000
0000
0000
0000
0000
0000
0000
0000
ENDCHAR

STARTCHAR C2d6e
ENCODING 11630
SWIDTH 1000 0
DWIDTH 10 0
BBX 10 10 0 -2
BITMAP
0000
0000
0000
0000
0000
0000
0000
0000
0000
0000
ENDCHAR

STARTCHAR C2d6f
ENCODING 11631
SWIDTH 1000 0
DWIDTH 10 0
BBX 10 10 0 -2
BITMAP
0000
0000
0000
0000
0000
0000
0000
0000
0000
0000
ENDCHAR

STARTCHAR C2d70
ENCODING 11632
SWIDTH 1000 0
DWIDTH 10 0
BBX 10 10 0 -2
BITMAP
0000
0000
0000
0000
0000
0000
0000
0000
0000
0000
ENDCHAR

STARTCHAR C2d71
ENCODING 11633
SWIDTH 1000 0
DWIDTH 10 0
BBX 10 10 0 -2
BITMAP
0000
0000
0000
0000
0000
0000
0000
0000
0000
0000
ENDCHAR

STARTCHAR C2d72
ENCODING 11634
SWIDTH 1000 0
DWIDTH 10 0
BBX 10 10 0 -2
BITMAP
0000
0000
0000
0000
0000
0000
0000
0000
0000
0000
ENDCHAR

STARTCHAR C2d73
ENCODING 11635
SWIDTH 1000 0
DWIDTH 10 0
BBX 10 10 0 -2
BITMAP
0000
0000
0000
0000
0000
0000
0000
0000
0000
0000
ENDCHAR

STARTCHAR C2d74
ENCODING 11636
SWIDTH 1000 0
DWIDTH 10 0
BBX 10 10 0 -2
BITMAP
0000
0000
0000
0000
0000
0000
0000
0000
0000
0000
ENDCHAR

STARTCHAR C2d75
ENCODING 11637
SWIDTH 1000 0
DWIDTH 10 0
BBX 10 10 0 -2
BITMAP
0000
0000
0000
0000
0000
0000
0000
0000
0000
0000
ENDCHAR

STARTCHAR C2d76
ENCODING 11638
SWIDTH 1000 0
DWIDTH 10 0
BBX 10 10 0 -2
BITMAP
0000
0000
0000
0000
0000
0000
0000
0000
0000
0000
ENDCHAR

STARTCHAR C2d77
ENCODING 11639
SWIDTH 1000 0
DWIDTH 10 0
BBX 10 10 0 -2
BITMAP
0000
0000
0000
0000
0000
0000
0000
0000
0000
0000
ENDCHAR

STARTCHAR C2d78
ENCODING 11640
SWIDTH 1000 0
DWIDTH 10 0
BBX 10 10 0 -2
BITMAP
0000
0000
0000
0000
0000
0000
0000
0000
0000
0000
ENDCHAR

STARTCHAR C2d79
ENCODING 11641
SWIDTH 1000 0
DWIDTH 10 0
BBX 10 10 0 -2
BITMAP
0000
0000
0000
0000
0000
0000
0000
0000
0000
0000
ENDCHAR

STARTCHAR C2d7a
ENCODING 11642
SWIDTH 1000 0
DWIDTH 10 0
BBX 10 10 0 -2
BITMAP
0000
0000
0000
0000
0000
0000
0000
0000
0000
0000
ENDCHAR

STARTCHAR C2d7b
ENCODING 11643
SWIDTH 1000 0
DWIDTH 10 0
BBX 10 10 0 -2
BITMAP
0000
0000
0000
0000
0000
0000
0000
0000
0000
0000
ENDCHAR

STARTCHAR C2d7c
ENCODING 11644
SWIDTH 1000 0
DWIDTH 10 0
BBX 10 10 0 -2
BITMAP
0000
0000
0000
0000
0000
0000
0000
0000
0000
0000
ENDCHAR

STARTCHAR C2d7d
ENCODING 11645
SWIDTH 1000 0
DWIDTH 10 0
BBX 10 10 0 -2
BITMAP
0000
0000
0000
0000
0000
0000
0000
0000
0000
0000
ENDCHAR

STARTCHAR C2d7e
ENCODING 11646
SWIDTH 1000 0
DWIDTH 10 0
BBX 10 10 0 -2
BITMAP
0000
0000
0000
0000
0000
0000
0000
0000
0000
0000
ENDCHAR

STARTCHAR C2e21
ENCODING 11809
SWIDTH 1000 0
DWIDTH 10 0
BBX 10 10 0 -2
BITMAP
0000
0000
0000
0000
0000
0000
0000
0000
0000
0000
ENDCHAR

STARTCHAR C2e22
ENCODING 11810
SWIDTH 1000 0
DWIDTH 10 0
BBX 10 10 0 -2
BITMAP
0000
0000
0000
0000
0000
0000
0000
0000
0000
0000
ENDCHAR

STARTCHAR C2e23
ENCODING 11811
SWIDTH 1000 0
DWIDTH 10 0
BBX 10 10 0 -2
BITMAP
0000
0000
0000
0000
0000
0000
0000
0000
0000
0000
ENDCHAR

STARTCHAR C2e24
ENCODING 11812
SWIDTH 1000 0
DWIDTH 10 0
BBX 10 10 0 -2
BITMAP
0000
0000
0000
0000
0000
0000
0000
0000
0000
0000
ENDCHAR

STARTCHAR C2e25
ENCODING 11813
SWIDTH 1000 0
DWIDTH 10 0
BBX 10 10 0 -2
BITMAP
0000
0000
0000
0000
0000
0000
0000
0000
0000
0000
ENDCHAR

STARTCHAR C2e26
ENCODING 11814
SWIDTH 1000 0
DWIDTH 10 0
BBX 10 10 0 -2
BITMAP
0000
0000
0000
0000
0000
0000
0000
0000
0000
0000
ENDCHAR

STARTCHAR C2e27
ENCODING 11815
SWIDTH 1000 0
DWIDTH 10 0
BBX 10 10 0 -2
BITMAP
0000
0000
0000
0000
0000
0000
0000
0000
0000
0000
ENDCHAR

STARTCHAR C2e28
ENCODING 11816
SWIDTH 1000 0
DWIDTH 10 0
BBX 10 10 0 -2
BITMAP
0000
0000
0000
0000
0000
0000
0000
0000
0000
0000
ENDCHAR

STARTCHAR C2e29
ENCODING 11817
SWIDTH 1000 0
DWIDTH 10 0
BBX 10 10 0 -2
BITMAP
0000
0000
0000
0000
0000
0000
0000
0000
0000
0000
ENDCHAR

STARTCHAR C2e2a
ENCODING 11818
SWIDTH 1000 0
DWIDTH 10 0
BBX 10 10 0 -2
BITMAP
0000
0000
0000
0000
0000
0000
0000
0000
0000
0000
ENDCHAR

STARTCHAR C2e2b
ENCODING 11819
SWIDTH 1000 0
DWIDTH 10 0
BBX 10 10 0 -2
BITMAP
0000
0000
0000
0000
0000
0000
0000
0000
0000
0000
ENDCHAR

STARTCHAR C2e2c
ENCODING 11820
SWIDTH 1000 0
DWIDTH 10 0
BBX 10 10 0 -2
BITMAP
0000
0000
0000
0000
0000
0000
0000
0000
0000
0000
ENDCHAR

STARTCHAR C2e2d
ENCODING 11821
SWIDTH 1000 0
DWIDTH 10 0
BBX 10 10 0 -2
BITMAP
0000
0000
0000
0000
0000
0000
0000
0000
0000
0000
ENDCHAR

STARTCHAR C2e2e
ENCODING 11822
SWIDTH 1000 0
DWIDTH 10 0
BBX 10 10 0 -2
BITMAP
0000
0000
0000
0000
0000
0000
0000
0000
0000
0000
ENDCHAR

STARTCHAR C2e2f
ENCODING 11823
SWIDTH 1000 0
DWIDTH 10 0
BBX 10 10 0 -2
BITMAP
0000
0000
0000
0000
0000
0000
0000
0000
0000
0000
ENDCHAR

STARTCHAR C2e30
ENCODING 11824
SWIDTH 1000 0
DWIDTH 10 0
BBX 10 10 0 -2
BITMAP
0000
0000
0000
0000
0000
0000
0000
0000
0000
0000
ENDCHAR

STARTCHAR C2e31
ENCODING 11825
SWIDTH 1000 0
DWIDTH 10 0
BBX 10 10 0 -2
BITMAP
0000
0000
0000
0000
0000
0000
0000
0000
0000
0000
ENDCHAR

STARTCHAR C2e32
ENCODING 11826
SWIDTH 1000 0
DWIDTH 10 0
BBX 10 10 0 -2
BITMAP
0000
0000
0000
0000
0000
0000
0000
0000
0000
0000
ENDCHAR

STARTCHAR C2e33
ENCODING 11827
SWIDTH 1000 0
DWIDTH 10 0
BBX 10 10 0 -2
BITMAP
0000
0000
0000
0000
0000
0000
0000
0000
0000
0000
ENDCHAR

STARTCHAR C2e34
ENCODING 11828
SWIDTH 1000 0
DWIDTH 10 0
BBX 10 10 0 -2
BITMAP
0000
0000
0000
0000
0000
0000
0000
0000
0000
0000
ENDCHAR

STARTCHAR C2e35
ENCODING 11829
SWIDTH 1000 0
DWIDTH 10 0
BBX 10 10 0 -2
BITMAP
0000
0000
0000
0000
0000
0000
0000
0000
0000
0000
ENDCHAR

STARTCHAR C2e36
ENCODING 11830
SWIDTH 1000 0
DWIDTH 10 0
BBX 10 10 0 -2
BITMAP
0000
0000
0000
0000
0000
0000
0000
0000
0000
0000
ENDCHAR

STARTCHAR C2e37
ENCODING 11831
SWIDTH 1000 0
DWIDTH 10 0
BBX 10 10 0 -2
BITMAP
0000
0000
0000
0000
0000
0000
0000
0000
0000
0000
ENDCHAR

STARTCHAR C2e38
ENCODING 11832
SWIDTH 1000 0
DWIDTH 10 0
BBX 10 10 0 -2
BITMAP
0000
0000
0000
0000
0000
0000
0000
0000
0000
0000
ENDCHAR

STARTCHAR C2e39
ENCODING 11833
SWIDTH 1000 0
DWIDTH 10 0
BBX 10 10 0 -2
BITMAP
0000
0000
0000
0000
0000
0000
0000
0000
0000
0000
ENDCHAR

STARTCHAR C2e3a
ENCODING 11834
SWIDTH 1000 0
DWIDTH 10 0
BBX 10 10 0 -2
BITMAP
0000
0000
0000
0000
0000
0000
0000
0000
0000
0000
ENDCHAR

STARTCHAR C2e3b
ENCODING 11835
SWIDTH 1000 0
DWIDTH 10 0
BBX 10 10 0 -2
BITMAP
0000
0000
0000
0000
0000
0000
0000
0000
0000
0000
ENDCHAR

STARTCHAR C2e3c
ENCODING 11836
SWIDTH 1000 0
DWIDTH 10 0
BBX 10 10 0 -2
BITMAP
0000
0000
0000
0000
0000
0000
0000
0000
0000
0000
ENDCHAR

STARTCHAR C2e3d
ENCODING 11837
SWIDTH 1000 0
DWIDTH 10 0
BBX 10 10 0 -2
BITMAP
0000
0000
0000
0000
0000
0000
0000
0000
0000
0000
ENDCHAR

STARTCHAR C2e3e
ENCODING 11838
SWIDTH 1000 0
DWIDTH 10 0
BBX 10 10 0 -2
BITMAP
0000
0000
0000
0000
0000
0000
0000
0000
0000
0000
ENDCHAR

STARTCHAR C2e3f
ENCODING 11839
SWIDTH 1000 0
DWIDTH 10 0
BBX 10 10 0 -2
BITMAP
0000
0000
0000
0000
0000
0000
0000
0000
0000
0000
ENDCHAR

STARTCHAR C2e40
ENCODING 11840
SWIDTH 1000 0
DWIDTH 10 0
BBX 10 10 0 -2
BITMAP
0000
0000
0000
0000
0000
0000
0000
0000
0000
0000
ENDCHAR

STARTCHAR C2e41
ENCODING 11841
SWIDTH 1000 0
DWIDTH 10 0
BBX 10 10 0 -2
BITMAP
0000
0000
0000
0000
0000
0000
0000
0000
0000
0000
ENDCHAR

STARTCHAR C2e42
ENCODING 11842
SWIDTH 1000 0
DWIDTH 10 0
BBX 10 10 0 -2
BITMAP
0000
0000
0000
0000
0000
0000
0000
0000
0000
0000
ENDCHAR

STARTCHAR C2e43
ENCODING 11843
SWIDTH 1000 0
DWIDTH 10 0
BBX 10 10 0 -2
BITMAP
0000
0000
0000
0000
0000
0000
0000
0000
0000
0000
ENDCHAR

STARTCHAR C2e44
ENCODING 11844
SWIDTH 1000 0
DWIDTH 10 0
BBX 10 10 0 -2
BITMAP
0000
0000
0000
0000
0000
0000
0000
0000
0000
0000
ENDCHAR

STARTCHAR C2e45
ENCODING 11845
SWIDTH 1000 0
DWIDTH 10 0
BBX 10 10 0 -2
BITMAP
0000
0000
0000
0000
0000
0000
0000
0000
0000
0000
ENDCHAR

STARTCHAR C2e46
ENCODING 11846
SWIDTH 1000 0
DWIDTH 10 0
BBX 10 10 0 -2
BITMAP
0000
0000
0000
0000
0000
0000
0000
0000
0000
0000
ENDCHAR

STARTCHAR C2e47
ENCODING 11847
SWIDTH 1000 0
DWIDTH 10 0
BBX 10 10 0 -2
BITMAP
0000
0000
0000
0000
0000
0000
0000
0000
0000
0000
ENDCHAR

STARTCHAR C2e48
ENCODING 11848
SWIDTH 1000 0
DWIDTH 10 0
BBX 10 10 0 -2
BITMAP
0000
0000
0000
0000
0000
0000
0000
0000
0000
0000
ENDCHAR

STARTCHAR C2e49
ENCODING 11849
SWIDTH 1000 0
DWIDTH 10 0
BBX 10 10 0 -2
BITMAP
0000
0000
0000
0000
0000
0000
0000
0000
0000
0000
ENDCHAR

STARTCHAR C2e4a
ENCODING 11850
SWIDTH 1000 0
DWIDTH 10 0
BBX 10 10 0 -2
BITMAP
0000
0000
0000
0000
0000
0000
0000
0000
0000
0000
ENDCHAR

STARTCHAR C2e4b
ENCODING 11851
SWIDTH 1000 0
DWIDTH 10 0
BBX 10 10 0 -2
BITMAP
0000
0000
0000
0000
0000
0000
0000
0000
0000
0000
ENDCHAR

STARTCHAR C2e4c
ENCODING 11852
SWIDTH 1000 0
DWIDTH 10 0
BBX 10 10 0 -2
BITMAP
0000
0000
0000
0000
0000
0000
0000
0000
0000
0000
ENDCHAR

STARTCHAR C2e4d
ENCODING 11853
SWIDTH 1000 0
DWIDTH 10 0
BBX 10 10 0 -2
BITMAP
0000
0000
0000
0000
0000
0000
0000
0000
0000
0000
ENDCHAR

STARTCHAR C2e4e
ENCODING 11854
SWIDTH 1000 0
DWIDTH 10 0
BBX 10 10 0 -2
BITMAP
0000
0000
0000
0000
0000
0000
0000
0000
0000
0000
ENDCHAR

STARTCHAR C2e4f
ENCODING 11855
SWIDTH 1000 0
DWIDTH 10 0
BBX 10 10 0 -2
BITMAP
0000
0000
0000
0000
0000
0000
0000
0000
0000
0000
ENDCHAR

STARTCHAR C2e50
ENCODING 11856
SWIDTH 1000 0
DWIDTH 10 0
BBX 10 10 0 -2
BITMAP
0000
0000
0000
0000
0000
0000
0000
0000
0000
0000
ENDCHAR

STARTCHAR C2e51
ENCODING 11857
SWIDTH 1000 0
DWIDTH 10 0
BBX 10 10 0 -2
BITMAP
0000
0000
0000
0000
0000
0000
0000
0000
0000
0000
ENDCHAR

STARTCHAR C2e52
ENCODING 11858
SWIDTH 1000 0
DWIDTH 10 0
BBX 10 10 0 -2
BITMAP
0000
0000
0000
0000
0000
0000
0000
0000
0000
0000
ENDCHAR

STARTCHAR C2e53
ENCODING 11859
SWIDTH 1000 0
DWIDTH 10 0
BBX 10 10 0 -2
BITMAP
0000
0000
0000
0000
0000
0000
0000
0000
0000
0000
ENDCHAR

STARTCHAR C2e54
ENCODING 11860
SWIDTH 1000 0
DWIDTH 10 0
BBX 10 10 0 -2
BITMAP
0000
0000
0000
0000
0000
0000
0000
0000
0000
0000
ENDCHAR

STARTCHAR C2e55
ENCODING 11861
SWIDTH 1000 0
DWIDTH 10 0
BBX 10 10 0 -2
BITMAP
0000
0000
0000
0000
0000
0000
0000
0000
0000
0000
ENDCHAR

STARTCHAR C2e56
ENCODING 11862
SWIDTH 1000 0
DWIDTH 10 0
BBX 10 10 0 -2
BITMAP
0000
0000
0000
0000
0000
0000
0000
0000
0000
0000
ENDCHAR

STARTCHAR C2e57
ENCODING 11863
SWIDTH 1000 0
DWIDTH 10 0
BBX 10 10 0 -2
BITMAP
0000
0000
0000
0000
0000
0000
0000
0000
0000
0000
ENDCHAR

STARTCHAR C2e58
ENCODING 11864
SWIDTH 1000 0
DWIDTH 10 0
BBX 10 10 0 -2
BITMAP
0000
0000
0000
0000
0000
0000
0000
0000
0000
0000
ENDCHAR

STARTCHAR C2e59
ENCODING 11865
SWIDTH 1000 0
DWIDTH 10 0
BBX 10 10 0 -2
BITMAP
0000
0000
0000
0000
0000
0000
0000
0000
0000
0000
ENDCHAR

STARTCHAR C2e5a
ENCODING 11866
SWIDTH 1000 0
DWIDTH 10 0
BBX 10 10 0 -2
BITMAP
0000
0000
0000
0000
0000
0000
0000
0000
0000
0000
ENDCHAR

STARTCHAR C2e5b
ENCODING 11867
SWIDTH 1000 0
DWIDTH 10 0
BBX 10 10 0 -2
BITMAP
0000
0000
0000
0000
0000
0000
0000
0000
0000
0000
ENDCHAR

STARTCHAR C2e5c
ENCODING 11868
SWIDTH 1000 0
DWIDTH 10 0
BBX 10 10 0 -2
BITMAP
0000
0000
0000
0000
0000
0000
0000
0000
0000
0000
ENDCHAR

STARTCHAR C2e5d
ENCODING 11869
SWIDTH 1000 0
DWIDTH 10 0
BBX 10 10 0 -2
BITMAP
0000
0000
0000
0000
0000
0000
0000
0000
0000
0000
ENDCHAR

STARTCHAR C2e5e
ENCODING 11870
SWIDTH 1000 0
DWIDTH 10 0
BBX 10 10 0 -2
BITMAP
0000
0000
0000
0000
0000
0000
0000
0000
0000
0000
ENDCHAR

STARTCHAR C2e5f
ENCODING 11871
SWIDTH 1000 0
DWIDTH 10 0
BBX 10 10 0 -2
BITMAP
0000
0000
0000
0000
0000
0000
0000
0000
0000
0000
ENDCHAR

STARTCHAR C2e60
ENCODING 11872
SWIDTH 1000 0
DWIDTH 10 0
BBX 10 10 0 -2
BITMAP
0000
0000
0000
0000
0000
0000
0000
0000
0000
0000
ENDCHAR

STARTCHAR C2e61
ENCODING 11873
SWIDTH 1000 0
DWIDTH 10 0
BBX 10 10 0 -2
BITMAP
0000
0000
0000
0000
0000
0000
0000
0000
0000
0000
ENDCHAR

STARTCHAR C2e62
ENCODING 11874
SWIDTH 1000 0
DWIDTH 10 0
BBX 10 10 0 -2
BITMAP
0000
0000
0000
0000
0000
0000
0000
0000
0000
0000
ENDCHAR

STARTCHAR C2e63
ENCODING 11875
SWIDTH 1000 0
DWIDTH 10 0
BBX 10 10 0 -2
BITMAP
0000
0000
0000
0000
0000
0000
0000
0000
0000
0000
ENDCHAR

STARTCHAR C2e64
ENCODING 11876
SWIDTH 1000 0
DWIDTH 10 0
BBX 10 10 0 -2
BITMAP
0000
0000
0000
0000
0000
0000
0000
0000
0000
0000
ENDCHAR

STARTCHAR C2e65
ENCODING 11877
SWIDTH 1000 0
DWIDTH 10 0
BBX 10 10 0 -2
BITMAP
0000
0000
0000
0000
0000
0000
0000
0000
0000
0000
ENDCHAR

STARTCHAR C2e66
ENCODING 11878
SWIDTH 1000 0
DWIDTH 10 0
BBX 10 10 0 -2
BITMAP
0000
0000
0000
0000
0000
0000
0000
0000
0000
0000
ENDCHAR

STARTCHAR C2e67
ENCODING 11879
SWIDTH 1000 0
DWIDTH 10 0
BBX 10 10 0 -2
BITMAP
0000
0000
0000
0000
0000
0000
0000
0000
0000
0000
ENDCHAR

STARTCHAR C2e68
ENCODING 11880
SWIDTH 1000 0
DWIDTH 10 0
BBX 10 10 0 -2
BITMAP
0000
0000
0000
0000
0000
0000
0000
0000
0000
0000
ENDCHAR

STARTCHAR C2e69
ENCODING 11881
SWIDTH 1000 0
DWIDTH 10 0
BBX 10 10 0 -2
BITMAP
0000
0000
0000
0000
0000
0000
0000
0000
0000
0000
ENDCHAR

STARTCHAR C2e6a
ENCODING 11882
SWIDTH 1000 0
DWIDTH 10 0
BBX 10 10 0 -2
BITMAP
0000
0000
0000
0000
0000
0000
0000
0000
0000
0000
ENDCHAR

STARTCHAR C2e6b
ENCODING 11883
SWIDTH 1000 0
DWIDTH 10 0
BBX 10 10 0 -2
BITMAP
0000
0000
0000
0000
0000
0000
0000
0000
0000
0000
ENDCHAR

STARTCHAR C2e6c
ENCODING 11884
SWIDTH 1000 0
DWIDTH 10 0
BBX 10 10 0 -2
BITMAP
0000
0000
0000
0000
0000
0000
0000
0000
0000
0000
ENDCHAR

STARTCHAR C2e6d
ENCODING 11885
SWIDTH 1000 0
DWIDTH 10 0
BBX 10 10 0 -2
BITMAP
0000
0000
0000
0000
0000
0000
0000
0000
0000
0000
ENDCHAR

STARTCHAR C2e6e
ENCODING 11886
SWIDTH 1000 0
DWIDTH 10 0
BBX 10 10 0 -2
BITMAP
0000
0000
0000
0000
0000
0000
0000
0000
0000
0000
ENDCHAR

STARTCHAR C2e6f
ENCODING 11887
SWIDTH 1000 0
DWIDTH 10 0
BBX 10 10 0 -2
BITMAP
0000
0000
0000
0000
0000
0000
0000
0000
0000
0000
ENDCHAR

STARTCHAR C2e70
ENCODING 11888
SWIDTH 1000 0
DWIDTH 10 0
BBX 10 10 0 -2
BITMAP
0000
0000
0000
0000
0000
0000
0000
0000
0000
0000
ENDCHAR

STARTCHAR C2e71
ENCODING 11889
SWIDTH 1000 0
DWIDTH 10 0
BBX 10 10 0 -2
BITMAP
0000
0000
0000
0000
0000
0000
0000
0000
0000
0000
ENDCHAR

STARTCHAR C2e72
ENCODING 11890
SWIDTH 1000 0
DWIDTH 10 0
BBX 10 10 0 -2
BITMAP
0000
0000
0000
0000
0000
0000
0000
0000
0000
0000
ENDCHAR

STARTCHAR C2e73
ENCODING 11891
SWIDTH 1000 0
DWIDTH 10 0
BBX 10 10 0 -2
BITMAP
0000
0000
0000
0000
0000
0000
0000
0000
0000
0000
ENDCHAR

STARTCHAR C2e74
ENCODING 11892
SWIDTH 1000 0
DWIDTH 10 0
BBX 10 10 0 -2
BITMAP
0000
0000
0000
0000
0000
0000
0000
0000
0000
0000
ENDCHAR

STARTCHAR C2e75
ENCODING 11893
SWIDTH 1000 0
DWIDTH 10 0
BBX 10 10 0 -2
BITMAP
0000
0000
0000
0000
0000
0000
0000
0000
0000
0000
ENDCHAR

STARTCHAR C2e76
ENCODING 11894
SWIDTH 1000 0
DWIDTH 10 0
BBX 10 10 0 -2
BITMAP
0000
0000
0000
0000
0000
0000
0000
0000
0000
0000
ENDCHAR

STARTCHAR C2e77
ENCODING 11895
SWIDTH 1000 0
DWIDTH 10 0
BBX 10 10 0 -2
BITMAP
0000
0000
0000
0000
0000
0000
0000
0000
0000
0000
ENDCHAR

STARTCHAR C2e78
ENCODING 11896
SWIDTH 1000 0
DWIDTH 10 0
BBX 10 10 0 -2
BITMAP
0000
0000
0000
0000
0000
0000
0000
0000
0000
0000
ENDCHAR

STARTCHAR C2e79
ENCODING 11897
SWIDTH 1000 0
DWIDTH 10 0
BBX 10 10 0 -2
BITMAP
0000
0000
0000
0000
0000
0000
0000
0000
0000
0000
ENDCHAR

STARTCHAR C2e7a
ENCODING 11898
SWIDTH 1000 0
DWIDTH 10 0
BBX 10 10 0 -2
BITMAP
0000
0000
0000
0000
0000
0000
0000
0000
0000
0000
ENDCHAR

STARTCHAR C2e7b
ENCODING 11899
SWIDTH 1000 0
DWIDTH 10 0
BBX 10 10 0 -2
BITMAP
0000
0000
0000
0000
0000
0000
0000
0000
0000
0000
ENDCHAR

STARTCHAR C2e7c
ENCODING 11900
SWIDTH 1000 0
DWIDTH 10 0
BBX 10 10 0 -2
BITMAP
0000
0000
0000
0000
0000
0000
0000
0000
0000
0000
ENDCHAR

STARTCHAR C2e7d
ENCODING 11901
SWIDTH 1000 0
DWIDTH 10 0
BBX 10 10 0 -2
BITMAP
0000
0000
0000
0000
0000
0000
0000
0000
0000
0000
ENDCHAR

STARTCHAR C2e7e
ENCODING 11902
SWIDTH 1000 0
DWIDTH 10 0
BBX 10 10 0 -2
BITMAP
0000
0000
0000
0000
0000
0000
0000
0000
0000
0000
ENDCHAR

STARTCHAR C2f21
ENCODING 12065
SWIDTH 1000 0
DWIDTH 10 0
BBX 10 10 0 -2
BITMAP
0000
0000
0000
0000
0000
0000
0000
0000
0000
0000
ENDCHAR

STARTCHAR C2f22
ENCODING 12066
SWIDTH 1000 0
DWIDTH 10 0
BBX 10 10 0 -2
BITMAP
0000
0000
0000
0000
0000
0000
0000
0000
0000
0000
ENDCHAR

STARTCHAR C2f23
ENCODING 12067
SWIDTH 1000 0
DWIDTH 10 0
BBX 10 10 0 -2
BITMAP
0000
0000
0000
0000
0000
0000
0000
0000
0000
0000
ENDCHAR

STARTCHAR C2f24
ENCODING 12068
SWIDTH 1000 0
DWIDTH 10 0
BBX 10 10 0 -2
BITMAP
0000
0000
0000
0000
0000
0000
0000
0000
0000
0000
ENDCHAR

STARTCHAR C2f25
ENCODING 12069
SWIDTH 1000 0
DWIDTH 10 0
BBX 10 10 0 -2
BITMAP
0000
0000
0000
0000
0000
0000
0000
0000
0000
0000
ENDCHAR

STARTCHAR C2f26
ENCODING 12070
SWIDTH 1000 0
DWIDTH 10 0
BBX 10 10 0 -2
BITMAP
0000
0000
0000
0000
0000
0000
0000
0000
0000
0000
ENDCHAR

STARTCHAR C2f27
ENCODING 12071
SWIDTH 1000 0
DWIDTH 10 0
BBX 10 10 0 -2
BITMAP
0000
0000
0000
0000
0000
0000
0000
0000
0000
0000
ENDCHAR

STARTCHAR C2f28
ENCODING 12072
SWIDTH 1000 0
DWIDTH 10 0
BBX 10 10 0 -2
BITMAP
0000
0000
0000
0000
0000
0000
0000
0000
0000
0000
ENDCHAR

STARTCHAR C2f29
ENCODING 12073
SWIDTH 1000 0
DWIDTH 10 0
BBX 10 10 0 -2
BITMAP
0000
0000
0000
0000
0000
0000
0000
0000
0000
0000
ENDCHAR

STARTCHAR C2f2a
ENCODING 12074
SWIDTH 1000 0
DWIDTH 10 0
BBX 10 10 0 -2
BITMAP
0000
0000
0000
0000
0000
0000
0000
0000
0000
0000
ENDCHAR

STARTCHAR C2f2b
ENCODING 12075
SWIDTH 1000 0
DWIDTH 10 0
BBX 10 10 0 -2
BITMAP
0000
0000
0000
0000
0000
0000
0000
0000
0000
0000
ENDCHAR

STARTCHAR C2f2c
ENCODING 12076
SWIDTH 1000 0
DWIDTH 10 0
BBX 10 10 0 -2
BITMAP
0000
0000
0000
0000
0000
0000
0000
0000
0000
0000
ENDCHAR

STARTCHAR C2f2d
ENCODING 12077
SWIDTH 1000 0
DWIDTH 10 0
BBX 10 10 0 -2
BITMAP
0000
0000
0000
0000
0000
0000
0000
0000
0000
0000
ENDCHAR

STARTCHAR C2f2e
ENCODING 12078
SWIDTH 1000 0
DWIDTH 10 0
BBX 10 10 0 -2
BITMAP
0000
0000
0000
0000
0000
0000
0000
0000
0000
0000
ENDCHAR

STARTCHAR C2f2f
ENCODING 12079
SWIDTH 1000 0
DWIDTH 10 0
BBX 10 10 0 -2
BITMAP
0000
0000
0000
0000
0000
0000
0000
0000
0000
0000
ENDCHAR

STARTCHAR C2f30
ENCODING 12080
SWIDTH 1000 0
DWIDTH 10 0
BBX 10 10 0 -2
BITMAP
0000
0000
0000
0000
0000
0000
0000
0000
0000
0000
ENDCHAR

STARTCHAR C2f31
ENCODING 12081
SWIDTH 1000 0
DWIDTH 10 0
BBX 10 10 0 -2
BITMAP
0000
0000
0000
0000
0000
0000
0000
0000
0000
0000
ENDCHAR

STARTCHAR C2f32
ENCODING 12082
SWIDTH 1000 0
DWIDTH 10 0
BBX 10 10 0 -2
BITMAP
0000
0000
0000
0000
0000
0000
0000
0000
0000
0000
ENDCHAR

STARTCHAR C2f33
ENCODING 12083
SWIDTH 1000 0
DWIDTH 10 0
BBX 10 10 0 -2
BITMAP
0000
0000
0000
0000
0000
0000
0000
0000
0000
0000
ENDCHAR

STARTCHAR C2f34
ENCODING 12084
SWIDTH 1000 0
DWIDTH 10 0
BBX 10 10 0 -2
BITMAP
0000
0000
0000
0000
0000
0000
0000
0000
0000
0000
ENDCHAR

STARTCHAR C2f35
ENCODING 12085
SWIDTH 1000 0
DWIDTH 10 0
BBX 10 10 0 -2
BITMAP
0000
0000
0000
0000
0000
0000
0000
0000
0000
0000
ENDCHAR

STARTCHAR C2f36
ENCODING 12086
SWIDTH 1000 0
DWIDTH 10 0
BBX 10 10 0 -2
BITMAP
0000
0000
0000
0000
0000
0000
0000
0000
0000
0000
ENDCHAR

STARTCHAR C2f37
ENCODING 12087
SWIDTH 1000 0
DWIDTH 10 0
BBX 10 10 0 -2
BITMAP
0000
0000
0000
0000
0000
0000
0000
0000
0000
0000
ENDCHAR

STARTCHAR C2f38
ENCODING 12088
SWIDTH 1000 0
DWIDTH 10 0
BBX 10 10 0 -2
BITMAP
0000
0000
0000
0000
0000
0000
0000
0000
0000
0000
ENDCHAR

STARTCHAR C2f39
ENCODING 12089
SWIDTH 1000 0
DWIDTH 10 0
BBX 10 10 0 -2
BITMAP
0000
0000
0000
0000
0000
0000
0000
0000
0000
0000
ENDCHAR

STARTCHAR C2f3a
ENCODING 12090
SWIDTH 1000 0
DWIDTH 10 0
BBX 10 10 0 -2
BITMAP
0000
0000
0000
0000
0000
0000
0000
0000
0000
0000
ENDCHAR

STARTCHAR C2f3b
ENCODING 12091
SWIDTH 1000 0
DWIDTH 10 0
BBX 10 10 0 -2
BITMAP
0000
0000
0000
0000
0000
0000
0000
0000
0000
0000
ENDCHAR

STARTCHAR C2f3c
ENCODING 12092
SWIDTH 1000 0
DWIDTH 10 0
BBX 10 10 0 -2
BITMAP
0000
0000
0000
0000
0000
0000
0000
0000
0000
0000
ENDCHAR

STARTCHAR C2f3d
ENCODING 12093
SWIDTH 1000 0
DWIDTH 10 0
BBX 10 10 0 -2
BITMAP
0000
0000
0000
0000
0000
0000
0000
0000
0000
0000
ENDCHAR

STARTCHAR C2f3e
ENCODING 12094
SWIDTH 1000 0
DWIDTH 10 0
BBX 10 10 0 -2
BITMAP
0000
0000
0000
0000
0000
0000
0000
0000
0000
0000
ENDCHAR

STARTCHAR C2f3f
ENCODING 12095
SWIDTH 1000 0
DWIDTH 10 0
BBX 10 10 0 -2
BITMAP
0000
0000
0000
0000
0000
0000
0000
0000
0000
0000
ENDCHAR

STARTCHAR C2f40
ENCODING 12096
SWIDTH 1000 0
DWIDTH 10 0
BBX 10 10 0 -2
BITMAP
0000
0000
0000
0000
0000
0000
0000
0000
0000
0000
ENDCHAR

STARTCHAR C2f41
ENCODING 12097
SWIDTH 1000 0
DWIDTH 10 0
BBX 10 10 0 -2
BITMAP
0000
0000
0000
0000
0000
0000
0000
0000
0000
0000
ENDCHAR

STARTCHAR C2f42
ENCODING 12098
SWIDTH 1000 0
DWIDTH 10 0
BBX 10 10 0 -2
BITMAP
0000
0000
0000
0000
0000
0000
0000
0000
0000
0000
ENDCHAR

STARTCHAR C2f43
ENCODING 12099
SWIDTH 1000 0
DWIDTH 10 0
BBX 10 10 0 -2
BITMAP
0000
0000
0000
0000
0000
0000
0000
0000
0000
0000
ENDCHAR

STARTCHAR C2f44
ENCODING 12100
SWIDTH 1000 0
DWIDTH 10 0
BBX 10 10 0 -2
BITMAP
0000
0000
0000
0000
0000
0000
0000
0000
0000
0000
ENDCHAR

STARTCHAR C2f45
ENCODING 12101
SWIDTH 1000 0
DWIDTH 10 0
BBX 10 10 0 -2
BITMAP
0000
0000
0000
0000
0000
0000
0000
0000
0000
0000
ENDCHAR

STARTCHAR C2f46
ENCODING 12102
SWIDTH 1000 0
DWIDTH 10 0
BBX 10 10 0 -2
BITMAP
0000
0000
0000
0000
0000
0000
0000
0000
0000
0000
ENDCHAR

STARTCHAR C2f47
ENCODING 12103
SWIDTH 1000 0
DWIDTH 10 0
BBX 10 10 0 -2
BITMAP
0000
0000
0000
0000
0000
0000
0000
0000
0000
0000
ENDCHAR

STARTCHAR C2f48
ENCODING 12104
SWIDTH 1000 0
DWIDTH 10 0
BBX 10 10 0 -2
BITMAP
0000
0000
0000
0000
0000
0000
0000
0000
0000
0000
ENDCHAR

STARTCHAR C2f49
ENCODING 12105
SWIDTH 1000 0
DWIDTH 10 0
BBX 10 10 0 -2
BITMAP
0000
0000
0000
0000
0000
0000
0000
0000
0000
0000
ENDCHAR

STARTCHAR C2f4a
ENCODING 12106
SWIDTH 1000 0
DWIDTH 10 0
BBX 10 10 0 -2
BITMAP
0000
0000
0000
0000
0000
0000
0000
0000
0000
0000
ENDCHAR

STARTCHAR C2f4b
ENCODING 12107
SWIDTH 1000 0
DWIDTH 10 0
BBX 10 10 0 -2
BITMAP
0000
0000
0000
0000
0000
0000
0000
0000
0000
0000
ENDCHAR

STARTCHAR C2f4c
ENCODING 12108
SWIDTH 1000 0
DWIDTH 10 0
BBX 10 10 0 -2
BITMAP
0000
0000
0000
0000
0000
0000
0000
0000
0000
0000
ENDCHAR

STARTCHAR C2f4d
ENCODING 12109
SWIDTH 1000 0
DWIDTH 10 0
BBX 10 10 0 -2
BITMAP
0000
0000
0000
0000
0000
0000
0000
0000
0000
0000
ENDCHAR

STARTCHAR C2f4e
ENCODING 12110
SWIDTH 1000 0
DWIDTH 10 0
BBX 10 10 0 -2
BITMAP
0000
0000
0000
0000
0000
0000
0000
0000
0000
0000
ENDCHAR

STARTCHAR C2f4f
ENCODING 12111
SWIDTH 1000 0
DWIDTH 10 0
BBX 10 10 0 -2
BITMAP
0000
0000
0000
0000
0000
0000
0000
0000
0000
0000
ENDCHAR

STARTCHAR C2f50
ENCODING 12112
SWIDTH 1000 0
DWIDTH 10 0
BBX 10 10 0 -2
BITMAP
0000
0000
0000
0000
0000
0000
0000
0000
0000
0000
ENDCHAR

STARTCHAR C2f51
ENCODING 12113
SWIDTH 1000 0
DWIDTH 10 0
BBX 10 10 0 -2
BITMAP
0000
0000
0000
0000
0000
0000
0000
0000
0000
0000
ENDCHAR

STARTCHAR C2f52
ENCODING 12114
SWIDTH 1000 0
DWIDTH 10 0
BBX 10 10 0 -2
BITMAP
0000
0000
0000
0000
0000
0000
0000
0000
0000
0000
ENDCHAR

STARTCHAR C2f53
ENCODING 12115
SWIDTH 1000 0
DWIDTH 10 0
BBX 10 10 0 -2
BITMAP
0000
0000
0000
0000
0000
0000
0000
0000
0000
0000
ENDCHAR

STARTCHAR C2f54
ENCODING 12116
SWIDTH 1000 0
DWIDTH 10 0
BBX 10 10 0 -2
BITMAP
0000
0000
0000
0000
0000
0000
0000
0000
0000
0000
ENDCHAR

STARTCHAR C2f55
ENCODING 12117
SWIDTH 1000 0
DWIDTH 10 0
BBX 10 10 0 -2
BITMAP
0000
0000
0000
0000
0000
0000
0000
0000
0000
0000
ENDCHAR

STARTCHAR C2f56
ENCODING 12118
SWIDTH 1000 0
DWIDTH 10 0
BBX 10 10 0 -2
BITMAP
0000
0000
0000
0000
0000
0000
0000
0000
0000
0000
ENDCHAR

STARTCHAR C2f57
ENCODING 12119
SWIDTH 1000 0
DWIDTH 10 0
BBX 10 10 0 -2
BITMAP
0000
0000
0000
0000
0000
0000
0000
0000
0000
0000
ENDCHAR

STARTCHAR C2f58
ENCODING 12120
SWIDTH 1000 0
DWIDTH 10 0
BBX 10 10 0 -2
BITMAP
0000
0000
0000
0000
0000
0000
0000
0000
0000
0000
ENDCHAR

STARTCHAR C2f59
ENCODING 12121
SWIDTH 1000 0
DWIDTH 10 0
BBX 10 10 0 -2
BITMAP
0000
0000
0000
0000
0000
0000
0000
0000
0000
0000
ENDCHAR

STARTCHAR C2f5a
ENCODING 12122
SWIDTH 1000 0
DWIDTH 10 0
BBX 10 10 0 -2
BITMAP
0000
0000
0000
0000
0000
0000
0000
0000
0000
0000
ENDCHAR

STARTCHAR C2f5b
ENCODING 12123
SWIDTH 1000 0
DWIDTH 10 0
BBX 10 10 0 -2
BITMAP
0000
0000
0000
0000
0000
0000
0000
0000
0000
0000
ENDCHAR

STARTCHAR C2f5c
ENCODING 12124
SWIDTH 1000 0
DWIDTH 10 0
BBX 10 10 0 -2
BITMAP
0000
0000
0000
0000
0000
0000
0000
0000
0000
0000
ENDCHAR

STARTCHAR C2f5d
ENCODING 12125
SWIDTH 1000 0
DWIDTH 10 0
BBX 10 10 0 -2
BITMAP
0000
0000
0000
0000
0000
0000
0000
0000
0000
0000
ENDCHAR

STARTCHAR C2f5e
ENCODING 12126
SWIDTH 1000 0
DWIDTH 10 0
BBX 10 10 0 -2
BITMAP
0000
0000
0000
0000
0000
0000
0000
0000
0000
0000
ENDCHAR

STARTCHAR C2f5f
ENCODING 12127
SWIDTH 1000 0
DWIDTH 10 0
BBX 10 10 0 -2
BITMAP
0000
0000
0000
0000
0000
0000
0000
0000
0000
0000
ENDCHAR

STARTCHAR C2f60
ENCODING 12128
SWIDTH 1000 0
DWIDTH 10 0
BBX 10 10 0 -2
BITMAP
0000
0000
0000
0000
0000
0000
0000
0000
0000
0000
ENDCHAR

STARTCHAR C2f61
ENCODING 12129
SWIDTH 1000 0
DWIDTH 10 0
BBX 10 10 0 -2
BITMAP
0000
0000
0000
0000
0000
0000
0000
0000
0000
0000
ENDCHAR

STARTCHAR C2f62
ENCODING 12130
SWIDTH 1000 0
DWIDTH 10 0
BBX 10 10 0 -2
BITMAP
0000
0000
0000
0000
0000
0000
0000
0000
0000
0000
ENDCHAR

STARTCHAR C2f63
ENCODING 12131
SWIDTH 1000 0
DWIDTH 10 0
BBX 10 10 0 -2
BITMAP
0000
0000
0000
0000
0000
0000
0000
0000
0000
0000
ENDCHAR

STARTCHAR C2f64
ENCODING 12132
SWIDTH 1000 0
DWIDTH 10 0
BBX 10 10 0 -2
BITMAP
0000
0000
0000
0000
0000
0000
0000
0000
0000
0000
ENDCHAR

STARTCHAR C2f65
ENCODING 12133
SWIDTH 1000 0
DWIDTH 10 0
BBX 10 10 0 -2
BITMAP
0000
0000
0000
0000
0000
0000
0000
0000
0000
0000
ENDCHAR

STARTCHAR C2f66
ENCODING 12134
SWIDTH 1000 0
DWIDTH 10 0
BBX 10 10 0 -2
BITMAP
0000
0000
0000
0000
0000
0000
0000
0000
0000
0000
ENDCHAR

STARTCHAR C2f67
ENCODING 12135
SWIDTH 1000 0
DWIDTH 10 0
BBX 10 10 0 -2
BITMAP
0000
0000
0000
0000
0000
0000
0000
0000
0000
0000
ENDCHAR

STARTCHAR C2f68
ENCODING 12136
SWIDTH 1000 0
DWIDTH 10 0
BBX 10 10 0 -2
BITMAP
0000
0000
0000
0000
0000
0000
0000
0000
0000
0000
ENDCHAR

STARTCHAR C2f69
ENCODING 12137
SWIDTH 1000 0
DWIDTH 10 0
BBX 10 10 0 -2
BITMAP
0000
0000
0000
0000
0000
0000
0000
0000
0000
0000
ENDCHAR

STARTCHAR C2f6a
ENCODING 12138
SWIDTH 1000 0
DWIDTH 10 0
BBX 10 10 0 -2
BITMAP
0000
0000
0000
0000
0000
0000
0000
0000
0000
0000
ENDCHAR

STARTCHAR C2f6b
ENCODING 12139
SWIDTH 1000 0
DWIDTH 10 0
BBX 10 10 0 -2
BITMAP
0000
0000
0000
0000
0000
0000
0000
0000
0000
0000
ENDCHAR

STARTCHAR C2f6c
ENCODING 12140
SWIDTH 1000 0
DWIDTH 10 0
BBX 10 10 0 -2
BITMAP
0000
0000
0000
0000
0000
0000
0000
0000
0000
0000
ENDCHAR

STARTCHAR C2f6d
ENCODING 12141
SWIDTH 1000 0
DWIDTH 10 0
BBX 10 10 0 -2
BITMAP
0000
0000
0000
0000
0000
0000
0000
0000
0000
0000
ENDCHAR

STARTCHAR C2f6e
ENCODING 12142
SWIDTH 1000 0
DWIDTH 10 0
BBX 10 10 0 -2
BITMAP
0000
0000
0000
0000
0000
0000
0000
0000
0000
0000
ENDCHAR

STARTCHAR C2f6f
ENCODING 12143
SWIDTH 1000 0
DWIDTH 10 0
BBX 10 10 0 -2
BITMAP
0000
0000
0000
0000
0000
0000
0000
0000
0000
0000
ENDCHAR

STARTCHAR C2f70
ENCODING 12144
SWIDTH 1000 0
DWIDTH 10 0
BBX 10 10 0 -2
BITMAP
0000
0000
0000
0000
0000
0000
0000
0000
0000
0000
ENDCHAR

STARTCHAR C2f71
ENCODING 12145
SWIDTH 1000 0
DWIDTH 10 0
BBX 10 10 0 -2
BITMAP
0000
0000
0000
0000
0000
0000
0000
0000
0000
0000
ENDCHAR

STARTCHAR C2f72
ENCODING 12146
SWIDTH 1000 0
DWIDTH 10 0
BBX 10 10 0 -2
BITMAP
0000
0000
0000
0000
0000
0000
0000
0000
0000
0000
ENDCHAR

STARTCHAR C2f73
ENCODING 12147
SWIDTH 1000 0
DWIDTH 10 0
BBX 10 10 0 -2
BITMAP
0000
0000
0000
0000
0000
0000
0000
0000
0000
0000
ENDCHAR

STARTCHAR C2f74
ENCODING 12148
SWIDTH 1000 0
DWIDTH 10 0
BBX 10 10 0 -2
BITMAP
0000
0000
0000
0000
0000
0000
0000
0000
0000
0000
ENDCHAR

STARTCHAR C2f75
ENCODING 12149
SWIDTH 1000 0
DWIDTH 10 0
BBX 10 10 0 -2
BITMAP
0000
0000
0000
0000
0000
0000
0000
0000
0000
0000
ENDCHAR

STARTCHAR C2f76
ENCODING 12150
SWIDTH 1000 0
DWIDTH 10 0
BBX 10 10 0 -2
BITMAP
0000
0000
0000
0000
0000
0000
0000
0000
0000
0000
ENDCHAR

STARTCHAR C2f77
ENCODING 12151
SWIDTH 1000 0
DWIDTH 10 0
BBX 10 10 0 -2
BITMAP
0000
0000
0000
0000
0000
0000
0000
0000
0000
0000
ENDCHAR

STARTCHAR C2f78
ENCODING 12152
SWIDTH 1000 0
DWIDTH 10 0
BBX 10 10 0 -2
BITMAP
0000
0000
0000
0000
0000
0000
0000
0000
0000
0000
ENDCHAR

STARTCHAR C2f79
ENCODING 12153
SWIDTH 1000 0
DWIDTH 10 0
BBX 10 10 0 -2
BITMAP
0000
0000
0000
0000
0000
0000
0000
0000
0000
0000
ENDCHAR

STARTCHAR C2f7a
ENCODING 12154
SWIDTH 1000 0
DWIDTH 10 0
BBX 10 10 0 -2
BITMAP
0000
0000
0000
0000
0000
0000
0000
0000
0000
0000
ENDCHAR

STARTCHAR C2f7b
ENCODING 12155
SWIDTH 1000 0
DWIDTH 10 0
BBX 10 10 0 -2
BITMAP
0000
0000
0000
0000
0000
0000
0000
0000
0000
0000
ENDCHAR

STARTCHAR C2f7c
ENCODING 12156
SWIDTH 1000 0
DWIDTH 10 0
BBX 10 10 0 -2
BITMAP
0000
0000
0000
0000
0000
0000
0000
0000
0000
0000
ENDCHAR

STARTCHAR C2f7d
ENCODING 12157
SWIDTH 1000 0
DWIDTH 10 0
BBX 10 10 0 -2
BITMAP
0000
0000
0000
0000
0000
0000
0000
0000
0000
0000
ENDCHAR

STARTCHAR C2f7e
ENCODING 12158
SWIDTH 1000 0
DWIDTH 10 0
BBX 10 10 0 -2
BITMAP
0000
0000
0000
0000
0000
0000
0000
0000
0000
0000
ENDCHAR

STARTCHAR C3021
ENCODING 12321
SWIDTH 1000 0
DWIDTH 10 0
BBX 10 10 0 -2
BITMAP
FF80
1400
1400
7F00
5500
7F00
1400
1400
FF80
0000
ENDCHAR

STARTCHAR C3022
ENCODING 12322
SWIDTH 1000 0
DWIDTH 10 0
BBX 10 10 0 -2
BITMAP
1F80
EA00
AA00
BF80
AA80
BF80
EA00
0A00
1F80
0000
ENDCHAR

STARTCHAR C3023
ENCODING 12323
SWIDTH 1000 0
DWIDTH 10 0
BBX 10 10 0 -2
BITMAP
4200
4200
EF80
6200
AF80
A200
EF80
6200
AF80
0000
ENDCHAR

STARTCHAR C3024
ENCODING 12324
SWIDTH 1000 0
DWIDTH 10 0
BBX 10 10 0 -2
BITMAP
EF80
A100
AF00
CB00
AB00
AF00
A100
C100
8300
0000
ENDCHAR

STARTCHAR C3025
ENCODING 12325
SWIDTH 1000 0
DWIDTH 10 0
BBX 10 10 0 -2
BITMAP
0800
FF80
2200
3E00
1800
E480
2700
3A00
E180
0000
ENDCHAR

STARTCHAR C3026
ENCODING 12326
SWIDTH 1000 0
DWIDTH 10 0
BBX 10 10 0 -2
BITMAP
7F00
2A00
FF80
9480
3F00
6400
9C00
3600
C180
0000
ENDCHAR

STARTCHAR C3027
ENCODING 12327
SWIDTH 1000 0
DWIDTH 10 0
BBX 10 10 0 -2
BITMAP
4400
4900
FF80
4800
6F00
D400
5F80
4A00
D180
0000
ENDCHAR

STARTCHAR C3028
ENCODING 12328
SWIDTH 1000 0
DWIDTH 10 0
BBX 10 10 0 -2
BITMAP
4200
4500
E880
7700
A000
AF80
E880
6880
AF80
0000
ENDCHAR

STARTCHAR C3029
ENCODING 12329
SWIDTH 1000 0
DWIDTH 10 0
BBX 10 10 0 -2
BITMAP
8700
4D00
1200
0780
DA00
4700
4F80
6200
9F80
0000
ENDCHAR

STARTCHAR C302a
ENCODING 12330
SWIDTH 1000 0
DWIDTH 10 0
BBX 10 10 0 -2
BITMAP
2200
FF80
2200
F500
2A00
DD80
0800
3600
C180
0000
ENDCHAR

STARTCHAR C302b
ENCODING 12331
SWIDTH 1000 0
DWIDTH 10 0
BBX 10 10 0 -2
BITMAP
2200
FF80
2200
FF80
1400
7F00
6700
4100
7F00
0000
ENDCHAR

STARTCHAR C302c
ENCODING 12332
SWIDTH 1000 0
DWIDTH 10 0
BBX 10 10 0 -2
BITMAP
2E00
D200
5F00
F500
5F00
F500
DF00
4480
4780
0000
ENDCHAR

STARTCHAR C302d
ENCODING 12333
SWIDTH 1000 0
DWIDTH 10 0
BBX 10 10 0 -2
BITMAP
FF80
1400
7F00
5500
FF80
0800
5500
5280
9E80
0000
ENDCHAR

STARTCHAR C302e
ENCODING 12334
SWIDTH 1000 0
DWIDTH 10 0
BBX 10 10 0 -2
BITMAP
5F80
5080
FF80
5500
7F80
D280
5700
6200
DF80
0000
ENDCHAR

STARTCHAR C302f
ENCODING 12335
SWIDTH 1000 0
DWIDTH 10 0
BBX 10 10 0 -2
BITMAP
9F80
5080
1F80
9500
5F80
1280
5700
5200
AF80
0000
ENDCHAR

STARTCHAR C3030
ENCODING 12336
SWIDTH 1000 0
DWIDTH 10 0
BBX 10 10 0 -2
BITMAP
4000
4700
F500
5700
5500
5500
5700
9080
9F80
0000
ENDCHAR

STARTCHAR C3031
ENCODING 12337
SWIDTH 1000 0
DWIDTH 10 0
BBX 10 10 0 -2
BITMAP
2200
FF80
2A00
7E00
1200
FF80
2400
FF80
0400
0000
ENDCHAR

STARTCHAR C3032
ENCODING 12338
SWIDTH 1000 0
DWIDTH 10 0
BBX 10 10 0 -2
BITMAP
1400
FF80
1400
FF80
7F00
4100
7F00
4000
8000
0000
ENDCHAR

STARTCHAR C3033
ENCODING 12339
SWIDTH 1000 0
DWIDTH 10 0
BBX 10 10 0 -2
BITMAP
6400
A900
FF80
EA00
B100
E680
1800
0300
AC00
0000
ENDCHAR

STARTCHAR C3034
ENCODING 12340
SWIDTH 1000 0
DWIDTH 10 0
BBX 10 10 0 -2
BITMAP
4400
5F00
EA00
4A00
FF80
C400
5F00
4400
4400
0000
ENDCHAR

STARTCHAR C3035
ENCODING 12341
SWIDTH 1000 0
DWIDTH 10 0
BBX 10 10 0 -2
BITMAP
7F80
4000
4400
4400
5F00
4400
4400
8400
BF80
0000
ENDCHAR

STARTCHAR C3036
ENCODING 12342
SWIDTH 1000 0
DWIDTH 10 0
BBX 10 10 0 -2
BITMAP
4200
F500
4880
F500
D500
F180
4F00
F100
4100
0000
ENDCHAR

STARTCHAR C3037
ENCODING 12343
SWIDTH 1000 0
DWIDTH 10 0
BBX 10 10 0 -2
BITMAP
5E00
4A00
EA00
4B00
6900
D600
5600
6900
D080
0000
ENDCHAR

STARTCHAR C3038
ENCODING 12344
SWIDTH 1000 0
DWIDTH 10 0
BBX 10 10 0 -2
BITMAP
0800
FF80
A080
3F00
4D00
D500
3400
2480
C780
0000
ENDCHAR

STARTCHAR C3039
ENCODING 12345
SWIDTH 1000 0
DWIDTH 10 0
BBX 10 10 0 -2
BITMAP
4000
4F00
E900
6F00
A900
AF00
E900
6900
BF80
0000
ENDCHAR

STARTCHAR C303a
ENCODING 12346
SWIDTH 1000 0
DWIDTH 10 0
BBX 10 10 0 -2
BITMAP
4200
4200
FF80
D400
D400
F400
4400
7400
D780
0000
ENDCHAR

STARTCHAR C303b
ENCODING 12347
SWIDTH 1000 0
DWIDTH 10 0
BBX 10 10 0 -2
BITMAP
2200
5200
A500
7F80
5080
7700
4500
7500
D700
0000
ENDCHAR

STARTCHAR C303c
ENCODING 12348
SWIDTH 1000 0
DWIDTH 10 0
BBX 10 10 0 -2
BITMAP
4800
AF80
4880
9E80
EA80
4E80
EA80
EE80
4300
0000
ENDCHAR

STARTCHAR C303d
ENCODING 12349
SWIDTH 1000 0
DWIDTH 10 0
BBX 10 10 0 -2
BITMAP
4400
AF00
4400
9F80
EA00
5F80
EA00
E600
5980
0000
ENDCHAR

STARTCHAR C303e
ENCODING 12350
SWIDTH 1000 0
DWIDTH 10 0
BBX 10 10 0 -2
BITMAP
6200
A200
F380
D200
D200
F780
0480
0480
D780
0000
ENDCHAR

STARTCHAR C303f
ENCODING 12351
SWIDTH 1000 0
DWIDTH 10 0
BBX 10 10 0 -2
BITMAP
0900
FF80
0400
7480
5300
7200
0200
E580
1880
0000
ENDCHAR

STARTCHAR C3040
ENCODING 12352
SWIDTH 1000 0
DWIDTH 10 0
BBX 10 10 0 -2
BITMAP
FF80
7F00
5500
7F00
4900
2A00
FF80
2A00
C980
0000
ENDCHAR

STARTCHAR C3041
ENCODING 12353
SWIDTH 1000 0
DWIDTH 10 0
BBX 10 10 0 -2
BITMAP
4600
4900
F080
2F00
4000
EF00
6900
4900
4F00
0000
ENDCHAR

STARTCHAR C3042
ENCODING 12354
SWIDTH 1000 0
DWIDTH 10 0
BBX 10 10 0 -2
BITMAP
0800
FF80
9080
1000
FF80
2200
3400
0E00
7100
0000
ENDCHAR

STARTCHAR C3043
ENCODING 12355
SWIDTH 1000 0
DWIDTH 10 0
BBX 10 10 0 -2
BITMAP
0400
7F80
4400
7F80
5F00
7580
5F00
8480
8780
0000
ENDCHAR

STARTCHAR C3044
ENCODING 12356
SWIDTH 1000 0
DWIDTH 10 0
BBX 10 10 0 -2
BITMAP
4200
4F80
E880
4400
6F80
C500
4900
4700
D880
0000
ENDCHAR

STARTCHAR C3045
ENCODING 12357
SWIDTH 1000 0
DWIDTH 10 0
BBX 10 10 0 -2
BITMAP
0400
FF80
A900
BF80
EF00
A900
AF00
E900
0F00
0000
ENDCHAR

STARTCHAR C3046
ENCODING 12358
SWIDTH 1000 0
DWIDTH 10 0
BBX 10 10 0 -2
BITMAP
0800
FF80
9080
7F00
1400
3E00
FF80
2A00
C980
0000
ENDCHAR

ENDFONT
